<?xml version="1.0" encoding="UTF-8"?>
<svg version="1.1" xmlns="http://www.w3.org/2000/svg" width="1024" height="1024">
<path d="M0 0 C11.67707152 -0.00181006 23.35414256 -0.00404899 35.0312137 -0.00757873 C59.76935334 -0.01500119 84.50748658 -0.01961804 109.24562722 -0.01436579 C111.36946982 -0.0139226 113.49331242 -0.01348364 115.61715502 -0.01304901 C117.17943439 -0.01272792 117.17943439 -0.01272792 118.77327497 -0.01240034 C125.93577982 -0.01116773 133.0982815 -0.01239379 140.260786 -0.01472747 C212.18007006 -0.03584422 212.18007006 -0.03584422 238.19863397 0.39381158 C240.15236306 0.42534762 242.1061662 0.45266507 244.06002051 0.47514236 C254.553945 0.60476497 263.5022072 1.00917327 272.9562282 6.12139618 C274.8077907 8.07452118 274.8077907 8.07452118 276.5812282 10.37139618 C277.17161882 11.11905243 277.76200945 11.86670868 278.3702907 12.63702118 C282.50130471 19.10826481 282.25530025 25.52365564 282.25920671 32.95464814 C282.26766587 34.16313259 282.27612503 35.37161704 282.28484052 36.61672223 C282.30639225 39.98260222 282.31907913 43.34830749 282.32810205 46.71423066 C282.34011533 50.37924868 282.36362825 54.04419581 282.38567156 57.70916474 C282.42777644 65.01476071 282.45922459 72.3203676 282.48735338 79.62602925 C282.52188579 88.48992149 282.56672395 97.35375407 282.61188394 106.21759748 C282.67523825 118.68785768 282.73574471 131.1581277 282.79010576 143.62843049 C282.87775139 163.70690582 282.97241614 183.78527552 283.09294695 203.86358368 C283.09883986 204.84554187 283.10473277 205.82750006 283.11080426 206.83921456 C283.13481318 210.83434249 283.15886811 214.82947013 283.18296367 218.82459754 C283.76192419 315.0313639 284.04273499 411.23827177 284.13367075 548.0375401 C284.13931643 560.58287917 284.14898789 573.12820862 284.16179049 585.67354234 C284.17836307 601.9176844 284.18808722 618.16180683 284.18597835 634.405958 C284.18509754 642.33762041 284.18724371 650.26925195 284.19809908 658.20090783 C284.20716634 664.84316619 284.20942233 671.48538224 284.20268772 678.12764418 C284.19947727 681.48447202 284.20046063 684.84115208 284.20810705 688.19798255 C284.21584918 691.83127906 284.21116671 695.46436148 284.20346636 699.09765351 C284.20860974 700.13349326 284.21375313 701.169333 284.21905237 702.23656183 C284.16759385 713.26852466 283.95436855 724.48456496 276.2687282 732.98858368 C268.39015923 740.64477369 259.12168018 741.57158989 248.50868791 741.50171292 C247.3925723 741.50637284 246.27645668 741.51103276 245.12651938 741.51583388 C241.38978503 741.52777649 237.65341475 741.51839092 233.91667742 741.50907624 C231.2092969 741.51158961 228.50193213 741.51860517 225.79455942 741.52539605 C219.90984446 741.53775278 214.02520925 741.5389797 208.1404857 741.53284562 C199.38965042 741.52374837 190.63888878 741.5317915 181.88805914 741.54313686 C166.25834222 741.56280066 150.62865846 741.56515178 134.99893212 741.55994166 C121.3210984 741.55538443 107.64327781 741.55598374 93.96544451 741.561782 C92.13070224 741.56253887 90.29595997 741.56329485 88.4612177 741.56404995 C85.69643855 741.56519514 82.93165939 741.56634502 80.16688024 741.56750919 C54.46381886 741.57821371 28.76076186 741.58293985 3.05769914 741.57503903 C2.08885516 741.57474186 1.12001117 741.57444468 0.12180828 741.5741385 C-7.74590079 741.57168956 -15.6136098 741.56907798 -23.4813188 741.56645437 C-54.17598537 741.55635019 -84.87059724 741.56471079 -115.56525618 741.58794892 C-150.05150223 741.61401532 -184.53771535 741.62687126 -219.02397162 741.61976117 C-222.70031044 741.6190451 -226.37664927 741.61837072 -230.05298811 741.61772072 C-230.95819559 741.61755091 -231.86340308 741.61738111 -232.79604109 741.61720615 C-246.46523935 741.61490239 -260.13440705 741.62288376 -273.80359846 741.6360122 C-289.34618107 741.6509133 -304.88869199 741.65178008 -320.43127304 741.63394129 C-329.12979089 741.62436888 -337.82814164 741.62583233 -346.52664838 741.64317597 C-352.33725241 741.653653 -358.14772895 741.64958269 -363.9583204 741.63369594 C-367.26885804 741.62505116 -370.57879946 741.62487377 -373.88936263 741.63796525 C-377.45862769 741.65107806 -381.02700497 741.63960119 -384.59623152 741.62196743 C-385.61955352 741.63161795 -386.64287552 741.64126846 -387.69720727 741.65121141 C-395.36461012 741.57329552 -402.27963705 740.03477528 -408.44611555 735.26202118 C-413.626129 728.88256442 -416.42307407 723.86798265 -415.9812718 715.49639618 C-415.15544623 709.13578216 -412.77753217 705.77977567 -408.1687718 701.37139618 C-402.94322089 697.60899952 -398.25281647 696.87034605 -391.8953343 696.70733368 C-390.90924681 696.67828446 -390.90924681 696.67828446 -389.90323836 696.64864838 C-387.82521046 696.58937157 -385.74712556 696.54267824 -383.6687718 696.49639618 C-382.2507803 696.4581684 -380.83281084 696.41911395 -379.41486555 696.37920868 C-375.95795585 696.28217262 -372.50125068 696.20219827 -369.0437718 696.12139618 C-369.0437718 687.21139618 -369.0437718 678.30139618 -369.0437718 669.12139618 C-371.3537718 668.79139618 -373.6637718 668.46139618 -376.0437718 668.12139618 C-376.0437718 667.79139618 -376.0437718 667.46139618 -376.0437718 667.12139618 C-376.73215132 667.11808604 -377.42053084 667.11477589 -378.12977034 667.11136544 C-394.89816066 667.03006003 -411.66645345 666.93794298 -428.43471724 666.8338691 C-436.54380358 666.78379857 -444.65288009 666.73735511 -452.76203352 666.69952118 C-459.83194839 666.66652663 -466.90178573 666.62665442 -473.9716149 666.57860613 C-477.71323359 666.55341516 -481.45480134 666.53161225 -485.19648176 666.51805222 C-489.37876422 666.50276632 -493.56080164 666.47212235 -497.74299055 666.44024384 C-499.59337179 666.43700356 -499.59337179 666.43700356 -501.48113447 666.43369782 C-511.44250937 666.33673832 -520.21853758 665.33154356 -527.93049055 658.43389618 C-536.48816491 649.5353501 -536.48617325 638.99907978 -536.44249922 627.18679535 C-536.44794832 625.68242096 -536.45470431 624.17805083 -536.46264327 622.67368752 C-536.48062344 618.55272719 -536.48011837 614.43194761 -536.47651482 610.31095733 C-536.47588294 605.84330036 -536.49252796 601.37570251 -536.50699431 596.90807354 C-536.52981456 589.12697898 -536.54163676 581.34592914 -536.54608923 573.56480324 C-536.5526425 562.14609994 -536.57600581 550.72747632 -536.60297788 539.30880523 C-536.64971499 519.29017593 -536.67978397 499.27154922 -536.70231742 479.25287957 C-536.72179906 461.9735563 -536.74674052 444.69425206 -536.77729231 427.41494477 C-536.77929562 426.27752266 -536.78129893 425.14010056 -536.78336294 423.96821112 C-536.79146235 419.37356162 -536.79958784 414.77891217 -536.80775381 410.18426279 C-536.87999311 369.50117384 -536.93713933 328.81808055 -536.98458096 288.13495578 C-537.0215463 256.49592762 -537.07397085 224.85698708 -537.14705187 193.21802247 C-537.15375333 190.31628654 -537.16044859 187.41455059 -537.16713911 184.51281464 C-537.16876226 183.81091256 -537.17038542 183.10901047 -537.17205776 182.38583863 C-537.21205276 165.0258995 -537.24036578 147.66594381 -537.26356608 130.30597413 C-537.26667395 128.00057199 -537.26979454 125.69516987 -537.2729283 123.38976777 C-537.2744483 122.26804987 -537.2759683 121.14633198 -537.27753437 119.99062264 C-537.28877672 112.1911574 -537.30697675 104.39172673 -537.32804304 96.59228241 C-537.35286222 87.35724326 -537.36755459 78.12226286 -537.36781108 68.88718885 C-537.36816854 64.36589941 -537.37290431 59.844752 -537.39133841 55.32349694 C-537.40764942 51.30523559 -537.41011928 47.28721645 -537.40134495 43.26893365 C-537.40061213 41.84516328 -537.40483683 40.42137864 -537.41485828 38.99764335 C-537.55590558 17.80424122 -537.55590558 17.80424122 -531.7937718 10.12139618 C-530.8862718 9.46139618 -529.9787718 8.80139618 -529.0437718 8.12139618 C-528.49334212 7.684404 -527.94291243 7.24741181 -527.37580305 6.79717743 C-520.68096884 1.6393471 -514.54267225 0.8254025 -506.28356367 0.84292328 C-505.29913338 0.83713053 -504.31470308 0.83133777 -503.30044156 0.82536948 C-499.9800701 0.8083097 -496.65983797 0.8054814 -493.3394261 0.80254853 C-490.93248898 0.79323212 -488.52555503 0.78306594 -486.11862475 0.77212441 C-480.15693258 0.7474008 -474.19527979 0.73210609 -468.23355234 0.72082347 C-461.01441958 0.70670649 -453.79533593 0.68144375 -446.57623513 0.65617052 C-431.38404167 0.60350715 -416.19183071 0.5653584 -400.99958533 0.53147447 C-389.1265362 0.50490753 -377.25350436 0.47406868 -365.38047224 0.44079316 C-261.2551886 0.15074602 -157.12957952 0.04586788 0 0 Z M-494.0437718 46.12139618 C-494.04982263 160.96208824 -494.04982263 160.96208824 -493.88914114 275.80235398 C-493.88434765 278.02959437 -493.87955886 280.25683478 -493.87477428 282.48407519 C-493.87237346 283.59950813 -493.86997265 284.71494108 -493.86749908 285.86417502 C-493.85496661 291.72088436 -493.84276347 297.57759439 -493.83052832 303.43430436 C-493.78958041 322.98985319 -493.74808167 342.54540068 -493.70443255 362.10094368 C-493.7017165 363.31835547 -493.69900045 364.53576726 -493.6962021 365.79007032 C-493.69348261 367.00890188 -493.69076312 368.22773344 -493.68796122 369.48349929 C-493.68245878 371.95003783 -493.67695749 374.41657638 -493.67145735 376.88311493 C-493.66872905 378.1063781 -493.66600074 379.32964127 -493.66318976 380.58997302 C-493.61830117 400.76973507 -493.57787043 420.9495037 -493.53911919 441.12927838 C-493.49873763 462.12356536 -493.45467561 483.117842 -493.40689325 504.11211348 C-493.38039218 515.79434885 -493.35546288 527.4765827 -493.33469778 539.15882981 C-493.31719922 548.99657361 -493.29637902 558.83430308 -493.27110339 568.67203011 C-493.25834816 573.67599562 -493.2472078 578.67995123 -493.24035269 583.68392861 C-493.23405294 588.25553394 -493.22323029 592.82710496 -493.2087385 597.39869146 C-493.20429918 599.05354616 -493.20154257 600.70840639 -493.20060981 602.36326678 C-493.19910324 604.60545037 -493.19154393 606.84753425 -493.182437 609.08969796 C-493.17977896 610.3360463 -493.17712092 611.58239464 -493.17438233 612.86651111 C-493.05880477 615.74676661 -492.71075974 618.32423005 -492.0437718 621.12139618 C-482.37298308 621.14513763 -472.70220517 621.16261166 -463.03139311 621.17320836 C-458.53518297 621.17830805 -454.03899348 621.18515201 -449.54279524 621.19683564 C-422.36224967 621.26558425 -395.21439208 620.85554722 -368.0437718 620.12139618 C-368.04561539 619.36786173 -368.04745898 618.61432728 -368.04935843 617.83795846 C-368.09359026 599.47501824 -368.12665403 581.11208871 -368.14739615 562.74910653 C-368.15769433 553.86878904 -368.17172671 544.9885072 -368.19465071 536.10821259 C-368.2146293 528.36519431 -368.22749883 520.62220184 -368.23194879 512.8791585 C-368.23454862 508.78197092 -368.24062879 504.68485717 -368.25523192 500.58769333 C-368.26888655 496.72506381 -368.27297864 492.862538 -368.26998717 488.99988663 C-368.27053382 487.58825598 -368.27446408 486.17662157 -368.28218275 484.76501191 C-368.38433156 465.10641062 -368.38433156 465.10641062 -364.72874075 460.4442817 C-359.77782497 456.0474461 -355.38748336 455.99468922 -349.01545149 455.96026337 C-348.31570708 455.95529847 -347.61596266 455.95033356 -346.89501387 455.94521821 C-344.58521474 455.93064115 -342.27548433 455.92380134 -339.9656468 455.91827118 C-338.35385074 455.91251519 -336.74205468 455.90675752 -335.13025862 455.90099823 C-331.75100327 455.89050031 -328.37177162 455.88465003 -324.99250227 455.88116181 C-320.67740565 455.87568567 -316.36262592 455.85167154 -312.04762846 455.82318985 C-308.71718394 455.80449824 -305.38681469 455.79935437 -302.05632216 455.79782593 C-300.46641505 455.79481257 -298.87650885 455.78682885 -297.28665358 455.77364075 C-278.62711876 455.62992992 -278.62711876 455.62992992 -272.6062718 461.49639618 C-269.99855577 465.87735912 -269.92155347 470.05520938 -269.95257002 475.07282746 C-269.95675979 476.27351081 -269.96094956 477.47419417 -269.96526629 478.71126187 C-269.97433473 480.02811254 -269.98340317 481.34496321 -269.99274641 482.70171845 C-270.00419163 485.624248 -270.01174098 488.54678654 -270.0198155 491.46932709 C-270.02244251 492.24437063 -270.02506951 493.01941417 -270.02777612 493.81794387 C-270.05677833 503.1379425 -270.01194146 512.45751386 -269.96784407 521.77740204 C-269.95951535 523.6275431 -269.9512198 525.47768431 -269.94295603 527.32782567 C-269.91654207 533.16396955 -269.88851767 539.00010512 -269.86017805 544.83623993 C-269.85288494 546.34470329 -269.85288494 546.34470329 -269.8454445 547.88364065 C-269.79938536 557.39863452 -269.75270619 566.91362515 -269.70443255 576.42860806 C-269.64328883 588.48777268 -269.58540101 600.54694353 -269.53177989 612.60614401 C-269.49348134 621.15974306 -269.45153842 629.71331959 -269.40689325 638.26688784 C-269.38045867 643.35001009 -269.35560309 648.43312823 -269.33469778 653.51627648 C-269.31505314 658.27479403 -269.29088687 663.03326748 -269.26328093 667.79174531 C-269.25396794 669.53115837 -269.24627238 671.27058101 -269.24035269 673.01000893 C-269.23199719 675.39178494 -269.21769795 677.77345709 -269.20199019 680.1551944 C-269.20101208 680.83475833 -269.20003397 681.51432226 -269.19902623 682.21447903 C-269.15616288 687.300507 -268.61362229 691.99274182 -268.0437718 697.12139618 C-249.2337718 697.12139618 -230.4237718 697.12139618 -211.0437718 697.12139618 C-211.7037718 695.80139618 -212.3637718 694.48139618 -213.0437718 693.12139618 C-212.3837718 693.12139618 -211.7237718 693.12139618 -211.0437718 693.12139618 C-209.96736523 686.150898 -209.91445482 679.32354597 -209.94370466 672.27908051 C-209.94496694 670.99424307 -209.94622921 669.70940562 -209.94752973 668.38563371 C-209.9511019 664.83517933 -209.9608922 661.28476548 -209.97168332 657.73432672 C-209.98220009 653.89928512 -209.98680436 650.06423611 -209.99201399 646.22918427 C-210.00170979 639.58859087 -210.01474578 632.94801095 -210.02973753 626.30742753 C-210.0531393 615.81200292 -210.06611892 605.31657733 -210.07743269 594.82113373 C-210.0814337 591.22827441 -210.08550242 587.63541516 -210.08959204 584.04255593 C-210.09112088 582.69590968 -210.09112088 582.69590968 -210.09268061 581.32205846 C-210.1044141 571.11210217 -210.11829612 560.90214919 -210.13312727 550.69219697 C-210.13515592 549.29276422 -210.13515592 549.29276422 -210.13722555 547.86506011 C-210.15942735 532.73147044 -210.18930045 517.59790287 -210.22109468 502.46433078 C-210.25346859 486.92186405 -210.27434654 471.37940892 -210.28536695 455.83691239 C-210.29259364 446.25192445 -210.30930526 436.66704626 -210.33816771 427.08209862 C-210.3571468 420.51772167 -210.36525344 413.95338859 -210.36476274 407.38898443 C-210.36482583 403.6008664 -210.36982575 399.81292077 -210.38792998 396.02484238 C-210.40743497 391.91970787 -210.40375623 387.81492096 -210.39780623 383.70974457 C-210.40722687 382.51092081 -210.41664752 381.31209706 -210.42635363 380.0769453 C-210.39813785 374.27834322 -210.232463 370.1664092 -207.0437718 365.12139618 C-207.0437718 364.46139618 -207.0437718 363.80139618 -207.0437718 363.12139618 C-201.78250698 360.98845099 -197.82804618 359.99101177 -192.11310774 359.96026337 C-191.41190306 359.95529847 -190.71069838 359.95033356 -189.98824507 359.94521821 C-187.66820231 359.93061309 -185.34822799 359.92379647 -183.0281468 359.91827118 C-181.41252586 359.91251727 -179.79690493 359.90675956 -178.18128401 359.90099823 C-174.79185614 359.89049218 -171.40245195 359.88464729 -168.01301008 359.88116181 C-163.68097166 359.87568553 -159.34924888 359.85167458 -155.01730925 359.82318985 C-151.67832485 359.80451443 -148.33941564 359.79935522 -145.00038344 359.79782593 C-143.40406771 359.79480867 -141.80775302 359.78681153 -140.21148878 359.77364075 C-137.97142391 359.75648112 -135.73211891 359.75848445 -133.49201399 359.76495087 C-132.21976973 359.76130524 -130.94752547 359.75765961 -129.63672835 359.75390351 C-124.43567607 360.28587449 -120.56251794 361.54921316 -116.88501507 365.35610849 C-114.76507813 368.53995478 -114.46615497 370.36606682 -114.29939467 374.15622151 C-114.24413398 375.30421967 -114.18887329 376.45221782 -114.13193804 377.63500381 C-113.99759285 382.94746877 -113.92474024 388.24997349 -113.95380598 393.56419098 C-113.95583179 394.73056064 -113.95785759 395.8969303 -113.95994478 397.0986445 C-113.9647591 399.61067655 -113.97181042 402.12270514 -113.98090655 404.63472533 C-113.99529294 408.67329936 -114.00372837 412.71184199 -114.00970656 416.75043499 C-114.01124109 417.78301131 -114.01124109 417.78301131 -114.01280662 418.83644775 C-114.01485868 420.23963321 -114.0168776 421.64281873 -114.01886392 423.04600429 C-114.02206093 425.18013864 -114.02585691 427.3142713 -114.02974755 429.44840449 C-114.05435402 443.78399943 -114.00975303 458.11916273 -113.95197493 472.45464814 C-113.94205357 475.01167625 -113.93213794 477.56870438 -113.92222792 480.12573254 C-113.89904361 486.0140804 -113.87486969 491.90242365 -113.8502275 497.79076557 C-113.82125298 504.72816522 -113.79374293 511.6655705 -113.76626861 518.60297623 C-113.71729939 530.95897364 -113.66727871 543.31496653 -113.61652571 555.67095673 C-113.56743795 567.62212629 -113.51888969 579.57329786 -113.4710179 591.52447236 C-113.4680309 592.2701301 -113.46504391 593.01578783 -113.4619664 593.78404126 C-113.44697393 597.5274707 -113.43199156 601.27090018 -113.41701418 605.01432967 C-113.29416186 635.71669158 -113.16955493 666.41904613 -113.0437718 697.12139618 C-112.7137718 696.46139618 -112.3837718 695.80139618 -112.0437718 695.12139618 C-111.7137718 695.78139618 -111.3837718 696.44139618 -111.0437718 697.12139618 C-92.2337718 697.12139618 -73.4237718 697.12139618 -54.0437718 697.12139618 C-54.02975325 684.12740448 -54.02975325 684.12740448 -54.01545149 670.8709079 C-53.9827512 643.16105589 -53.93047061 615.45127182 -53.86585085 587.74147659 C-53.85583326 583.43810377 -53.84598916 579.13473058 -53.83625227 574.83135712 C-53.8343109 573.97462454 -53.83236953 573.11789197 -53.83036932 572.2351978 C-53.79933907 558.35885603 -53.78236581 544.4825308 -53.77057758 530.60616086 C-53.75817133 516.37018842 -53.73068184 502.13430288 -53.68915874 487.89838529 C-53.66400823 479.11238882 -53.65065565 470.32653644 -53.65234223 461.54050346 C-53.65237196 455.51749239 -53.63776508 449.49462821 -53.61160752 443.47167437 C-53.596944 439.99548183 -53.58877341 436.51959052 -53.59796911 433.04337227 C-53.60457467 429.27477502 -53.58676901 425.50706141 -53.56275374 421.73855317 C-53.57439436 420.0897155 -53.57439436 420.0897155 -53.58627015 418.40756798 C-53.51763983 412.34236246 -53.11731465 408.73137867 -49.0437718 404.12139618 C-42.01915314 399.191154 -31.1550052 400.7730445 -22.96955305 400.90655243 C-21.31527982 400.92446918 -19.66099769 400.9415809 -18.0067082 400.95792878 C-14.55456296 400.99578388 -11.10282337 401.04521061 -7.65094954 401.10259736 C-3.23619837 401.17478979 1.17818511 401.21501948 5.59339231 401.2462827 C9.00375543 401.27445191 12.41368374 401.32099321 15.82376093 401.37288964 C17.45151573 401.39519399 19.07936461 401.41150101 20.707241 401.42158425 C22.98328476 401.43814607 25.25756402 401.47985023 27.53313249 401.52789032 C28.82502992 401.54582139 30.11692735 401.56375245 31.44797319 401.58222687 C35.59001401 402.21880012 37.74956338 403.45476832 40.9562282 406.12139618 C47.77985441 416.94823806 44.0878392 438.48874466 44.06975359 450.77129853 C44.06947117 453.46298554 44.06958661 456.15466983 44.07019609 458.84635651 C44.07071768 464.6176104 44.06760926 470.38885289 44.06195825 476.16010392 C44.05379345 484.50412212 44.05122295 492.84813487 44.04997026 501.19215663 C44.04778753 514.73335157 44.04114865 528.27454046 44.03166765 541.81573212 C44.02247332 554.96123963 44.01540239 568.10674548 44.01115984 581.25225556 C44.01089711 582.06402722 44.01063439 582.87579889 44.01036371 583.71216969 C44.00905856 587.78503225 44.00779488 591.85789482 44.0065518 595.9307574 C43.99620346 629.6609757 43.97777829 663.39118272 43.9562282 697.12139618 C62.4362282 697.12139618 80.9162282 697.12139618 99.9562282 697.12139618 C100.81255881 690.4828369 100.81255881 690.4828369 101.03851885 683.94537079 C101.03147936 683.00040238 101.02443987 682.05543396 101.01718706 681.08183014 C101.00424104 680.07266037 100.99129503 679.06349061 100.97795671 678.02373993 C100.96834917 676.93992539 100.95874162 675.85611084 100.94884294 674.73945343 C100.91602539 671.17919797 100.87562793 667.61907192 100.83513445 664.05889618 C100.81081646 661.5816872 100.78697376 659.1044735 100.76358598 656.62725556 C100.70091209 650.1236811 100.63179848 643.62019053 100.56133074 637.11669648 C100.49049613 630.47377 100.42576983 623.83078596 100.36052507 617.18780243 C100.23172804 604.16560224 100.09633339 591.14347937 99.9562282 578.12139618 C99.6262282 578.12139618 99.2962282 578.12139618 98.9562282 578.12139618 C98.9562282 570.20139618 98.9562282 562.28139618 98.9562282 554.12139618 C99.2862282 554.12139618 99.6162282 554.12139618 99.9562282 554.12139618 C99.9562282 553.54602175 99.9562282 552.97064732 99.9562282 552.3778373 C99.9562282 426.09282613 99.9562282 426.09282613 100.19194311 369.57322228 C100.23690943 358.69768852 100.27632766 347.82218765 100.30266374 336.9465915 C100.32564942 327.46024193 100.35905108 317.97399584 100.40492976 308.48772836 C100.42884854 303.46732605 100.44758633 298.44702612 100.4538421 293.42656815 C100.45989631 288.7003697 100.47990848 283.97443346 100.51050371 279.24833214 C100.51927755 277.51659764 100.52300787 275.78482887 100.52123636 274.05307305 C100.51957721 271.68222589 100.53633639 269.31217203 100.55750078 266.94143403 C100.55022942 265.92204202 100.55022942 265.92204202 100.54281116 264.88205624 C100.61918266 259.67147247 101.86174942 255.8251563 103.9562282 251.12139618 C107.54530848 248.04793343 110.741404 247.67978836 115.37834734 247.44439423 C116.6170659 247.38013245 117.85578447 247.31587067 119.13203996 247.24966156 C125.1570637 247.04757895 131.17402629 246.95893423 137.20232195 246.95342743 C139.14534952 246.94843483 139.14534952 246.94843483 141.12763017 246.94334137 C143.83930353 246.93742376 146.55094534 246.93549429 149.26262468 246.93609345 C152.72103071 246.93619589 156.1792352 246.92242734 159.63759321 246.90532124 C162.97167241 246.89150081 166.30571451 246.89211298 169.63982195 246.89092743 C170.87220094 246.88374192 172.10457994 246.8765564 173.37430376 246.86915314 C187.12940309 246.9057765 187.12940309 246.9057765 192.2687282 250.93389618 C195.2710992 254.82585859 196.20777473 258.3841466 196.18675035 263.25230324 C196.18729512 264.26511211 196.18783989 265.27792098 196.18840116 266.32142103 C196.17877505 267.42234673 196.16914894 268.52327243 196.15923113 269.65755951 C196.15701209 270.82522567 196.15479305 271.99289183 196.15250677 273.19594181 C196.14448201 276.40635065 196.12751459 279.61656602 196.1067186 282.82691285 C196.08669422 286.25865874 196.07828462 289.69043408 196.06864733 293.12222207 C196.0510163 298.89958408 196.02668435 304.67688286 195.99757951 310.454198 C195.95651705 318.64823794 195.93093749 326.84225668 195.90959734 335.03637421 C195.87077146 349.32240981 195.81833574 363.6083651 195.76268676 377.89434224 C195.73357069 385.3866336 195.70610235 392.87893082 195.678725 400.37122871 C195.62956373 413.82131993 195.57964062 427.27140818 195.5289821 440.72149384 C195.52599149 441.51561032 195.52300087 442.3097268 195.51991963 443.12790741 C195.48667395 451.95223489 195.45328604 460.77656183 195.41979021 469.60088837 C195.06124259 557.6160829 195.06124259 557.6160829 194.86810869 645.63171494 C194.86488471 648.89812835 194.85954686 652.16452574 194.85208696 655.43093216 C194.84390145 659.09559506 194.84066435 662.76022709 194.84159845 666.42489874 C194.84102854 668.29323397 194.8357545 670.16156606 194.83017534 672.02989304 C194.84155506 680.47367401 195.39125579 688.64681006 195.9562282 697.12139618 C210.1462282 697.12139618 224.3362282 697.12139618 238.9562282 697.12139618 C240.09967087 694.83451083 240.08134663 693.57791698 240.08157736 691.03678817 C240.08408088 690.17466044 240.0865844 689.31253271 240.08916378 688.4242799 C240.08682261 687.46959203 240.08448145 686.51490416 240.08206934 685.53128636 C240.08352278 684.51870687 240.08497622 683.50612737 240.0864737 682.46286365 C240.09015707 679.02993979 240.0866364 675.59705968 240.08321184 672.16413605 C240.08436279 669.69342647 240.08595014 667.22271707 240.08793908 664.75200802 C240.09125805 659.3587309 240.09143452 653.96546698 240.08889192 648.5721904 C240.0851204 640.55021626 240.08703777 632.5282506 240.09010023 624.50627651 C240.09537882 610.17011313 240.09490378 595.83395419 240.09202132 581.49779037 C240.08950627 568.92642711 240.08884877 556.35506548 240.09004396 543.78370202 C240.09012035 542.94995371 240.09019673 542.1162054 240.09027543 541.257192 C240.09058679 537.87232781 240.09090519 534.48746362 240.0912352 531.10259943 C240.09429866 499.3001062 240.09151576 467.4976158 240.0861383 435.69512301 C240.0814101 407.51893455 240.08180174 379.34275062 240.08659929 351.1665622 C240.09197581 319.48431797 240.09406357 287.80207625 240.09098703 256.11983162 C240.09066636 252.72839999 240.09035351 249.33696836 240.09004396 245.94553673 C240.08996488 245.11053973 240.08988581 244.27554273 240.08980433 243.41524279 C240.08867407 230.88862361 240.08998395 218.36200627 240.09252352 205.83538735 C240.09540763 191.53826816 240.0946167 177.2411541 240.08924277 162.94403554 C240.08634477 154.97463327 240.08605781 147.00524215 240.08988895 139.03584021 C240.09245441 133.02707558 240.08959694 127.01832475 240.08491437 121.00956094 C240.08382266 118.62125391 240.08430607 116.23294535 240.08679016 113.84463937 C240.10843237 91.2519585 239.48181158 68.72148173 238.9562282 46.12139618 C-2.9337718 46.12139618 -244.8237718 46.12139618 -494.0437718 46.12139618 Z M98.9562282 555.12139618 C98.9562282 562.38139618 98.9562282 569.64139618 98.9562282 577.12139618 C99.2862282 577.12139618 99.6162282 577.12139618 99.9562282 577.12139618 C99.9562282 569.86139618 99.9562282 562.60139618 99.9562282 555.12139618 C99.6262282 555.12139618 99.2962282 555.12139618 98.9562282 555.12139618 Z " fill="#000000" transform="translate(638.0437718033791,146.8786038160324)"/>
<path d="M0 0 C8.96446251 8.77507246 15.32062738 19.35425893 15.59936523 32.17163086 C15.564414 45.39991477 12.80695227 55.80363936 4.21875 66.171875 C3.71859375 66.80738281 3.2184375 67.44289063 2.703125 68.09765625 C-3.97849072 75.70727416 -15.00070866 80.67026206 -24.921875 82.03515625 C-31.60603061 82.35475385 -38.58522851 82.08886277 -45.03344727 80.23876953 C-49.10421723 80.16611036 -49.49564338 80.3105831 -52.3581543 82.84057617 C-53.62796221 84.11164771 -54.87599674 85.40471644 -56.10546875 86.71484375 C-56.77415482 87.3948494 -57.44284088 88.07485504 -58.13179016 88.77546692 C-60.26363238 90.95203299 -62.36603829 93.15469031 -64.46875 95.359375 C-65.8946179 96.82538539 -67.32233386 98.28960074 -68.75195312 99.75195312 C-71.37712255 102.44241524 -73.99129266 105.14259613 -76.5925293 107.85620117 C-77.14814545 108.43300629 -77.7037616 109.0098114 -78.2762146 109.60409546 C-79.55492265 110.93611218 -80.82316717 112.27816111 -82.08911133 113.62231445 C-83.78125 115.171875 -83.78125 115.171875 -85.78125 115.171875 C-86.03777344 115.76742187 -86.29429687 116.36296875 -86.55859375 116.9765625 C-87.89094687 119.36883871 -89.21493605 120.59915699 -91.34375 122.296875 C-93.99150666 124.38091134 -93.99150666 124.38091134 -95.78125 127.171875 C-96.44125 127.171875 -97.10125 127.171875 -97.78125 127.171875 C-97.78125 127.831875 -97.78125 128.491875 -97.78125 129.171875 C-98.44125 129.171875 -99.10125 129.171875 -99.78125 129.171875 C-99.78125 129.831875 -99.78125 130.491875 -99.78125 131.171875 C-101.35546875 132.6875 -101.35546875 132.6875 -103.46875 134.421875 C-106.02759889 136.59084674 -108.12061811 138.57911673 -110.28125 141.171875 C-112.33335338 143.63439906 -114.23339889 145.49534207 -116.65625 147.546875 C-119.45709657 149.92811909 -121.90777693 152.36489086 -124.28125 155.171875 C-126.43507943 157.71182243 -128.60509637 159.98161281 -131.1484375 162.12890625 C-136.76783051 166.99567885 -142.23778525 172.00410453 -147.60302734 177.14916992 C-148.81020883 178.29408006 -150.03052347 179.42529212 -151.26318359 180.54272461 C-158.69514146 186.86142738 -158.69514146 186.86142738 -162.11547852 195.5222168 C-161.60101207 198.56794168 -160.79586543 201.26161015 -159.78125 204.171875 C-158.42559774 216.24629884 -162.36666991 227.93229136 -169.53125 237.51171875 C-177.9716866 247.73894132 -189.65911107 253.20540241 -202.71875 255.046875 C-215.50068485 255.88806172 -227.78675164 252.3249823 -237.6171875 244.14453125 C-249.7035576 233.12717222 -253.62481646 222.08578139 -254.78125 206.171875 C-254.63510254 205.38369385 -254.48895508 204.5955127 -254.33837891 203.78344727 C-254.86757522 200.66282268 -255.38573332 200.38743995 -257.84790039 198.55981445 C-259.2631806 197.61708929 -260.69129156 196.69345842 -262.12890625 195.78515625 C-263.27413002 195.03228584 -263.27413002 195.03228584 -264.44248962 194.26420593 C-266.89923043 192.65437831 -269.37079619 191.06915696 -271.84375 189.484375 C-273.45222281 188.43715929 -275.05965713 187.38834667 -276.66601562 186.33789062 C-279.83466485 184.2684499 -283.00890005 182.20803927 -286.18774414 180.15429688 C-291.14970879 176.94239733 -296.06937 173.66908559 -300.97743225 170.37556458 C-305.1926134 167.5495479 -309.45340258 164.8215775 -313.78125 162.171875 C-314.39871094 162.57019531 -315.01617187 162.96851563 -315.65234375 163.37890625 C-316.49925781 163.90871094 -317.34617187 164.43851563 -318.21875 164.984375 C-319.04246094 165.50644531 -319.86617187 166.02851563 -320.71484375 166.56640625 C-327.8875501 170.32179773 -334.46681692 171.70369585 -342.53125 171.609375 C-343.3965332 171.60615234 -344.26181641 171.60292969 -345.15332031 171.59960938 C-352.56335042 171.43989858 -358.89222129 169.98782834 -365.78125 167.171875 C-366.565 167.996875 -367.34875 168.821875 -368.15625 169.671875 C-370.78125 172.171875 -370.78125 172.171875 -372.78125 172.171875 C-372.9875 172.70296875 -373.19375 173.2340625 -373.40625 173.78125 C-375.36086192 177.17960936 -378.00248717 179.68243428 -380.78125 182.421875 C-381.3278125 182.97617187 -381.874375 183.53046875 -382.4375 184.1015625 C-386.5278633 188.171875 -386.5278633 188.171875 -388.78125 188.171875 C-389.11125 189.161875 -389.44125 190.151875 -389.78125 191.171875 C-391.17599487 192.56268311 -391.17599487 192.56268311 -393.03857422 194.08886719 C-402.4869002 202.11555488 -411.21711044 211.00391191 -420.05525398 219.69018936 C-423.31024453 222.88830536 -426.57673925 226.0724671 -429.87304688 229.22802734 C-433.0817379 232.30035521 -436.25737495 235.40350601 -439.41250229 238.53078461 C-440.61423886 239.71109413 -441.82719414 240.88009712 -443.05145645 242.03702545 C-449.92408977 248.09627395 -449.92408977 248.09627395 -453.05438232 256.26306152 C-452.54799727 259.06362037 -451.75955713 261.50698099 -450.78125 264.171875 C-449.45291864 275.82138467 -453.20914834 287.63413109 -459.78125 297.171875 C-467.56901443 306.81865417 -477.82408463 312.07551715 -489.71875 314.859375 C-503.34201755 316.24950434 -515.34842255 313.62663181 -526.3125 305.234375 C-535.37630607 297.5902012 -542.50720879 287.78965634 -544.09741211 275.78515625 C-544.99403018 261.62289453 -543.23433214 250.35465968 -534.09375 239.046875 C-532.65791694 237.42040192 -531.22070157 235.79514652 -529.78125 234.171875 C-529.12125 233.181875 -528.46125 232.191875 -527.78125 231.171875 C-527.12125 231.171875 -526.46125 231.171875 -525.78125 231.171875 C-523.95512764 230.23976118 -522.14509308 229.27601857 -520.34375 228.296875 C-507.90219924 222.03911522 -494.99174493 221.9557596 -481.78125 226.171875 C-478.43779242 226.61580827 -477.21986907 226.50740286 -474.5012207 224.42773438 C-473.74413818 223.63173828 -472.98705566 222.83574219 -472.20703125 222.015625 C-471.37494141 221.15839844 -470.54285156 220.30117188 -469.68554688 219.41796875 C-468.83025391 218.51175781 -467.97496094 217.60554687 -467.09375 216.671875 C-465.3858237 214.88648885 -463.67379807 213.10501206 -461.95703125 211.328125 C-460.82648315 210.13413086 -460.82648315 210.13413086 -459.6730957 208.91601562 C-457.78125 207.171875 -457.78125 207.171875 -455.78125 207.171875 C-455.78125 206.511875 -455.78125 205.851875 -455.78125 205.171875 C-454.2832489 203.69387817 -454.2832489 203.69387817 -452.22924805 201.98876953 C-448.16398377 198.53000362 -444.36961596 194.89025083 -440.61328125 191.1015625 C-439.97057785 190.45744415 -439.32787445 189.81332581 -438.66569519 189.14968872 C-436.63932085 187.11778495 -434.61646951 185.08241643 -432.59375 183.046875 C-431.22744838 181.67554723 -429.8609137 180.30445163 -428.49414062 178.93359375 C-425.98659431 176.41793487 -423.48038947 173.90095676 -420.97583008 171.38232422 C-420.43241974 170.83622498 -419.8890094 170.29012573 -419.32913208 169.72747803 C-417.88470004 168.27584105 -416.44074468 166.8237298 -414.99682617 165.37158203 C-412.82478685 163.21510001 -410.58236747 161.18929306 -408.28125 159.171875 C-407.42917969 158.39585937 -406.57710937 157.61984375 -405.69921875 156.8203125 C-404.15849121 155.42190116 -402.61365354 154.02741633 -401.03759766 152.66894531 C-393.4475275 146.60325336 -393.4475275 146.60325336 -389.1796875 138.31640625 C-389.47989953 135.50496111 -390.09048015 132.91153845 -390.78125 130.171875 C-391.74866462 117.4427352 -389.22298978 106.59383758 -381.78125 96.171875 C-381.27851563 95.46160156 -380.77578125 94.75132812 -380.2578125 94.01953125 C-373.70381731 85.69116175 -363.25314975 79.79857787 -352.78125 78.171875 C-338.56566386 76.97854143 -326.29735518 79.23575265 -314.78125 88.171875 C-313.75 88.914375 -312.71875 89.656875 -311.65625 90.421875 C-304.71827037 97.05820334 -298.14698532 106.33337686 -297.68408203 116.25439453 C-297.66881738 117.69955197 -297.67144144 119.14508496 -297.69750977 120.59008789 C-297.32792534 126.49138153 -297.32792534 126.49138153 -295.78125 132.171875 C-293.43352949 134.23202689 -291.72974948 135.41703295 -289.03515625 136.8203125 C-287.57156335 137.65752262 -286.11060118 138.49934318 -284.65185547 139.3449707 C-283.47172882 140.01757431 -283.47172882 140.01757431 -282.26776123 140.70376587 C-277.76772977 143.36071638 -273.46503394 146.31289583 -269.13671875 149.23828125 C-267.28859271 150.4774839 -265.44028394 151.71641407 -263.59179688 152.95507812 C-260.75146794 154.86325756 -257.91193175 156.77260672 -255.07299805 158.68286133 C-252.28367798 160.55841008 -249.49159983 162.42979414 -246.69921875 164.30078125 C-245.84619675 164.87671524 -244.99317474 165.45264923 -244.11430359 166.04603577 C-243.32530167 166.57426437 -242.53629974 167.10249298 -241.72338867 167.64672852 C-240.68658211 168.34428001 -240.68658211 168.34428001 -239.62882996 169.05592346 C-237.67139171 170.33060594 -237.67139171 170.33060594 -234.78125 171.171875 C-232.58488707 170.05771594 -232.58488707 170.05771594 -230.28125 168.421875 C-219.76408632 161.89607358 -207.66433908 160.2250423 -195.51953125 162.88671875 C-193.68342851 163.41867375 -191.857522 163.98883168 -190.05078125 164.61328125 C-187.32249728 165.2847866 -186.39730136 165.20243192 -183.78125 164.171875 C-181.81547592 162.4373362 -180.01835017 160.71059038 -178.2109375 158.82421875 C-177.68863556 158.29292862 -177.16633362 157.76163849 -176.62820435 157.21424866 C-174.9635593 155.5196138 -173.30918845 153.81542474 -171.65625 152.109375 C-169.99530126 150.40067579 -168.33222277 148.69428321 -166.66287231 146.99378967 C-165.62492414 145.93600573 -164.59194892 144.87331523 -163.56442261 143.80540466 C-162.34099053 142.55623346 -161.06533982 141.358605 -159.78125 140.171875 C-159.12125 140.171875 -158.46125 140.171875 -157.78125 140.171875 C-157.53375 139.594375 -157.28625 139.016875 -157.03125 138.421875 C-155.59825012 135.84247521 -153.99700324 134.11065908 -151.78125 132.171875 C-151.12125 132.171875 -150.46125 132.171875 -149.78125 132.171875 C-149.78125 131.511875 -149.78125 130.851875 -149.78125 130.171875 C-147.14508547 127.29605915 -144.34105329 124.78796707 -141.34375 122.296875 C-138.9249152 120.25858964 -136.85354833 118.17562461 -134.84375 115.734375 C-132.82615824 113.28853365 -130.75144693 111.20984421 -128.32226562 109.17553711 C-122.62514096 104.25066879 -117.37053174 98.88538026 -112.0625 93.55078125 C-110.95314167 92.43955377 -109.84355933 91.32854988 -108.73376465 90.21775818 C-105.83822384 87.31843129 -102.94570093 84.41611228 -100.05383301 81.51312256 C-97.09242136 78.54141194 -94.12811446 75.57259233 -91.1640625 72.60351562 C-85.3669819 66.7957668 -79.5730918 60.98484827 -73.78125 55.171875 C-73.99065216 54.42050262 -74.20005432 53.66913025 -74.415802 52.89498901 C-74.68867035 51.90725494 -74.9615387 50.91952087 -75.24267578 49.90185547 C-75.51395294 48.92360809 -75.7852301 47.94536072 -76.06472778 46.93746948 C-79.2531968 34.63078573 -77.80945323 22.74402855 -72.15625 11.421875 C-65.3154887 -0.05725615 -55.28211999 -7.26002441 -42.4140625 -10.73828125 C-26.8145045 -13.56266165 -12.14317093 -10.48728399 0 0 Z " fill="#000000" transform="translate(824.78125,247.828125)"/>
<path d="M0 0 C2.64 0 5.28 0 8 0 C7.979375 0.94875 7.95875 1.8975 7.9375 2.875 C7.77448174 5.90666283 7.77448174 5.90666283 9 8 C6.03 8 3.06 8 0 8 C0 5.36 0 2.72 0 0 Z M3 2 C4 5 4 5 4 5 Z " fill="#D3D3D4" transform="translate(0,0)"/>
<path d="M0 0 C10.23 0 20.46 0 31 0 C31 0.33 31 0.66 31 1 C20.77 1 10.54 1 0 1 C0 0.67 0 0.34 0 0 Z " fill="#000000" transform="translate(174,814)"/>
<path d="M0 0 C0.33 0 0.66 0 1 0 C1 10.23 1 20.46 1 31 C0.67 31 0.34 31 0 31 C0 20.77 0 10.54 0 0 Z " fill="#000000" transform="translate(736,605)"/>
<path d="M0 0 C7.26 0 14.52 0 22 0 C22 0.33 22 0.66 22 1 C14.74 1 7.48 1 0 1 C0 0.67 0 0.34 0 0 Z " fill="#000000" transform="translate(231,814)"/>
<path d="M0 0 C0.33 0 0.66 0 1 0 C1 7.26 1 14.52 1 22 C0.67 22 0.34 22 0 22 C0 14.74 0 7.48 0 0 Z " fill="#000000" transform="translate(736,551)"/>
<path d="M0 0 C6.93 0 13.86 0 21 0 C21 0.33 21 0.66 21 1 C14.07 1 7.14 1 0 1 C0 0.67 0 0.34 0 0 Z " fill="#000000" transform="translate(208,814)"/>
<path d="M0 0 C0.33 0 0.66 0 1 0 C1 4.29 1 8.58 1 13 C0.67 13 0.34 13 0 13 C0 8.71 0 4.42 0 0 Z " fill="#000000" transform="translate(736,759)"/>
<path d="M0 0 C0.33 0 0.66 0 1 0 C1 4.29 1 8.58 1 13 C0.67 13 0.34 13 0 13 C0 8.71 0 4.42 0 0 Z " fill="#000000" transform="translate(736,663)"/>
<path d="M0 0 C0.33 0 0.66 0 1 0 C1 4.29 1 8.58 1 13 C0.67 13 0.34 13 0 13 C0 8.71 0 4.42 0 0 Z " fill="#000000" transform="translate(736,535)"/>
<path d="M0 0 C0.33 0 0.66 0 1 0 C1 4.29 1 8.58 1 13 C0.67 13 0.34 13 0 13 C0 8.71 0 4.42 0 0 Z " fill="#000000" transform="translate(736,463)"/>
<path d="M0 0 C0.33 0 0.66 0 1 0 C1 4.29 1 8.58 1 13 C0.67 13 0.34 13 0 13 C0 8.71 0 4.42 0 0 Z " fill="#000000" transform="translate(736,431)"/>
<path d="M0 0 C0.33 0 0.66 0 1 0 C1 2.64 1 5.28 1 8 C0.67 8 0.34 8 0 8 C0 5.36 0 2.72 0 0 Z " fill="#000000" transform="translate(736,776)"/>
<path d="M0 0 C0.33 0 0.66 0 1 0 C1 2.64 1 5.28 1 8 C0.67 8 0.34 8 0 8 C0 5.36 0 2.72 0 0 Z " fill="#000000" transform="translate(736,741)"/>
<path d="M0 0 C0.33 0 0.66 0 1 0 C1 2.64 1 5.28 1 8 C0.67 8 0.34 8 0 8 C0 5.36 0 2.72 0 0 Z " fill="#000000" transform="translate(736,654)"/>
<path d="M0 0 C0.33 0 0.66 0 1 0 C1 2.64 1 5.28 1 8 C0.67 8 0.34 8 0 8 C0 5.36 0 2.72 0 0 Z " fill="#000000" transform="translate(736,505)"/>
<path d="M0 0 C0.33 0 0.66 0 1 0 C1 2.64 1 5.28 1 8 C0.67 8 0.34 8 0 8 C0 5.36 0 2.72 0 0 Z " fill="#000000" transform="translate(432,368)"/>
<path d="M0 0 C0.66 0.33 1.32 0.66 2 1 C2 1.99 2 2.98 2 4 C1.01 3.01 0.02 2.02 -1 1 C-0.67 0.67 -0.34 0.34 0 0 Z " fill="#CBCBCD" transform="translate(4,12)"/>
<path d="M0 0 C2.31 0 4.62 0 7 0 C7 0.33 7 0.66 7 1 C4.69 1 2.38 1 0 1 C0 0.67 0 0.34 0 0 Z " fill="#000000" transform="translate(254,814)"/>
<path d="M0 0 C2.31 0 4.62 0 7 0 C7 0.33 7 0.66 7 1 C4.69 1 2.38 1 0 1 C0 0.67 0 0.34 0 0 Z " fill="#000000" transform="translate(142,814)"/>
<path d="M0 0 C2.31 0 4.62 0 7 0 C7 0.33 7 0.66 7 1 C4.69 1 2.38 1 0 1 C0 0.67 0 0.34 0 0 Z " fill="#000000" transform="translate(134,814)"/>
<path d="M0 0 C0.33 0 0.66 0 1 0 C1 2.31 1 4.62 1 7 C0.67 7 0.34 7 0 7 C0 4.69 0 2.38 0 0 Z " fill="#000000" transform="translate(736,645)"/>
<path d="M0 0 C0.33 0 0.66 0 1 0 C1 2.31 1 4.62 1 7 C0.67 7 0.34 7 0 7 C0 4.69 0 2.38 0 0 Z " fill="#000000" transform="translate(736,637)"/>
<path d="M0 0 C0.33 0 0.66 0 1 0 C1 2.31 1 4.62 1 7 C0.67 7 0.34 7 0 7 C0 4.69 0 2.38 0 0 Z " fill="#000000" transform="translate(736,597)"/>
<path d="M0 0 C0.33 0 0.66 0 1 0 C1 2.31 1 4.62 1 7 C0.67 7 0.34 7 0 7 C0 4.69 0 2.38 0 0 Z " fill="#000000" transform="translate(736,477)"/>
<path d="M0 0 C0.33 0 0.66 0 1 0 C1 2.31 1 4.62 1 7 C0.67 7 0.34 7 0 7 C0 4.69 0 2.38 0 0 Z " fill="#000000" transform="translate(736,455)"/>
<path d="M0 0 C0.99 0 1.98 0 3 0 C3 0.99 3 1.98 3 3 C2.34 3 1.68 3 1 3 C0.67 2.01 0.34 1.02 0 0 Z " fill="#D4D5D6" transform="translate(1021,1)"/>
<path d="M0 0 C1.98 0 3.96 0 6 0 C6 0.33 6 0.66 6 1 C4.02 1 2.04 1 0 1 C0 0.67 0 0.34 0 0 Z " fill="#000000" transform="translate(167,814)"/>
<path d="M0 0 C0.33 0 0.66 0 1 0 C1 1.98 1 3.96 1 6 C0.67 6 0.34 6 0 6 C0 4.02 0 2.04 0 0 Z " fill="#000000" transform="translate(426,729)"/>
<path d="M0 0 C0.33 0 0.66 0 1 0 C1 1.98 1 3.96 1 6 C0.67 6 0.34 6 0 6 C0 4.02 0 2.04 0 0 Z " fill="#000000" transform="translate(426,657)"/>
<path d="M0 0 C0.33 0 0.66 0 1 0 C1 1.98 1 3.96 1 6 C0.67 6 0.34 6 0 6 C0 4.02 0 2.04 0 0 Z " fill="#000000" transform="translate(426,650)"/>
<path d="M0 0 C0.33 0 0.66 0 1 0 C1 1.98 1 3.96 1 6 C0.67 6 0.34 6 0 6 C0 4.02 0 2.04 0 0 Z " fill="#000000" transform="translate(736,447)"/>
<path d="M0 0 C1.65 0 3.3 0 5 0 C5 0.33 5 0.66 5 1 C3.35 1 1.7 1 0 1 C0 0.67 0 0.34 0 0 Z " fill="#000000" transform="translate(160,814)"/>
<path d="M0 0 C0.33 0 0.66 0 1 0 C1 1.65 1 3.3 1 5 C0.67 5 0.34 5 0 5 C0 3.35 0 1.7 0 0 Z " fill="#000000" transform="translate(876,659)"/>
<path d="M0 0 C0.33 0 0.66 0 1 0 C1 1.65 1 3.3 1 5 C0.67 5 0.34 5 0 5 C0 3.35 0 1.7 0 0 Z " fill="#000000" transform="translate(736,495)"/>
<path d="M0 0 C0.33 0 0.66 0 1 0 C1 1.65 1 3.3 1 5 C0.67 5 0.34 5 0 5 C0 3.35 0 1.7 0 0 Z " fill="#000000" transform="translate(876,460)"/>
<path d="M0 0 C1 4 1 4 1 4 Z " fill="#000000" transform="translate(736,837)"/>
<path d="M0 0 C1 4 1 4 1 4 Z " fill="#000000" transform="translate(268,820)"/>
<path d="M0 0 C1 4 1 4 1 4 Z " fill="#000000" transform="translate(736,800)"/>
<path d="M0 0 C1 4 1 4 1 4 Z " fill="#000000" transform="translate(736,786)"/>
<path d="M0 0 C1 4 1 4 1 4 Z " fill="#000000" transform="translate(876,748)"/>
<path d="M0 0 C1 4 1 4 1 4 Z " fill="#000000" transform="translate(426,690)"/>
<path d="M0 0 C1 4 1 4 1 4 Z " fill="#000000" transform="translate(736,679)"/>
<path d="M0 0 C4 1 4 1 4 1 Z " fill="#000000" transform="translate(307,600)"/>
<path d="M0 0 C1 4 1 4 1 4 Z " fill="#000000" transform="translate(736,530)"/>
<path d="M0 0 C1 4 1 4 1 4 Z " fill="#000000" transform="translate(736,525)"/>
<path d="M0 0 C1 4 1 4 1 4 Z " fill="#000000" transform="translate(375,512)"/>
<path d="M0 0 C1 4 1 4 1 4 Z " fill="#000000" transform="translate(736,489)"/>
<path d="M0 0 C1 4 1 4 1 4 Z " fill="#000000" transform="translate(876,468)"/>
<path d="M0 0 C1 4 1 4 1 4 Z " fill="#000000" transform="translate(736,424)"/>
<path d="M0 0 C1 4 1 4 1 4 Z " fill="#000000" transform="translate(736,415)"/>
<path d="M0 0 C4 1 4 1 4 1 Z " fill="#000000" transform="translate(812,194)"/>
<path d="M0 0 C0.99 1.485 0.99 1.485 2 3 C1.34 3 0.68 3 0 3 C0 2.01 0 1.02 0 0 Z " fill="#CECECF" transform="translate(16,3)"/>
<path d="" fill="#000000" transform="translate(0,0)"/>
<path d="M0 0 C3 1 3 1 3 1 Z " fill="#000000" transform="translate(154,814)"/>
<path d="" fill="#000000" transform="translate(0,0)"/>
<path d="" fill="#000000" transform="translate(0,0)"/>
<path d="" fill="#000000" transform="translate(0,0)"/>
<path d="" fill="#000000" transform="translate(0,0)"/>
<path d="" fill="#000000" transform="translate(0,0)"/>
<path d="" fill="#000000" transform="translate(0,0)"/>
<path d="" fill="#000000" transform="translate(0,0)"/>
<path d="" fill="#000000" transform="translate(0,0)"/>
<path d="" fill="#000000" transform="translate(0,0)"/>
<path d="" fill="#000000" transform="translate(0,0)"/>
<path d="" fill="#000000" transform="translate(0,0)"/>
<path d="" fill="#000000" transform="translate(0,0)"/>
<path d="" fill="#010202" transform="translate(0,0)"/>
<path d="M0 0 C3 1 3 1 3 1 Z " fill="#000000" transform="translate(347,600)"/>
<path d="M0 0 C3 1 3 1 3 1 Z " fill="#000000" transform="translate(336,600)"/>
<path d="" fill="#000000" transform="translate(0,0)"/>
<path d="M0 0 C3 1 3 1 3 1 Z " fill="#000000" transform="translate(621,503)"/>
<path d="" fill="#000000" transform="translate(0,0)"/>
<path d="" fill="#000000" transform="translate(0,0)"/>
<path d="" fill="#000000" transform="translate(0,0)"/>
<path d="M0 0 C3 1 3 1 3 1 Z " fill="#0B0A0B" transform="translate(878,146)"/>
<path d="M0 0 C3 1 3 1 3 1 Z " fill="#0A0A09" transform="translate(871,146)"/>
<path d="M0 0 C3 1 3 1 3 1 Z " fill="#060706" transform="translate(838,146)"/>
<path d="M0 0 C3 1 3 1 3 1 Z " fill="#060606" transform="translate(814,146)"/>
<path d="M0 0 C3 1 3 1 3 1 Z " fill="#060505" transform="translate(806,146)"/>
<path d="M0 0 C3 1 3 1 3 1 Z " fill="#040302" transform="translate(726,146)"/>
<path d="M0 0 C3 1 3 1 3 1 Z " fill="#030303" transform="translate(710,146)"/>
<path d="M0 0 C3 1 3 1 3 1 Z " fill="#030403" transform="translate(702,146)"/>
<path d="M0 0 C3 1 3 1 3 1 Z " fill="#040403" transform="translate(686,146)"/>
<path d="M0 0 C3 1 3 1 3 1 Z " fill="#030303" transform="translate(622,146)"/>
<path d="M0 0 C3 1 3 1 3 1 Z " fill="#030302" transform="translate(566,146)"/>
<path d="M0 0 C3 1 3 1 3 1 Z " fill="#030403" transform="translate(502,146)"/>
<path d="M0 0 C3 1 3 1 3 1 Z " fill="#030302" transform="translate(486,146)"/>
<path d="M0 0 C3 1 3 1 3 1 Z " fill="#030303" transform="translate(462,146)"/>
<path d="M0 0 C3 1 3 1 3 1 Z " fill="#030301" transform="translate(446,146)"/>
<path d="M0 0 C3 1 3 1 3 1 Z " fill="#020403" transform="translate(422,146)"/>
<path d="M0 0 C3 1 3 1 3 1 Z " fill="#060404" transform="translate(230,146)"/>
<path d="M0 0 C3 1 3 1 3 1 Z " fill="#060504" transform="translate(222,146)"/>
<path d="M0 0 C3 1 3 1 3 1 Z " fill="#0B0B0B" transform="translate(142,146)"/>
<path d="M0 0 C0.66 0.66 1.32 1.32 2 2 C1.34 2 0.68 2 0 2 C0 1.34 0 0.68 0 0 Z " fill="#CED0D0" transform="translate(1022,14)"/>
<path d="M0 0 C3 1 3 1 3 1 Z " fill="#CECFD0" transform="translate(0,11)"/>
<path d="M0 0 C0.33 0.66 0.66 1.32 1 2 C0.34 1.67 -0.32 1.34 -1 1 C-0.67 0.67 -0.34 0.34 0 0 Z " fill="#CFCFD0" transform="translate(5,8)"/>
<path d="M0 0 C2 1 2 1 2 1 Z " fill="#000000" transform="translate(588,889)"/>
<path d="M0 0 C2 1 2 1 2 1 Z " fill="#010101" transform="translate(359,889)"/>
<path d="M0 0 C2 1 2 1 2 1 Z " fill="#000000" transform="translate(694,842)"/>
<path d="M0 0 C2 1 2 1 2 1 Z " fill="#000000" transform="translate(534,842)"/>
<path d="" fill="#000000" transform="translate(0,0)"/>
<path d="" fill="#000000" transform="translate(0,0)"/>
<path d="" fill="#000000" transform="translate(0,0)"/>
<path d="" fill="#000000" transform="translate(0,0)"/>
<path d="M0 0 C2 1 2 1 2 1 Z " fill="#010101" transform="translate(131,814)"/>
<path d="" fill="#000000" transform="translate(0,0)"/>
<path d="" fill="#000000" transform="translate(0,0)"/>
<path d="" fill="#000000" transform="translate(0,0)"/>
<path d="" fill="#000000" transform="translate(0,0)"/>
<path d="" fill="#000000" transform="translate(0,0)"/>
<path d="" fill="#000000" transform="translate(0,0)"/>
<path d="" fill="#000000" transform="translate(0,0)"/>
<path d="" fill="#000000" transform="translate(0,0)"/>
<path d="" fill="#000000" transform="translate(0,0)"/>
<path d="" fill="#000000" transform="translate(0,0)"/>
<path d="" fill="#000000" transform="translate(0,0)"/>
<path d="" fill="#000000" transform="translate(0,0)"/>
<path d="" fill="#000000" transform="translate(0,0)"/>
<path d="" fill="#000000" transform="translate(0,0)"/>
<path d="" fill="#000000" transform="translate(0,0)"/>
<path d="" fill="#000000" transform="translate(0,0)"/>
<path d="" fill="#000000" transform="translate(0,0)"/>
<path d="" fill="#010000" transform="translate(0,0)"/>
<path d="" fill="#000000" transform="translate(0,0)"/>
<path d="" fill="#000000" transform="translate(0,0)"/>
<path d="" fill="#000000" transform="translate(0,0)"/>
<path d="" fill="#000000" transform="translate(0,0)"/>
<path d="" fill="#000000" transform="translate(0,0)"/>
<path d="" fill="#020302" transform="translate(0,0)"/>
<path d="" fill="#000000" transform="translate(0,0)"/>
<path d="" fill="#000000" transform="translate(0,0)"/>
<path d="" fill="#000000" transform="translate(0,0)"/>
<path d="" fill="#020101" transform="translate(0,0)"/>
<path d="" fill="#000000" transform="translate(0,0)"/>
<path d="" fill="#000000" transform="translate(0,0)"/>
<path d="M0 0 C2 1 2 1 2 1 Z " fill="#000000" transform="translate(344,600)"/>
<path d="M0 0 C2 1 2 1 2 1 Z " fill="#000000" transform="translate(630,546)"/>
<path d="" fill="#000100" transform="translate(0,0)"/>
<path d="" fill="#000000" transform="translate(0,0)"/>
<path d="" fill="#000000" transform="translate(0,0)"/>
<path d="" fill="#000000" transform="translate(0,0)"/>
<path d="M0 0 C2 1 2 1 2 1 Z " fill="#010000" transform="translate(446,504)"/>
<path d="M0 0 C2 1 2 1 2 1 Z " fill="#000000" transform="translate(443,504)"/>
<path d="" fill="#000000" transform="translate(0,0)"/>
<path d="" fill="#000000" transform="translate(0,0)"/>
<path d="" fill="#000000" transform="translate(0,0)"/>
<path d="" fill="#000000" transform="translate(0,0)"/>
<path d="" fill="#000000" transform="translate(0,0)"/>
<path d="" fill="#000000" transform="translate(0,0)"/>
<path d="" fill="#000000" transform="translate(0,0)"/>
<path d="" fill="#000000" transform="translate(0,0)"/>
<path d="" fill="#000000" transform="translate(0,0)"/>
<path d="M0 0 C2 1 2 1 2 1 Z " fill="#000000" transform="translate(619,408)"/>
<path d="" fill="#000000" transform="translate(0,0)"/>
<path d="" fill="#010000" transform="translate(0,0)"/>
<path d="M0 0 C2 1 2 1 2 1 Z " fill="#000000" transform="translate(854,194)"/>
<path d="M0 0 C2 1 2 1 2 1 Z " fill="#000000" transform="translate(822,194)"/>
<path d="M0 0 C2 1 2 1 2 1 Z " fill="#000000" transform="translate(766,194)"/>
<path d="M0 0 C2 1 2 1 2 1 Z " fill="#000000" transform="translate(614,194)"/>
<path d="M0 0 C2 1 2 1 2 1 Z " fill="#070606" transform="translate(823,146)"/>
<path d="M0 0 C2 1 2 1 2 1 Z " fill="#050503" transform="translate(798,146)"/>
<path d="M0 0 C2 1 2 1 2 1 Z " fill="#040504" transform="translate(790,146)"/>
<path d="M0 0 C2 1 2 1 2 1 Z " fill="#050503" transform="translate(774,146)"/>
<path d="M0 0 C2 1 2 1 2 1 Z " fill="#050404" transform="translate(742,146)"/>
<path d="M0 0 C2 1 2 1 2 1 Z " fill="#040504" transform="translate(718,146)"/>
<path d="M0 0 C2 1 2 1 2 1 Z " fill="#040504" transform="translate(694,146)"/>
<path d="M0 0 C2 1 2 1 2 1 Z " fill="#050504" transform="translate(679,146)"/>
<path d="M0 0 C2 1 2 1 2 1 Z " fill="#050404" transform="translate(670,146)"/>
<path d="M0 0 C2 1 2 1 2 1 Z " fill="#040304" transform="translate(662,146)"/>
<path d="M0 0 C2 1 2 1 2 1 Z " fill="#040504" transform="translate(655,146)"/>
<path d="M0 0 C2 1 2 1 2 1 Z " fill="#040303" transform="translate(647,146)"/>
<path d="M0 0 C2 1 2 1 2 1 Z " fill="#030305" transform="translate(639,146)"/>
<path d="M0 0 C2 1 2 1 2 1 Z " fill="#040203" transform="translate(607,146)"/>
<path d="M0 0 C2 1 2 1 2 1 Z " fill="#040303" transform="translate(599,146)"/>
<path d="M0 0 C2 1 2 1 2 1 Z " fill="#040204" transform="translate(583,146)"/>
<path d="M0 0 C2 1 2 1 2 1 Z " fill="#030302" transform="translate(550,146)"/>
<path d="M0 0 C2 1 2 1 2 1 Z " fill="#030402" transform="translate(543,146)"/>
<path d="M0 0 C2 1 2 1 2 1 Z " fill="#030302" transform="translate(479,146)"/>
<path d="M0 0 C2 1 2 1 2 1 Z " fill="#040202" transform="translate(455,146)"/>
<path d="M0 0 C2 1 2 1 2 1 Z " fill="#030304" transform="translate(432,146)"/>
<path d="M0 0 C2 1 2 1 2 1 Z " fill="#030403" transform="translate(407,146)"/>
<path d="M0 0 C2 1 2 1 2 1 Z " fill="#030304" transform="translate(391,146)"/>
<path d="M0 0 C2 1 2 1 2 1 Z " fill="#030203" transform="translate(383,146)"/>
<path d="M0 0 C2 1 2 1 2 1 Z " fill="#030304" transform="translate(367,146)"/>
<path d="M0 0 C2 1 2 1 2 1 Z " fill="#040303" transform="translate(359,146)"/>
<path d="M0 0 C2 1 2 1 2 1 Z " fill="#030303" transform="translate(351,146)"/>
<path d="M0 0 C2 1 2 1 2 1 Z " fill="#040303" transform="translate(343,146)"/>
<path d="M0 0 C2 1 2 1 2 1 Z " fill="#040303" transform="translate(335,146)"/>
<path d="M0 0 C2 1 2 1 2 1 Z " fill="#040405" transform="translate(303,146)"/>
<path d="M0 0 C2 1 2 1 2 1 Z " fill="#030404" transform="translate(294,146)"/>
<path d="M0 0 C2 1 2 1 2 1 Z " fill="#050205" transform="translate(287,146)"/>
<path d="M0 0 C2 1 2 1 2 1 Z " fill="#060404" transform="translate(247,146)"/>
<path d="M0 0 C2 1 2 1 2 1 Z " fill="#050504" transform="translate(214,146)"/>
<path d="M0 0 C2 1 2 1 2 1 Z " fill="#060504" transform="translate(207,146)"/>
<path d="M0 0 C2 1 2 1 2 1 Z " fill="#050705" transform="translate(198,146)"/>
<path d="M0 0 C2 1 2 1 2 1 Z " fill="#060504" transform="translate(191,146)"/>
<path d="M0 0 C2 1 2 1 2 1 Z " fill="#080908" transform="translate(150,146)"/>
<path d="M0 0 C2 1 2 1 2 1 Z " fill="#D1D2D3" transform="translate(1022,11)"/>
<path d="M0 0 C2 1 2 1 2 1 Z " fill="#CDCDCE" transform="translate(6,11)"/>
<path d="M0 0 C2 1 2 1 2 1 Z " fill="#D0D0D1" transform="translate(1014,7)"/>
<path d="M0 0 C2 1 2 1 2 1 Z " fill="#D3D4D5" transform="translate(1020,4)"/>
<path d="" fill="#D1D2D3" transform="translate(0,0)"/>
<path d="" fill="#D1D3D2" transform="translate(0,0)"/>
<path d="" fill="#09080B" transform="translate(0,0)"/>
<path d="" fill="#080808" transform="translate(0,0)"/>
<path d="" fill="#040302" transform="translate(0,0)"/>
<path d="" fill="#020002" transform="translate(0,0)"/>
<path d="" fill="#020102" transform="translate(0,0)"/>
<path d="" fill="#020001" transform="translate(0,0)"/>
<path d="" fill="#000102" transform="translate(0,0)"/>
<path d="" fill="#010202" transform="translate(0,0)"/>
<path d="" fill="#020101" transform="translate(0,0)"/>
<path d="" fill="#020001" transform="translate(0,0)"/>
<path d="" fill="#010000" transform="translate(0,0)"/>
<path d="" fill="#020100" transform="translate(0,0)"/>
<path d="" fill="#020002" transform="translate(0,0)"/>
<path d="" fill="#010001" transform="translate(0,0)"/>
<path d="" fill="#000002" transform="translate(0,0)"/>
<path d="" fill="#010101" transform="translate(0,0)"/>
<path d="" fill="#020102" transform="translate(0,0)"/>
<path d="" fill="#010002" transform="translate(0,0)"/>
<path d="" fill="#000002" transform="translate(0,0)"/>
<path d="" fill="#020102" transform="translate(0,0)"/>
<path d="" fill="#020302" transform="translate(0,0)"/>
<path d="" fill="#020202" transform="translate(0,0)"/>
<path d="" fill="#020102" transform="translate(0,0)"/>
<path d="" fill="#010100" transform="translate(0,0)"/>
<path d="" fill="#010001" transform="translate(0,0)"/>
<path d="" fill="#000002" transform="translate(0,0)"/>
<path d="" fill="#010001" transform="translate(0,0)"/>
<path d="" fill="#010002" transform="translate(0,0)"/>
<path d="" fill="#010100" transform="translate(0,0)"/>
<path d="" fill="#010000" transform="translate(0,0)"/>
<path d="" fill="#010101" transform="translate(0,0)"/>
<path d="" fill="#010201" transform="translate(0,0)"/>
<path d="" fill="#0D0D0E" transform="translate(0,0)"/>
<path d="" fill="#030300" transform="translate(0,0)"/>
<path d="" fill="#000000" transform="translate(0,0)"/>
<path d="" fill="#000001" transform="translate(0,0)"/>
<path d="" fill="#000000" transform="translate(0,0)"/>
<path d="" fill="#000000" transform="translate(0,0)"/>
<path d="" fill="#010100" transform="translate(0,0)"/>
<path d="" fill="#000000" transform="translate(0,0)"/>
<path d="" fill="#000000" transform="translate(0,0)"/>
<path d="" fill="#000100" transform="translate(0,0)"/>
<path d="" fill="#000000" transform="translate(0,0)"/>
<path d="" fill="#000000" transform="translate(0,0)"/>
<path d="" fill="#010101" transform="translate(0,0)"/>
<path d="" fill="#010100" transform="translate(0,0)"/>
<path d="" fill="#000100" transform="translate(0,0)"/>
<path d="" fill="#020000" transform="translate(0,0)"/>
<path d="" fill="#000001" transform="translate(0,0)"/>
<path d="" fill="#000100" transform="translate(0,0)"/>
<path d="" fill="#000000" transform="translate(0,0)"/>
<path d="" fill="#000000" transform="translate(0,0)"/>
<path d="" fill="#000000" transform="translate(0,0)"/>
<path d="" fill="#000000" transform="translate(0,0)"/>
<path d="" fill="#000001" transform="translate(0,0)"/>
<path d="" fill="#000000" transform="translate(0,0)"/>
<path d="" fill="#000000" transform="translate(0,0)"/>
<path d="" fill="#010102" transform="translate(0,0)"/>
<path d="" fill="#010000" transform="translate(0,0)"/>
<path d="" fill="#000000" transform="translate(0,0)"/>
<path d="" fill="#010000" transform="translate(0,0)"/>
<path d="" fill="#000000" transform="translate(0,0)"/>
<path d="" fill="#060506" transform="translate(0,0)"/>
<path d="" fill="#000000" transform="translate(0,0)"/>
<path d="" fill="#000000" transform="translate(0,0)"/>
<path d="" fill="#000000" transform="translate(0,0)"/>
<path d="" fill="#000000" transform="translate(0,0)"/>
<path d="" fill="#080707" transform="translate(0,0)"/>
<path d="" fill="#000000" transform="translate(0,0)"/>
<path d="" fill="#000100" transform="translate(0,0)"/>
<path d="" fill="#000000" transform="translate(0,0)"/>
<path d="" fill="#000000" transform="translate(0,0)"/>
<path d="" fill="#000000" transform="translate(0,0)"/>
<path d="" fill="#010000" transform="translate(0,0)"/>
<path d="" fill="#000000" transform="translate(0,0)"/>
<path d="" fill="#000000" transform="translate(0,0)"/>
<path d="" fill="#000000" transform="translate(0,0)"/>
<path d="" fill="#020302" transform="translate(0,0)"/>
<path d="" fill="#040202" transform="translate(0,0)"/>
<path d="" fill="#000101" transform="translate(0,0)"/>
<path d="" fill="#000202" transform="translate(0,0)"/>
<path d="" fill="#000000" transform="translate(0,0)"/>
<path d="" fill="#000001" transform="translate(0,0)"/>
<path d="" fill="#000000" transform="translate(0,0)"/>
<path d="" fill="#000000" transform="translate(0,0)"/>
<path d="" fill="#020202" transform="translate(0,0)"/>
<path d="" fill="#000000" transform="translate(0,0)"/>
<path d="" fill="#000000" transform="translate(0,0)"/>
<path d="" fill="#000000" transform="translate(0,0)"/>
<path d="" fill="#020203" transform="translate(0,0)"/>
<path d="" fill="#000000" transform="translate(0,0)"/>
<path d="" fill="#000000" transform="translate(0,0)"/>
<path d="" fill="#000000" transform="translate(0,0)"/>
<path d="" fill="#000000" transform="translate(0,0)"/>
<path d="" fill="#000000" transform="translate(0,0)"/>
<path d="" fill="#000000" transform="translate(0,0)"/>
<path d="" fill="#000000" transform="translate(0,0)"/>
<path d="" fill="#010101" transform="translate(0,0)"/>
<path d="" fill="#000000" transform="translate(0,0)"/>
<path d="" fill="#000000" transform="translate(0,0)"/>
<path d="" fill="#000000" transform="translate(0,0)"/>
<path d="" fill="#020303" transform="translate(0,0)"/>
<path d="" fill="#000000" transform="translate(0,0)"/>
<path d="" fill="#010404" transform="translate(0,0)"/>
<path d="" fill="#010000" transform="translate(0,0)"/>
<path d="" fill="#000000" transform="translate(0,0)"/>
<path d="" fill="#010202" transform="translate(0,0)"/>
<path d="" fill="#000000" transform="translate(0,0)"/>
<path d="" fill="#000000" transform="translate(0,0)"/>
<path d="" fill="#030301" transform="translate(0,0)"/>
<path d="" fill="#020202" transform="translate(0,0)"/>
<path d="" fill="#000000" transform="translate(0,0)"/>
<path d="" fill="#000000" transform="translate(0,0)"/>
<path d="" fill="#000000" transform="translate(0,0)"/>
<path d="" fill="#000000" transform="translate(0,0)"/>
<path d="" fill="#000000" transform="translate(0,0)"/>
<path d="" fill="#000000" transform="translate(0,0)"/>
<path d="" fill="#000000" transform="translate(0,0)"/>
<path d="" fill="#010000" transform="translate(0,0)"/>
<path d="" fill="#000000" transform="translate(0,0)"/>
<path d="" fill="#030303" transform="translate(0,0)"/>
<path d="" fill="#000000" transform="translate(0,0)"/>
<path d="" fill="#000000" transform="translate(0,0)"/>
<path d="" fill="#000000" transform="translate(0,0)"/>
<path d="" fill="#000000" transform="translate(0,0)"/>
<path d="" fill="#020202" transform="translate(0,0)"/>
<path d="" fill="#050303" transform="translate(0,0)"/>
<path d="" fill="#000000" transform="translate(0,0)"/>
<path d="" fill="#010000" transform="translate(0,0)"/>
<path d="" fill="#010203" transform="translate(0,0)"/>
<path d="" fill="#000000" transform="translate(0,0)"/>
<path d="" fill="#000000" transform="translate(0,0)"/>
<path d="" fill="#000000" transform="translate(0,0)"/>
<path d="" fill="#010000" transform="translate(0,0)"/>
<path d="" fill="#000000" transform="translate(0,0)"/>
<path d="" fill="#000000" transform="translate(0,0)"/>
<path d="" fill="#000000" transform="translate(0,0)"/>
<path d="" fill="#000000" transform="translate(0,0)"/>
<path d="" fill="#030003" transform="translate(0,0)"/>
<path d="" fill="#000000" transform="translate(0,0)"/>
<path d="" fill="#000000" transform="translate(0,0)"/>
<path d="" fill="#010303" transform="translate(0,0)"/>
<path d="" fill="#000000" transform="translate(0,0)"/>
<path d="" fill="#000000" transform="translate(0,0)"/>
<path d="" fill="#000000" transform="translate(0,0)"/>
<path d="" fill="#000000" transform="translate(0,0)"/>
<path d="" fill="#010000" transform="translate(0,0)"/>
<path d="" fill="#000000" transform="translate(0,0)"/>
<path d="" fill="#010001" transform="translate(0,0)"/>
<path d="" fill="#000101" transform="translate(0,0)"/>
<path d="" fill="#020202" transform="translate(0,0)"/>
<path d="" fill="#000000" transform="translate(0,0)"/>
<path d="" fill="#000000" transform="translate(0,0)"/>
<path d="" fill="#000000" transform="translate(0,0)"/>
<path d="" fill="#000000" transform="translate(0,0)"/>
<path d="" fill="#000000" transform="translate(0,0)"/>
<path d="" fill="#000000" transform="translate(0,0)"/>
<path d="" fill="#000000" transform="translate(0,0)"/>
<path d="" fill="#000100" transform="translate(0,0)"/>
<path d="" fill="#000000" transform="translate(0,0)"/>
<path d="" fill="#000000" transform="translate(0,0)"/>
<path d="" fill="#000001" transform="translate(0,0)"/>
<path d="" fill="#010000" transform="translate(0,0)"/>
<path d="" fill="#000000" transform="translate(0,0)"/>
<path d="" fill="#000000" transform="translate(0,0)"/>
<path d="" fill="#000000" transform="translate(0,0)"/>
<path d="" fill="#000000" transform="translate(0,0)"/>
<path d="" fill="#000000" transform="translate(0,0)"/>
<path d="" fill="#000000" transform="translate(0,0)"/>
<path d="" fill="#000000" transform="translate(0,0)"/>
<path d="" fill="#000000" transform="translate(0,0)"/>
<path d="" fill="#000000" transform="translate(0,0)"/>
<path d="" fill="#000000" transform="translate(0,0)"/>
<path d="" fill="#000000" transform="translate(0,0)"/>
<path d="" fill="#000000" transform="translate(0,0)"/>
<path d="" fill="#000000" transform="translate(0,0)"/>
<path d="" fill="#000000" transform="translate(0,0)"/>
<path d="" fill="#000000" transform="translate(0,0)"/>
<path d="" fill="#000000" transform="translate(0,0)"/>
<path d="" fill="#000000" transform="translate(0,0)"/>
<path d="" fill="#000000" transform="translate(0,0)"/>
<path d="" fill="#000000" transform="translate(0,0)"/>
<path d="" fill="#000000" transform="translate(0,0)"/>
<path d="" fill="#020000" transform="translate(0,0)"/>
<path d="" fill="#000000" transform="translate(0,0)"/>
<path d="" fill="#000000" transform="translate(0,0)"/>
<path d="" fill="#000000" transform="translate(0,0)"/>
<path d="" fill="#000000" transform="translate(0,0)"/>
<path d="" fill="#000000" transform="translate(0,0)"/>
<path d="" fill="#000000" transform="translate(0,0)"/>
<path d="" fill="#010000" transform="translate(0,0)"/>
<path d="" fill="#000000" transform="translate(0,0)"/>
<path d="" fill="#000000" transform="translate(0,0)"/>
<path d="" fill="#000000" transform="translate(0,0)"/>
<path d="" fill="#000000" transform="translate(0,0)"/>
<path d="" fill="#000000" transform="translate(0,0)"/>
<path d="" fill="#000000" transform="translate(0,0)"/>
<path d="" fill="#000000" transform="translate(0,0)"/>
<path d="" fill="#000000" transform="translate(0,0)"/>
<path d="" fill="#000000" transform="translate(0,0)"/>
<path d="" fill="#000000" transform="translate(0,0)"/>
<path d="" fill="#020202" transform="translate(0,0)"/>
<path d="" fill="#010000" transform="translate(0,0)"/>
<path d="" fill="#000000" transform="translate(0,0)"/>
<path d="" fill="#000000" transform="translate(0,0)"/>
<path d="" fill="#000000" transform="translate(0,0)"/>
<path d="" fill="#000000" transform="translate(0,0)"/>
<path d="" fill="#000000" transform="translate(0,0)"/>
<path d="" fill="#000000" transform="translate(0,0)"/>
<path d="" fill="#000000" transform="translate(0,0)"/>
<path d="" fill="#000000" transform="translate(0,0)"/>
<path d="" fill="#000000" transform="translate(0,0)"/>
<path d="" fill="#000000" transform="translate(0,0)"/>
<path d="" fill="#000000" transform="translate(0,0)"/>
<path d="" fill="#000002" transform="translate(0,0)"/>
<path d="" fill="#000000" transform="translate(0,0)"/>
<path d="" fill="#020303" transform="translate(0,0)"/>
<path d="" fill="#000000" transform="translate(0,0)"/>
<path d="" fill="#030404" transform="translate(0,0)"/>
<path d="" fill="#000000" transform="translate(0,0)"/>
<path d="" fill="#000000" transform="translate(0,0)"/>
<path d="" fill="#000000" transform="translate(0,0)"/>
<path d="" fill="#000000" transform="translate(0,0)"/>
<path d="" fill="#030404" transform="translate(0,0)"/>
<path d="" fill="#000000" transform="translate(0,0)"/>
<path d="" fill="#000000" transform="translate(0,0)"/>
<path d="" fill="#000000" transform="translate(0,0)"/>
<path d="" fill="#000000" transform="translate(0,0)"/>
<path d="" fill="#000000" transform="translate(0,0)"/>
<path d="" fill="#000000" transform="translate(0,0)"/>
<path d="" fill="#000000" transform="translate(0,0)"/>
<path d="" fill="#000000" transform="translate(0,0)"/>
<path d="" fill="#000000" transform="translate(0,0)"/>
<path d="" fill="#000000" transform="translate(0,0)"/>
<path d="" fill="#000000" transform="translate(0,0)"/>
<path d="" fill="#000100" transform="translate(0,0)"/>
<path d="" fill="#000000" transform="translate(0,0)"/>
<path d="" fill="#000000" transform="translate(0,0)"/>
<path d="" fill="#000000" transform="translate(0,0)"/>
<path d="" fill="#000000" transform="translate(0,0)"/>
<path d="" fill="#000000" transform="translate(0,0)"/>
<path d="" fill="#000000" transform="translate(0,0)"/>
<path d="" fill="#000000" transform="translate(0,0)"/>
<path d="" fill="#000000" transform="translate(0,0)"/>
<path d="" fill="#000000" transform="translate(0,0)"/>
<path d="" fill="#000100" transform="translate(0,0)"/>
<path d="" fill="#000000" transform="translate(0,0)"/>
<path d="" fill="#000000" transform="translate(0,0)"/>
<path d="" fill="#000000" transform="translate(0,0)"/>
<path d="" fill="#000000" transform="translate(0,0)"/>
<path d="" fill="#000000" transform="translate(0,0)"/>
<path d="" fill="#000000" transform="translate(0,0)"/>
<path d="" fill="#000000" transform="translate(0,0)"/>
<path d="" fill="#000000" transform="translate(0,0)"/>
<path d="" fill="#000000" transform="translate(0,0)"/>
<path d="" fill="#000001" transform="translate(0,0)"/>
<path d="" fill="#0D0D0C" transform="translate(0,0)"/>
<path d="" fill="#0B0A0A" transform="translate(0,0)"/>
<path d="" fill="#06080A" transform="translate(0,0)"/>
<path d="" fill="#060707" transform="translate(0,0)"/>
<path d="" fill="#050603" transform="translate(0,0)"/>
<path d="" fill="#040304" transform="translate(0,0)"/>
<path d="" fill="#050303" transform="translate(0,0)"/>
<path d="" fill="#050402" transform="translate(0,0)"/>
<path d="" fill="#020502" transform="translate(0,0)"/>
<path d="" fill="#050404" transform="translate(0,0)"/>
<path d="" fill="#050303" transform="translate(0,0)"/>
<path d="" fill="#030203" transform="translate(0,0)"/>
<path d="" fill="#040505" transform="translate(0,0)"/>
<path d="" fill="#030403" transform="translate(0,0)"/>
<path d="" fill="#040505" transform="translate(0,0)"/>
<path d="" fill="#030403" transform="translate(0,0)"/>
<path d="" fill="#020304" transform="translate(0,0)"/>
<path d="" fill="#020402" transform="translate(0,0)"/>
<path d="" fill="#040402" transform="translate(0,0)"/>
<path d="" fill="#050404" transform="translate(0,0)"/>
<path d="" fill="#040404" transform="translate(0,0)"/>
<path d="" fill="#030202" transform="translate(0,0)"/>
<path d="" fill="#050404" transform="translate(0,0)"/>
<path d="" fill="#040301" transform="translate(0,0)"/>
<path d="" fill="#040404" transform="translate(0,0)"/>
<path d="" fill="#030505" transform="translate(0,0)"/>
<path d="" fill="#030404" transform="translate(0,0)"/>
<path d="" fill="#040305" transform="translate(0,0)"/>
<path d="" fill="#050505" transform="translate(0,0)"/>
<path d="" fill="#060605" transform="translate(0,0)"/>
<path d="" fill="#060604" transform="translate(0,0)"/>
<path d="" fill="#060506" transform="translate(0,0)"/>
<path d="" fill="#060705" transform="translate(0,0)"/>
<path d="" fill="#070706" transform="translate(0,0)"/>
<path d="" fill="#080808" transform="translate(0,0)"/>
<path d="" fill="#CBCDCD" transform="translate(0,0)"/>
<path d="" fill="#CACACC" transform="translate(0,0)"/>
<path d="" fill="#CACCCC" transform="translate(0,0)"/>
<path d="" fill="#CAC8C9" transform="translate(0,0)"/>
<path d="" fill="#CCCDCD" transform="translate(0,0)"/>
<path d="" fill="#D0D2D2" transform="translate(0,0)"/>
<path d="" fill="#C9C9C9" transform="translate(0,0)"/>
<path d="" fill="#CCCCCD" transform="translate(0,0)"/>
<path d="" fill="#CCCECF" transform="translate(0,0)"/>
<path d="" fill="#D4D3D5" transform="translate(0,0)"/>
<path d="" fill="#CDD0CF" transform="translate(0,0)"/>
<path d="" fill="#D1D0D2" transform="translate(0,0)"/>
<path d="" fill="#D2D4D4" transform="translate(0,0)"/>
<path d="" fill="#CBCCCD" transform="translate(0,0)"/>
<path d="" fill="#CCCCCE" transform="translate(0,0)"/>
<path d="" fill="#D3D4D4" transform="translate(0,0)"/>
<path d="" fill="#CECFCF" transform="translate(0,0)"/>
<path d="" fill="#D2D2D3" transform="translate(0,0)"/>
<path d="" fill="#D0CFD1" transform="translate(0,0)"/>
<path d="" fill="#CBCCCD" transform="translate(0,0)"/>
<path d="" fill="#D1D3D3" transform="translate(0,0)"/>
<path d="" fill="#CDCECF" transform="translate(0,0)"/>
<path d="" fill="#D1D1D1" transform="translate(0,0)"/>
<path d="" fill="#CCCCCD" transform="translate(0,0)"/>
<path d="" fill="#CDCED0" transform="translate(0,0)"/>
<path d="" fill="#CFCFCF" transform="translate(0,0)"/>
<path d="" fill="#D1D1D3" transform="translate(0,0)"/>
</svg>
