<?xml version="1.0" encoding="UTF-8"?>
<svg version="1.1" xmlns="http://www.w3.org/2000/svg" width="1024" height="1024">
<path d="M0 0 C1.54494141 0.12568359 1.54494141 0.12568359 3.12109375 0.25390625 C11.54303051 0.87664455 19.68059637 0.9671859 28.10205078 0.33837891 C32.73074523 0.01338776 37.02494132 0.13844734 41.61328125 0.73828125 C49.05077745 1.55384957 56.47943704 1.14089289 63.84375 -0.07421875 C66.75717345 0.02606213 67.92290524 1.00945086 70 3 C71.12659519 6.37978558 71.12020983 8.92816136 71.11352539 12.4909668 C71.11367142 13.1448941 71.11381744 13.79882141 71.1139679 14.4725647 C71.11327188 16.63148326 71.10549408 18.79031528 71.09765625 20.94921875 C71.09579096 22.44708713 71.09436758 23.94495611 71.09336853 25.44282532 C71.08955207 29.38345019 71.0797292 33.32403814 71.06866455 37.26464844 C71.05843172 41.28645325 71.0538669 45.30826404 71.04882812 49.33007812 C71.03810616 57.22006901 71.02104017 65.11002991 71 73 C71.86669815 73.19906952 72.7333963 73.39813904 73.62635803 73.60324097 C74.77712326 73.86807281 75.92788849 74.13290466 77.11352539 74.40576172 C78.24834854 74.66670624 79.38317169 74.92765076 80.55238342 75.19650269 C111.15872564 82.32957947 138.89919194 92.8089237 164 112 C164.90621094 112.68191406 165.81242187 113.36382812 166.74609375 114.06640625 C180.48425903 124.82422661 192.3747679 137.4673915 202 152 C202.71542969 153.07765625 203.43085937 154.1553125 204.16796875 155.265625 C222.58034424 184.18409483 233.11193447 218.5300314 232 253 C231.01 253.33 230.02 253.66 229 254 C228.67 254.66 228.34 255.32 228 256 C226.87993057 255.98747192 225.75986115 255.97494385 224.60585022 255.96203613 C214.02774912 255.84378457 203.44964225 255.72606101 192.87152958 255.60884857 C187.43379994 255.54857814 181.99607247 255.48812452 176.55834961 255.42724609 C171.30639046 255.36845424 166.05442609 255.31015164 160.80245781 255.25218201 C158.80310308 255.23002895 156.80375027 255.20770241 154.80439949 255.18519592 C151.99468598 255.15359749 149.18496617 255.12262729 146.37524414 255.09179688 C145.55668442 255.08244614 144.73812469 255.0730954 143.89476013 255.0634613 C142.35525182 255.04681264 140.81571982 255.0321952 139.27617073 255.0198822 C137.68018051 255.00594133 136.08424242 254.98513981 134.48840141 254.95924377 C133.68011454 254.95017502 132.87182766 254.94110626 132.03904724 254.9317627 C130.94777857 254.91560284 130.94777857 254.91560284 129.83446407 254.89911652 C127.90176323 254.88352444 127.90176323 254.88352444 126 256 C124.69790015 253.3958003 124.68777115 250.90156946 124.45678711 248.03466797 C122.60354931 225.87895851 116.57254166 204.71481307 100 189 C99.41605469 188.43152344 98.83210938 187.86304688 98.23046875 187.27734375 C90.41190509 180.11795642 81.97664039 176.62786923 72 173 C71.505 250.715 71.505 250.715 71 330 C71.66 330 72.32 330 73 330 C73 330.99 73 331.98 73 333 C73.65145996 333.1952124 74.30291992 333.3904248 74.97412109 333.59155273 C136.24155393 352.02094187 197.49722494 374.75860519 230.02734375 433.63671875 C242.68099064 457.25100424 247.91143338 483.36228694 248 510 C248.00402832 510.77875488 248.00805664 511.55750977 248.01220703 512.35986328 C247.8936375 545.21757226 236.80881186 580.65235705 217 607 C216.24332031 608.03769531 215.48664063 609.07539062 214.70703125 610.14453125 C200.21783817 629.72988304 182.53384059 645.60332061 161.6875 658.1875 C160.72710815 658.76757812 160.72710815 658.76757812 159.74731445 659.359375 C155.26202775 662 155.26202775 662 153 662 C152.67 662.66 152.34 663.32 152 664 C126.88081004 676.70735492 98.8243286 682.58290723 71 685 C71.00888245 686.0685321 71.01776489 687.13706421 71.0269165 688.23797607 C71.10796484 698.30251341 71.16794738 708.36698464 71.20724869 718.43177414 C71.22813313 723.60634704 71.25646658 728.78065672 71.30175781 733.95507812 C71.34518476 738.94769125 71.36913065 743.94005103 71.37950897 748.93283844 C71.386906 750.83867634 71.40135054 752.74450021 71.42292023 754.65023041 C71.45191246 757.317582 71.45595778 759.98388366 71.45410156 762.65136719 C71.46848267 763.4411496 71.48286377 764.23093201 71.49768066 765.04464722 C71.4721337 768.43214627 71.24632927 770.61948409 69.38716125 773.49142456 C66.21573752 775.49561759 64.09559235 775.49480672 60.35131836 775.48583984 C59.69231033 775.48963654 59.03330231 775.49343323 58.35432434 775.49734497 C56.18234211 775.50473707 54.01170644 775.4833917 51.83984375 775.4609375 C50.32817237 775.45855239 48.816498 775.4576479 47.30482483 775.4581604 C44.13979482 775.45503486 40.9752186 775.43848774 37.81030273 775.41162109 C33.75255872 775.37761225 29.69531244 775.36999347 25.63744259 775.37151146 C22.51733139 775.37096779 19.39732909 775.36000157 16.2772541 775.34550858 C14.78092841 775.33914323 13.28459038 775.33520229 11.78825188 775.33372116 C9.69838282 775.32938686 7.60904259 775.31188487 5.51928711 775.29052734 C4.33000107 775.28290375 3.14071503 775.27528015 1.91539001 775.26742554 C-1 775 -1 775 -4 773 C-5.21944534 769.34166399 -5.13174805 765.98745667 -5.11352539 762.1796875 C-5.11367142 761.38427551 -5.11381744 760.58886353 -5.1139679 759.76934814 C-5.11327082 757.1378711 -5.10548614 754.5064647 -5.09765625 751.875 C-5.09579082 750.04801472 -5.09436751 748.22102893 -5.09336853 746.39404297 C-5.08954887 741.58161033 -5.07972598 736.76920783 -5.06866455 731.95678711 C-5.05845478 727.0597372 -5.05386754 722.16268248 -5.04882812 717.265625 C-5.03924917 708.66161007 -5.0247562 700.05761438 -5.00672913 691.45361328 C-5.00253766 689.30241177 -5 687.1512056 -5 685 C-5.56581787 684.94054199 -6.13163574 684.88108398 -6.71459961 684.81982422 C-59.45113988 679.08403226 -109.86857125 658.81336186 -144.23364258 616.99267578 C-154.29135126 604.39539124 -173 580.83635996 -173 564 C-173.66 563.67 -174.32 563.34 -175 563 C-180.68999524 546.14518217 -183.06383121 527.43159638 -183.875 509.75 C-183.94883911 508.22342773 -183.94883911 508.22342773 -184.02416992 506.66601562 C-184.31007684 497.84717561 -184.31007684 497.84717561 -182 495 C-176.38740357 493.863249 -170.84282385 493.85774942 -165.13330078 493.87060547 C-163.68577171 493.86797699 -163.68577171 493.86797699 -162.20899963 493.86529541 C-159.037752 493.86091434 -155.86656064 493.86380027 -152.6953125 493.8671875 C-150.48810821 493.86651372 -148.28090399 493.86554307 -146.07369995 493.86428833 C-141.45895681 493.86281672 -136.84423307 493.86494992 -132.22949219 493.86962891 C-126.30079175 493.87534597 -120.37213639 493.87203134 -114.44343758 493.86605644 C-109.89173031 493.86245345 -105.34003384 493.86358785 -100.78832626 493.86618423 C-98.60094065 493.86685319 -96.41355407 493.86602616 -94.22616959 493.86370468 C-91.18086367 493.8611803 -88.13563235 493.86501478 -85.09033203 493.87060547 C-84.17920151 493.86858124 -83.26807098 493.86655701 -82.32933044 493.86447144 C-76.11426659 493.88573341 -76.11426659 493.88573341 -75 495 C-74.76222503 496.4189615 -74.57992204 497.84730536 -74.421875 499.27734375 C-71.78417895 521.61050562 -67.11219926 542.59365964 -52 560 C-51.57847656 560.57492187 -51.15695312 561.14984375 -50.72265625 561.7421875 C-39.93172394 575.97703438 -21.79695589 582.64060882 -5 586 C-5 531.22 -5 476.44 -5 420 C-8.63 419.34 -12.26 418.68 -16 418 C-20.59309921 416.83082427 -25.10260154 415.41702632 -29.625 414 C-30.25150452 413.80403229 -30.87800903 413.60806458 -31.52349854 413.40615845 C-83.06982918 397.19981771 -128.44230744 370.80032767 -154.23583984 321.68530273 C-159.36984958 311.53927173 -162.91019073 300.99407339 -165.75 290 C-165.94875732 289.24243408 -166.14751465 288.48486816 -166.35229492 287.7043457 C-169.56271834 274.57504874 -170.38645325 261.27515608 -170.3125 247.8125 C-170.31034485 247.09799683 -170.3081897 246.38349365 -170.30596924 245.64733887 C-170.21067353 225.83574766 -167.1261657 207.83530838 -161 189 C-160.62101562 187.83210937 -160.24203125 186.66421875 -159.8515625 185.4609375 C-152.22845056 164.10541115 -138.33976326 141.00658411 -121 126 C-120.34 126 -119.68 126 -119 126 C-119 125.34 -119 124.68 -119 124 C-112.91076119 117.52443487 -105.07510515 112.35312189 -98 107 C-97.34644531 106.48179687 -96.69289063 105.96359375 -96.01953125 105.4296875 C-90.74817527 101.69793452 -84.74177443 98.9347972 -79 96 C-78.26765137 95.62504395 -77.53530273 95.25008789 -76.78076172 94.86376953 C-55.58129581 84.12852537 -33.0582154 76.92753455 -9.33203125 74.4921875 C-8.23246094 74.32976562 -7.13289062 74.16734375 -6 74 C-4.58670593 71.17341185 -4.89604646 68.83076837 -4.91821289 65.67016602 C-4.92127945 65.02120361 -4.92434601 64.37224121 -4.92750549 63.70361328 C-4.93466425 62.29309932 -4.94405618 60.88259535 -4.95540047 59.47210884 C-4.97275984 57.24059006 -4.98308 55.00914258 -4.99131775 52.77757263 C-5.01579966 46.43229418 -5.05136273 40.08711174 -5.09594727 33.74194336 C-5.12271422 29.86228508 -5.13976775 25.98268247 -5.15081596 22.10294914 C-5.15702986 20.62334066 -5.16704031 19.14374314 -5.18089485 17.66418648 C-5.20008928 15.59579516 -5.20700398 13.52769683 -5.21118164 11.45922852 C-5.21863907 10.28167496 -5.2260965 9.1041214 -5.23377991 7.8908844 C-5 5 -5 5 -3 2 C-2.01 2 -1.02 2 0 2 C0 1.34 0 0.68 0 0 Z M-38.8125 188.125 C-53.2669141 203.38009593 -57.47095238 221.95149258 -57.203125 242.41015625 C-56.7014839 260.69252719 -48.95151988 277.3647695 -35.8359375 290.1015625 C-30.93381518 294.3478825 -25.62785377 297.45192115 -19.875 300.375 C-19.21822266 300.70902832 -18.56144531 301.04305664 -17.88476562 301.38720703 C-13.16209482 303.67895263 -9.37277068 304.65680733 -4 306 C-4 261.12 -4 216.24 -4 170 C-16.3739192 170 -30.3566308 180.20490212 -38.8125 188.125 Z M71 445 C71 491.86 71 538.72 71 587 C77.28149794 586.30205578 82.05502216 585.64677107 87.75 583.4375 C88.77697998 583.04268433 88.77697998 583.04268433 89.82470703 582.63989258 C108.89783489 575.00135042 122.48814451 562.06006214 130.71484375 543.28125 C137.13693395 526.88442395 138.30862988 507.28157435 131.8125 490.6875 C122.08405891 469.72299391 105.15473982 457.25651011 84 449 C79.71 447.68 75.42 446.36 71 445 Z " fill="#000000" transform="translate(479,120)"/>
<path d="" fill="#060807" transform="translate(0,0)"/>
<path d="M0 0 C0.66 0.66 1.32 1.32 2 2 C1.34 2 0.68 2 0 2 C0 1.34 0 0.68 0 0 Z " fill="#141616" transform="translate(305,688)"/>
<path d="" fill="#070807" transform="translate(0,0)"/>
<path d="" fill="#050608" transform="translate(0,0)"/>
<path d="" fill="#0F100F" transform="translate(0,0)"/>
<path d="" fill="#171717" transform="translate(0,0)"/>
<path d="" fill="#040507" transform="translate(0,0)"/>
<path d="" fill="#040807" transform="translate(0,0)"/>
<path d="M0 0 C2 1 2 1 2 1 Z " fill="#0C0D0D" transform="translate(566,456)"/>
<path d="" fill="#060707" transform="translate(0,0)"/>
<path d="M0 0 C2 1 2 1 2 1 Z " fill="#111112" transform="translate(371,232)"/>
<path d="M0 0 C2 1 2 1 2 1 Z " fill="#101011" transform="translate(396,216)"/>
<path d="M0 0 C2 1 2 1 2 1 Z " fill="#0E0D0C" transform="translate(584,200)"/>
<path d="M0 0 C2 1 2 1 2 1 Z " fill="#0E100F" transform="translate(434,200)"/>
<path d="" fill="#60605F" transform="translate(0,0)"/>
<path d="" fill="#0E1111" transform="translate(0,0)"/>
<path d="" fill="#0B0A0B" transform="translate(0,0)"/>
<path d="" fill="#0D0C0B" transform="translate(0,0)"/>
<path d="" fill="#040506" transform="translate(0,0)"/>
<path d="" fill="#070708" transform="translate(0,0)"/>
<path d="" fill="#0C090C" transform="translate(0,0)"/>
<path d="" fill="#0E0F0C" transform="translate(0,0)"/>
<path d="" fill="#0D0B0C" transform="translate(0,0)"/>
<path d="" fill="#0F0D0D" transform="translate(0,0)"/>
<path d="" fill="#121010" transform="translate(0,0)"/>
<path d="" fill="#111112" transform="translate(0,0)"/>
<path d="" fill="#110F0F" transform="translate(0,0)"/>
<path d="" fill="#101111" transform="translate(0,0)"/>
<path d="" fill="#151815" transform="translate(0,0)"/>
<path d="" fill="#151717" transform="translate(0,0)"/>
<path d="" fill="#090909" transform="translate(0,0)"/>
<path d="" fill="#0B0C0C" transform="translate(0,0)"/>
<path d="" fill="#090C0A" transform="translate(0,0)"/>
<path d="" fill="#0C0B0C" transform="translate(0,0)"/>
<path d="" fill="#050708" transform="translate(0,0)"/>
<path d="" fill="#161414" transform="translate(0,0)"/>
<path d="" fill="#070808" transform="translate(0,0)"/>
<path d="" fill="#0D0A0A" transform="translate(0,0)"/>
<path d="" fill="#060607" transform="translate(0,0)"/>
<path d="" fill="#060607" transform="translate(0,0)"/>
<path d="" fill="#191816" transform="translate(0,0)"/>
<path d="" fill="#141717" transform="translate(0,0)"/>
<path d="" fill="#080809" transform="translate(0,0)"/>
<path d="" fill="#181818" transform="translate(0,0)"/>
<path d="" fill="#070807" transform="translate(0,0)"/>
<path d="" fill="#161815" transform="translate(0,0)"/>
<path d="" fill="#131414" transform="translate(0,0)"/>
<path d="" fill="#060808" transform="translate(0,0)"/>
<path d="" fill="#070807" transform="translate(0,0)"/>
<path d="" fill="#080909" transform="translate(0,0)"/>
<path d="" fill="#060909" transform="translate(0,0)"/>
<path d="" fill="#141615" transform="translate(0,0)"/>
<path d="" fill="#050609" transform="translate(0,0)"/>
<path d="" fill="#100F0E" transform="translate(0,0)"/>
<path d="" fill="#1A1B1B" transform="translate(0,0)"/>
<path d="" fill="#151718" transform="translate(0,0)"/>
<path d="" fill="#060608" transform="translate(0,0)"/>
<path d="" fill="#151315" transform="translate(0,0)"/>
<path d="" fill="#101113" transform="translate(0,0)"/>
<path d="" fill="#141214" transform="translate(0,0)"/>
<path d="" fill="#0D0C0F" transform="translate(0,0)"/>
<path d="" fill="#0D0F0B" transform="translate(0,0)"/>
<path d="" fill="#0E0F0F" transform="translate(0,0)"/>
<path d="" fill="#100F11" transform="translate(0,0)"/>
<path d="" fill="#0E0D0B" transform="translate(0,0)"/>
<path d="" fill="#0E0F0E" transform="translate(0,0)"/>
<path d="" fill="#0E0E0C" transform="translate(0,0)"/>
<path d="" fill="#0C0D0C" transform="translate(0,0)"/>
<path d="" fill="#141414" transform="translate(0,0)"/>
<path d="" fill="#070608" transform="translate(0,0)"/>
<path d="" fill="#141314" transform="translate(0,0)"/>
<path d="" fill="#131413" transform="translate(0,0)"/>
<path d="" fill="#171414" transform="translate(0,0)"/>
<path d="" fill="#161513" transform="translate(0,0)"/>
<path d="" fill="#151415" transform="translate(0,0)"/>
<path d="" fill="#080807" transform="translate(0,0)"/>
<path d="" fill="#0B0C0D" transform="translate(0,0)"/>
<path d="" fill="#0A0B0A" transform="translate(0,0)"/>
<path d="" fill="#09080A" transform="translate(0,0)"/>
<path d="" fill="#0C0D0D" transform="translate(0,0)"/>
<path d="" fill="#161516" transform="translate(0,0)"/>
<path d="" fill="#09090C" transform="translate(0,0)"/>
<path d="" fill="#050807" transform="translate(0,0)"/>
<path d="" fill="#060808" transform="translate(0,0)"/>
<path d="" fill="#060607" transform="translate(0,0)"/>
<path d="" fill="#060809" transform="translate(0,0)"/>
<path d="" fill="#12120F" transform="translate(0,0)"/>
<path d="" fill="#0C0B0B" transform="translate(0,0)"/>
<path d="" fill="#0B0A08" transform="translate(0,0)"/>
<path d="" fill="#0C0D0C" transform="translate(0,0)"/>
<path d="" fill="#131417" transform="translate(0,0)"/>
<path d="" fill="#0A080A" transform="translate(0,0)"/>
<path d="" fill="#141414" transform="translate(0,0)"/>
<path d="" fill="#0E0F12" transform="translate(0,0)"/>
<path d="" fill="#0B0B0B" transform="translate(0,0)"/>
<path d="" fill="#131515" transform="translate(0,0)"/>
<path d="" fill="#121414" transform="translate(0,0)"/>
<path d="" fill="#0E0F0E" transform="translate(0,0)"/>
<path d="" fill="#0E0E0D" transform="translate(0,0)"/>
<path d="" fill="#0C0C0D" transform="translate(0,0)"/>
</svg>
