<?xml version="1.0" encoding="UTF-8"?>
<svg version="1.1" xmlns="http://www.w3.org/2000/svg" width="1024" height="1024">
<path d="M0 0 C2.60024246 -0.00115588 5.20048475 -0.00274651 7.80072671 -0.00472724 C13.39662341 -0.00829549 18.99251041 -0.00825663 24.58840752 -0.00568008 C32.91157998 -0.00185851 41.23474443 -0.0038515 49.55791686 -0.00688839 C64.43901532 -0.01212679 79.32010946 -0.01170836 94.20120832 -0.00880948 C107.23789211 -0.0062828 120.27457433 -0.00564234 133.31125832 -0.00683212 C134.17978001 -0.00690851 135.0483017 -0.00698489 135.94314222 -0.00706359 C139.46997232 -0.007375 142.99680242 -0.00769341 146.52363251 -0.00802336 C179.55671148 -0.01107673 212.58978773 -0.00831887 245.62286628 -0.00292646 C274.85732838 0.00180967 304.09178611 0.00140128 333.32624817 -0.00338745 C366.27151456 -0.00876616 399.21677853 -0.01085132 432.1620453 -0.00777519 C435.68854892 -0.00745455 439.21505254 -0.0071417 442.74155617 -0.00683212 C443.60968468 -0.00675305 444.4778132 -0.00667397 445.37224864 -0.00659249 C458.37400249 -0.00546402 471.37575456 -0.00676849 484.37750816 -0.00931168 C499.20559151 -0.01219787 514.03366991 -0.01140014 528.86175265 -0.00603093 C536.40403774 -0.00338855 543.94631479 -0.00221665 551.48859978 -0.00568008 C577.76937553 -0.01684521 604.05004368 -0.01030867 630.32756624 0.45408906 C632.40517863 0.49065803 634.48283687 0.52473022 636.56053611 0.55597709 C665.60578524 1.01117641 689.54331261 6.34216054 710.46662903 27.71682739 C721.73529387 40.57045024 729.10294553 57.52332152 729.06569386 74.66377926 C729.06804609 75.40571605 729.07039832 76.14765284 729.07282183 76.91207257 C729.07948255 79.39997908 729.07905449 81.88783302 729.0786438 84.37574768 C729.08194425 86.17689899 729.0856702 87.97804955 729.08978528 89.77919918 C729.09979282 94.73057433 729.10352007 99.68193734 729.10617459 104.63332117 C729.11008134 109.97302602 729.11965943 115.31272131 729.12838745 120.65242004 C729.14814149 133.54887919 729.15821678 146.44533911 729.16711524 159.3418096 C729.17149993 165.41716967 729.17686627 171.49252887 729.18210411 177.56788826 C729.19911542 197.76756198 729.21360915 217.96723516 729.22085285 238.16691494 C729.2227627 243.40775491 729.22468304 248.64859487 729.22663879 253.88943481 C729.22712253 255.19199642 729.22760627 256.49455802 729.22810467 257.83659119 C729.23640334 278.93284578 729.26173795 300.02904364 729.29421947 321.12527346 C729.32730589 342.79126474 729.34530305 364.4572272 729.34849709 386.12324387 C729.35066073 398.28506842 729.35938804 410.44681025 729.38495827 422.60861015 C729.40668685 432.96707122 729.41470503 443.32542945 729.40499149 453.68391072 C729.40045307 458.9657611 729.40230647 464.24739941 729.42175293 469.52922058 C729.43942999 474.37244353 729.43835007 479.2153004 729.42285564 484.05852748 C729.42048646 485.80288789 729.42476697 487.54727396 729.43668429 489.29159527 C729.52548579 503.15751318 727.82712887 515.92924294 721.18147278 528.37698364 C720.83640686 529.0397229 720.49134094 529.70246216 720.13581848 530.38528442 C708.97694577 551.29455466 690.57583114 565.12672908 667.96833938 572.03205544 C655.20476398 574.99716284 642.24787601 574.55457471 629.21516856 574.51858767 C625.55637237 574.51182829 621.89761802 574.52256862 618.23883098 574.53098351 C611.8376332 574.54331437 605.43650875 574.54457839 599.03530312 574.53843307 C589.51622532 574.52931907 579.99721501 574.53739238 570.47814238 574.54872432 C553.47394463 574.56836823 536.4697774 574.57074305 519.465571 574.56552911 C504.58410838 574.56096843 489.70265783 574.56157551 474.8211956 574.56736946 C472.82348715 574.56812633 470.82577869 574.56888231 468.82807023 574.56963741 C465.81755744 574.57078262 462.80704464 574.5719325 459.79653185 574.57309665 C431.81609549 574.58379811 403.83566315 574.58853047 375.85522556 574.58062649 C374.80097421 574.58032931 373.74672286 574.58003214 372.6605245 574.57972596 C364.09975052 574.57727713 355.53897659 574.57466549 346.97820267 574.57204183 C313.58394483 574.56193873 280.18973728 574.57029744 246.79548645 574.59353638 C209.25878288 574.6196159 171.72210958 574.63245519 134.18539661 574.62534863 C130.18211965 574.62463258 126.17884269 574.6239582 122.17556572 574.62330818 C120.69705124 574.62305347 120.69705124 574.62305347 119.18866778 574.62279361 C104.31902024 574.62049203 89.44940083 574.62846083 74.5797596 574.64159966 C57.66761601 574.65651678 40.75553831 574.65734605 23.84339613 574.63952874 C14.38404679 574.62997297 4.92485116 574.63138588 -4.53448789 574.64876343 C-10.8597211 574.65926926 -17.18483749 574.65512961 -23.51005925 574.6392834 C-27.10943769 574.63066983 -30.70851544 574.62818169 -34.30787819 574.64355271 C-51.43314444 574.71167917 -67.83839896 574.76999154 -83.31852722 566.43948364 C-83.97200134 566.09989624 -84.62547546 565.76030884 -85.29875183 565.41043091 C-91.73016507 561.96197511 -97.47679345 557.82266147 -103.06852722 553.12698364 C-104.02952332 552.3361438 -104.02952332 552.3361438 -105.00993347 551.52932739 C-119.63012747 538.26599595 -128.07580912 517.26049111 -129.26628113 497.91311646 C-129.59135046 490.92268744 -129.78908059 483.93187467 -129.91081238 476.93508911 C-130.06241179 474.23586858 -130.50606949 471.76603755 -131.06852722 469.12698364 C-131.18913235 466.23246058 -131.18716535 463.67077071 -130.5690155 460.83743286 C-130.00089871 457.76073403 -129.93891603 454.88838725 -129.93571472 451.75979614 C-129.93442566 450.54421021 -129.9331366 449.32862427 -129.93180847 448.07620239 C-129.93567566 446.81421021 -129.93954285 445.55221802 -129.94352722 444.25198364 C-129.93966003 442.99772583 -129.93579285 441.74346802 -129.93180847 440.45120239 C-129.9380482 434.55466272 -130.13588444 428.94328317 -131.06852722 423.12698364 C-130.73852722 422.79698364 -130.40852722 422.46698364 -130.06852722 422.12698364 C-129.96782474 419.20068793 -129.92985387 416.30308025 -129.94352722 413.37698364 C-129.93772644 412.15881958 -129.93772644 412.15881958 -129.93180847 410.91604614 C-129.93717162 407.62307079 -129.97211114 404.59453562 -130.63883972 401.36135864 C-131.15984535 398.65212939 -130.64473578 396.81858801 -130.06852722 394.12698364 C-129.97644667 391.58664376 -129.93851341 389.04398687 -129.94352722 386.50198364 C-129.93966003 384.53358521 -129.93966003 384.53358521 -129.93571472 382.52542114 C-129.90985861 379.13808971 -129.90985861 379.13808971 -131.06852722 376.12698364 C-130.40852722 376.12698364 -129.74852722 376.12698364 -129.06852722 376.12698364 C-129.55336998 371.48111472 -129.55336998 371.48111472 -131.06852722 367.12698364 C-130.85583191 366.32260864 -130.85583191 366.32260864 -130.63883972 365.50198364 C-129.81268377 362.06155336 -129.92441649 358.64335884 -129.94352722 355.12698364 C-129.93966003 354.41542114 -129.93579285 353.70385864 -129.93180847 352.97073364 C-129.9382703 349.5071954 -130.21811188 346.46735383 -131.06852722 343.12698364 C-130.13102722 339.87698364 -130.13102722 339.87698364 -129.06852722 337.12698364 C-129.72852722 337.12698364 -130.38852722 337.12698364 -131.06852722 337.12698364 C-130.90481628 336.22335083 -130.74110535 335.31971802 -130.57243347 334.38870239 C-129.79304249 328.92746715 -129.96284509 323.4435446 -130.00602722 317.93948364 C-130.01053894 316.8598938 -130.01505066 315.78030396 -130.0196991 314.66799927 C-130.02838197 312.66969692 -130.03912729 310.67140163 -130.05265808 308.67312622 C-130.06625773 306.49111466 -130.06852722 304.30903758 -130.06852722 302.12698364 C-130.07979411 300.20901218 -130.09156483 298.29104366 -130.10368347 296.37307739 C-130.11297938 294.10354688 -130.12208703 291.83401559 -130.13102722 289.56448364 C-130.14359558 287.84068481 -130.14359558 287.84068481 -130.15641785 286.08206177 C-130.1596405 284.98184692 -130.16286316 283.88163208 -130.16618347 282.74807739 C-130.17142029 281.74188354 -130.1766571 280.7356897 -130.18205261 279.69900513 C-130.06852722 277.12698364 -130.06852722 277.12698364 -129.06852722 274.12698364 C-129.72852722 274.12698364 -130.38852722 274.12698364 -131.06852722 274.12698364 C-130.77555847 272.14130656 -130.48258972 270.15562948 -130.18962097 268.16995239 C-129.92947923 265.92444945 -129.92947923 265.92444945 -131.06852722 263.12698364 C-130.73852722 262.13698364 -130.40852722 261.14698364 -130.06852722 260.12698364 C-130.38886679 258.12486135 -130.721118 256.12458669 -131.06852722 254.12698364 C-130.73852722 253.79698364 -130.40852722 253.46698364 -130.06852722 253.12698364 C-129.96751115 250.67610511 -129.92882043 248.25406214 -129.93571472 245.80276489 C-129.934758 245.06374435 -129.93380127 244.32472382 -129.93281555 243.56330872 C-129.93213342 241.9937939 -129.93399 240.42427628 -129.93815613 238.85476685 C-129.9434662 236.4669243 -129.93823204 234.07927313 -129.93180847 231.69143677 C-129.93246999 230.16604573 -129.93375267 228.64065481 -129.93571472 227.11526489 C-129.93369049 226.40566116 -129.93166626 225.69605743 -129.92958069 224.96495056 C-129.94843264 220.91590634 -130.28736079 217.09991698 -131.06852722 213.12698364 C-130.40852722 213.12698364 -129.74852722 213.12698364 -129.06852722 213.12698364 C-130.05852722 210.65198364 -130.05852722 210.65198364 -131.06852722 208.12698364 C-130.40852722 208.12698364 -129.74852722 208.12698364 -129.06852722 208.12698364 C-129.30249207 207.23946411 -129.30249207 207.23946411 -129.54118347 206.33401489 C-130.65377051 201.81735361 -131.18097155 198.7003659 -130.06852722 194.12698364 C-130.3552714 192.11977441 -130.68719423 190.11838924 -131.06852722 188.12698364 C-131.06852722 184.12698364 -131.06852722 184.12698364 -130.56852722 181.25198364 C-129.36633525 173.33469078 -129.56363643 164.9739142 -131.06852722 157.12698364 C-130.40852722 157.12698364 -129.74852722 157.12698364 -129.06852722 157.12698364 C-129.41915222 156.05448364 -129.76977722 154.98198364 -130.13102722 153.87698364 C-131.05178554 150.19395036 -131.08749516 149.48957784 -130.06852722 146.12698364 C-129.8486265 142.27872095 -129.83687587 138.8219377 -131.06852722 135.12698364 C-130.75374669 133.12397982 -130.41758721 131.1242989 -130.06852722 129.12698364 C-130.00055905 126.84274341 -129.98354582 124.55665552 -130.00602722 122.27151489 C-130.01497604 120.92638248 -130.0237581 119.58124895 -130.03239441 118.2361145 C-130.04176025 117.18519119 -130.04176025 117.18519119 -130.05131531 116.11303711 C-130.48238556 61.67665995 -130.48238556 61.67665995 -121.06852722 44.12698364 C-120.32989441 42.71352661 -120.32989441 42.71352661 -119.57633972 41.27151489 C-109.95619141 23.78235126 -94.32357878 10.84399105 -75.16227722 4.84182739 C-64.24353074 1.69926682 -53.49314696 0.95105888 -42.19781017 0.57242012 C-40.96878839 0.53028726 -39.73976662 0.48815439 -38.47350175 0.44474477 C-25.64808908 0.03569306 -12.83075863 -0.01267374 0 0 Z M-71.56852722 55.56448364 C-72.34196472 56.30569458 -73.11540222 57.04690552 -73.91227722 57.81057739 C-92.16646343 77.42059989 -84.06852722 108.29484325 -84.06852722 132.12698364 C169.70147278 132.12698364 423.47147278 132.12698364 684.93147278 132.12698364 C688.53140367 93.65769056 688.53140367 93.65769056 674.85334778 57.80276489 C667.79865137 51.13040343 659.69475618 47.00639244 649.90235806 46.99818248 C648.88015079 46.99491028 647.85794352 46.99163809 646.80476028 46.98826674 C645.68121758 46.98975036 644.55767489 46.99123398 643.40008545 46.99276257 C642.20200829 46.99041034 641.00393113 46.98805811 639.76954859 46.9856346 C636.42799073 46.98010406 633.08648529 46.97907364 629.74492648 46.979912 C626.1155041 46.97974267 622.48609037 46.97383838 618.85667229 46.96867114 C611.65085791 46.95933683 604.44504968 46.9554217 597.23923001 46.95315218 C588.61092961 46.95019225 579.98263738 46.94149607 571.35434126 46.9327379 C550.49727708 46.91188361 529.64021147 46.90142206 508.78313929 46.89260829 C498.917998 46.88840309 489.05285732 46.88318093 479.18771654 46.87792376 C445.42458933 46.86003252 411.66146194 46.84503616 377.89833069 46.83760357 C375.77825276 46.83712881 373.65817483 46.83665292 371.5380969 46.83617591 C370.4867182 46.83593953 369.43533949 46.83570315 368.35210082 46.83545962 C363.02520527 46.83425841 357.69830973 46.83304296 352.37141418 46.83181763 C351.31427137 46.83157748 350.25712855 46.83133733 349.16795111 46.8310899 C314.8907612 46.8231965 280.6136059 46.79976434 246.3364311 46.76726168 C210.10502568 46.73296863 173.87364051 46.7132529 137.64221859 46.70995933 C133.66524187 46.70954178 129.68826516 46.70906222 125.71128845 46.70853615 C124.73202984 46.70841296 123.75277123 46.70828976 122.74383811 46.70816284 C106.98015914 46.70583013 91.21652033 46.69016617 75.45285568 46.6696943 C59.6089094 46.64944455 43.76501137 46.64395497 27.92105454 46.65346494 C18.50757137 46.65868324 9.09424881 46.65278685 -0.31921127 46.63093026 C-6.60914516 46.61742943 -12.89896839 46.61849283 -19.18890337 46.63133222 C-22.77160486 46.63823365 -26.35399913 46.63888243 -29.93667328 46.62177213 C-33.80139587 46.60346559 -37.66566907 46.61629675 -41.53041077 46.63199902 C-42.63522413 46.62177681 -43.74003749 46.6115546 -44.87833005 46.60102263 C-54.58536558 46.68713121 -64.4376147 48.51904438 -71.56852722 55.56448364 Z M-84.06852722 236.12698364 C-84.16674886 237.49987247 -84.19591622 238.87777592 -84.19716167 240.25417328 C-84.20038612 241.1493301 -84.20361057 242.04448691 -84.20693272 242.9667697 C-84.20538412 243.96158244 -84.20383552 244.95639518 -84.20223999 245.98135376 C-84.20450555 247.0294146 -84.2067711 248.07747544 -84.20910531 249.1572957 C-84.21547762 252.69863492 -84.21461387 256.23993618 -84.21379089 259.78128052 C-84.21678049 262.30866547 -84.22018255 264.83604996 -84.22396851 267.36343384 C-84.23191304 273.53525745 -84.23502422 279.70706697 -84.23558088 285.87889522 C-84.2360555 290.89738885 -84.23810752 295.91587932 -84.24128151 300.93437195 C-84.25009547 315.15995677 -84.2547001 329.38553403 -84.25395104 343.61112159 C-84.25391108 344.37883654 -84.25387112 345.14655148 -84.25382996 345.93753052 C-84.25378908 346.70618283 -84.25374819 347.47483515 -84.25370608 348.26677996 C-84.25330011 360.70871276 -84.26285528 373.15061522 -84.27696832 385.59253925 C-84.29134207 398.36514669 -84.29823785 411.13773936 -84.29737455 423.91035509 C-84.29704277 431.08205984 -84.2997811 438.25373284 -84.3105526 445.4254303 C-84.32062561 452.17555565 -84.32031191 458.92560296 -84.31303596 465.67573547 C-84.31199007 468.15207009 -84.31435331 470.62840887 -84.32039642 473.10473633 C-84.32811887 476.48881771 -84.32346953 479.87266794 -84.31576538 483.25674438 C-84.32090894 484.23371135 -84.32605251 485.21067832 -84.33135194 486.21725035 C-84.27179829 498.07954208 -81.38176399 506.63302759 -73.81852722 515.87698364 C-63.69870046 524.1568419 -54.99238186 526.43151421 -42.18361378 526.38425255 C-40.3838383 526.38951166 -40.3838383 526.38951166 -38.54770371 526.39487702 C-35.21509972 526.40258148 -31.88271631 526.40133812 -28.55012155 526.39632147 C-24.92524876 526.39305336 -21.30039929 526.40133863 -17.67553395 526.40813982 C-11.32161373 526.41844748 -4.96772399 526.42128229 1.38620377 526.4192276 C10.83490512 526.4161796 20.28357271 526.42449716 29.73226751 526.43497685 C47.58947229 526.45432891 65.44666561 526.45994553 83.30387964 526.46109097 C97.0936591 526.46200972 110.88343406 526.46612469 124.67321205 526.47249222 C128.64126819 526.47428728 132.60932433 526.47606691 136.57738048 526.47784197 C137.56382771 526.47828407 138.55027495 526.47872617 139.56661452 526.47918166 C167.31769512 526.49149191 195.06877415 526.4993826 222.8198576 526.4984951 C223.86635793 526.49846394 224.91285826 526.49843279 225.99107072 526.49840069 C231.29527627 526.49823447 236.59948183 526.49803639 241.90368738 526.49783127 C243.48386319 526.49777143 243.48386319 526.49777143 245.09596173 526.49771039 C247.22629622 526.49762952 249.35663071 526.49754592 251.4869652 526.49745961 C284.63148982 526.4962341 317.77597353 526.51124651 350.92048645 526.53860474 C388.15091908 526.56932284 425.38132482 526.58653739 462.61177093 526.58467829 C466.58139884 526.58452903 470.55102676 526.58443162 474.52065468 526.58436966 C475.49809064 526.58434635 476.4755266 526.58432304 477.48258183 526.58429903 C493.21540863 526.58423747 508.94819991 526.5970119 524.68101614 526.61423419 C540.49211367 526.63118423 556.30315923 526.63316944 572.11426082 526.62001555 C581.50776024 526.61262213 590.90110181 526.61629604 600.29458452 526.63590023 C606.57109687 526.64789265 612.84749479 526.64531737 619.12400187 526.63095923 C622.69898028 526.62318995 626.27365306 526.62166218 629.84861001 526.63787393 C633.70500689 526.6552085 637.56094612 526.64142069 641.41735363 526.62476158 C642.51970511 526.63469794 643.62205658 526.6446343 644.75781265 526.65487176 C655.17727908 526.55968073 664.81440518 524.07766352 672.89241028 517.24807739 C683.60645998 506.10300271 685.09618986 493.25217375 685.05172729 478.52212524 C685.05258172 477.47806755 685.05343614 476.43400985 685.05431646 475.35831404 C685.05595866 471.87298312 685.05047055 468.38770073 685.04499817 464.90237427 C685.044716 462.39876303 685.04487461 459.89515171 685.04544067 457.39154053 C685.04566812 452.00814698 685.04283856 446.62476842 685.03720284 441.24137878 C685.02905995 433.45799725 685.02646976 425.67462157 685.02521484 417.89123625 C685.02302871 405.26180757 685.0163805 392.63238537 685.00691223 380.00296021 C684.99772678 367.73798658 684.99065149 355.47301471 684.98640442 343.20803833 C684.9861417 342.45144324 684.98587897 341.69484815 684.98560829 340.91532594 C684.98430321 337.11953693 684.98303951 333.3237479 684.98179638 329.52795887 C684.97143741 298.06096242 684.95375644 266.59397402 684.93147278 235.12698364 C611.72683773 235.10985324 538.52220243 235.09395252 465.31756592 235.0846405 C463.69375535 235.08443342 463.69375535 235.08443342 462.03714054 235.08422215 C438.51361189 235.08122961 414.99008323 235.07845937 391.46655453 235.07591831 C379.93150449 235.07467092 368.39645445 235.07337437 356.86140442 235.072052 C355.71349599 235.07192124 354.56558756 235.07179048 353.38289403 235.07165576 C316.14049335 235.0673904 278.89809418 235.0598761 241.65569442 235.05068642 C203.40115061 235.04126408 165.14660763 235.03510058 126.89206267 235.03306865 C121.49541887 235.03278048 116.09877507 235.03245484 110.70213127 235.0321064 C109.63993913 235.03203898 108.57774698 235.03197155 107.48336719 235.03190209 C90.34859853 235.03071794 73.21383246 235.02607336 56.07906485 235.02015161 C38.87490087 235.01427911 21.67073945 235.01201195 4.4665745 235.01348227 C-5.76898227 235.0142459 -16.00452966 235.01218802 -26.24008474 235.0061861 C-33.06409513 235.00245613 -39.88809932 235.00230583 -46.71211012 235.00515183 C-50.60885947 235.00667198 -54.505591 235.00655481 -58.4023385 235.00210046 C-62.58535209 234.99735483 -66.76832417 235.00021686 -70.95133877 235.00393581 C-72.7956042 234.99999529 -72.7956042 234.99999529 -74.67712751 234.99597517 C-75.78023921 234.99822246 -76.88335092 235.00046975 -78.01989025 235.00278515 C-78.97807922 235.00262917 -79.9362682 235.00247318 -80.9234932 235.00231248 C-83.05061109 234.88743848 -83.05061109 234.88743848 -84.06852722 236.12698364 Z " fill="#000000" transform="translate(211.0685272216797,218.87301635742188)"/>
<path d="M0 0 C1.29357422 0.98226562 1.29357422 0.98226562 2.61328125 1.984375 C17.46910247 14.27566098 26.36177977 33.13632921 29 52 C30.95949928 73.60769115 25.90670982 94.39587337 12.234375 111.39453125 C11.49703125 112.25433594 10.7596875 113.11414063 10 114 C9.07960938 115.08861328 9.07960938 115.08861328 8.140625 116.19921875 C-3.58614359 128.95333245 -20.22386855 136.19753565 -37 139 C-37.89203125 139.15597656 -38.7840625 139.31195312 -39.703125 139.47265625 C-57.83441848 141.89201596 -75.67204912 136.48657521 -91 127 C-91.90363281 126.44957031 -92.80726563 125.89914062 -93.73828125 125.33203125 C-106.92209882 116.58633049 -114.95552946 103.32091642 -121 89 C-121.68255859 87.42798828 -121.68255859 87.42798828 -122.37890625 85.82421875 C-128.69115934 68.16310646 -126.85222099 45.50358188 -119.046875 28.7109375 C-109.84285861 9.87610557 -95.904296 -4.31083166 -76.07226562 -11.72021484 C-49.80317573 -20.50132634 -22.08999694 -16.82453928 0 0 Z " fill="#000000" transform="translate(726,561)"/>
<path d="M0 0 C1.14855469 0.88751953 1.14855469 0.88751953 2.3203125 1.79296875 C16.95452154 13.75018833 25.47015307 31.49276422 28 50 C29.97783169 71.69369071 25.51059558 92.40980876 11.76416016 109.63964844 C-0.8501739 124.61739045 -18.3514529 135.52820385 -38 138 C-57.63406089 139.62520663 -73.78357654 136.57663555 -91 127 C-89.74325117 123.22975351 -87.8413389 121.77819804 -85 119 C-69.86452577 103.82177019 -63.13722525 81.47896465 -62.625 60.5 C-62.87363319 49.38254444 -64.4623508 36.26316468 -69 26 C-69.66 25.67 -70.32 25.34 -71 25 C-71.72756914 23.31554193 -72.45078862 21.62895419 -73.14306641 19.9296875 C-76.97277185 11.30575821 -83.50243995 3.61806271 -91 -2 C-89.75803637 -5.72589088 -88.16630688 -6.23781426 -84.78320312 -7.95654297 C-84.07099609 -8.30088379 -83.35878906 -8.64522461 -82.625 -9 C-81.89474609 -9.35594238 -81.16449219 -9.71188477 -80.41210938 -10.07861328 C-74.71573106 -12.78752975 -69.22232594 -14.84865806 -63 -16 C-61.83597656 -16.2371875 -60.67195312 -16.474375 -59.47265625 -16.71875 C-37.5931781 -20.39083025 -16.9940695 -13.98074407 0 0 Z " fill="#010101" transform="translate(825,562)"/>
<path d="M0 0 C1.59581709 -0.00445668 1.59581709 -0.00445668 3.2238729 -0.0090034 C6.78880329 -0.01767508 10.35370004 -0.01919736 13.91864014 -0.02069092 C16.47469657 -0.02532014 19.03075231 -0.03034494 21.58680725 -0.03573608 C28.53111706 -0.04885123 35.47541582 -0.05534014 42.41973591 -0.05974674 C46.75868412 -0.06251304 51.09763013 -0.06675107 55.43657684 -0.07125092 C67.4585112 -0.08343983 79.48044379 -0.09374024 91.50238419 -0.09712601 C92.65561447 -0.09745536 92.65561447 -0.09745536 93.83214234 -0.09779136 C94.60276057 -0.09800964 95.3733788 -0.09822791 96.1673491 -0.09845281 C97.7288146 -0.09889627 99.2902801 -0.09934283 100.85174561 -0.09979248 C101.62627995 -0.10001391 102.40081429 -0.10023534 103.19881937 -0.10046348 C115.74647023 -0.10441075 128.29406299 -0.1218643 140.8416914 -0.145152 C153.73537344 -0.16888813 166.62902635 -0.18132887 179.52273059 -0.18249393 C186.75756926 -0.18340936 193.9923322 -0.18912846 201.22714996 -0.20731354 C208.03318197 -0.22436108 214.83904593 -0.22595029 221.64510155 -0.21717453 C224.14037396 -0.21640411 226.6356541 -0.22074744 229.13090706 -0.23063278 C232.54292701 -0.24335533 235.95443837 -0.23747331 239.36645508 -0.22705078 C240.34877145 -0.23510719 241.33108782 -0.24316359 242.34317136 -0.25146413 C249.17471166 -0.20281497 256.95281299 0.19692514 262.38393998 4.78500247 C266.06518314 8.73805024 268.39478491 12.78399984 268.46453857 18.30450439 C268.03768531 24.84958779 265.86260394 28.84268589 261.06219482 33.39044189 C254.98197991 37.4439185 248.54219277 37.66003278 241.43719482 38.14044189 C241.43719482 38.47044189 241.43719482 38.80044189 241.43719482 39.14044189 C233.77052816 39.14044189 226.10386149 39.14044189 218.43719482 39.14044189 C218.43719482 38.81044189 218.43719482 38.48044189 218.43719482 38.14044189 C217.02096267 38.08597143 215.60411292 38.04743682 214.18719482 38.01544189 C213.39828857 37.99223877 212.60938232 37.96903564 211.79656982 37.94512939 C209.22987541 38.1576041 207.64558813 38.85390084 205.43719482 40.14044189 C204.44719482 39.48044189 203.45719482 38.82044189 202.43719482 38.14044189 C199.69201162 37.89856539 199.69201162 37.89856539 196.74969482 38.01544189 C195.75582764 38.03348877 194.76196045 38.05153564 193.73797607 38.07012939 C192.97871826 38.09333252 192.21946045 38.11653564 191.43719482 38.14044189 C191.43719482 38.47044189 191.43719482 38.80044189 191.43719482 39.14044189 C187.14719482 39.14044189 182.85719482 39.14044189 178.43719482 39.14044189 C178.43719482 38.81044189 178.43719482 38.48044189 178.43719482 38.14044189 C175.46719482 38.14044189 172.49719482 38.14044189 169.43719482 38.14044189 C169.43719482 38.47044189 169.43719482 38.80044189 169.43719482 39.14044189 C164.43719482 39.14044189 159.43719482 39.14044189 154.43719482 39.14044189 C154.43719482 38.81044189 154.43719482 38.48044189 154.43719482 38.14044189 C148.82719482 38.14044189 143.21719482 38.14044189 137.43719482 38.14044189 C137.43719482 38.47044189 137.43719482 38.80044189 137.43719482 39.14044189 C132.46656362 40.05341497 128.40782603 40.05341497 123.43719482 39.14044189 C123.43719482 38.81044189 123.43719482 38.48044189 123.43719482 38.14044189 C121.78719482 37.81044189 120.13719482 37.48044189 118.43719482 37.14044189 C118.43719482 37.80044189 118.43719482 38.46044189 118.43719482 39.14044189 C117.85915226 38.97870515 117.2811097 38.8169684 116.68555069 38.65033054 C113.01460906 37.81782378 109.28526212 37.96061771 105.53778076 37.93511963 C104.63986816 37.92522003 103.74195557 37.91532043 102.8168335 37.90512085 C99.85177234 37.87355779 96.88669517 37.84876891 93.92156982 37.82403564 C91.86461981 37.80346164 89.80767398 37.78246505 87.75073242 37.76106262 C82.33879996 37.70588812 76.92682964 37.65645843 71.51483154 37.60821533 C65.99152255 37.55796659 60.4682685 37.50229813 54.94500732 37.44708252 C44.10911676 37.33955745 33.27317849 37.2380999 22.43719482 37.14044189 C22.43719482 37.80044189 22.43719482 38.46044189 22.43719482 39.14044189 C21.86195068 38.97745605 21.28670654 38.81447021 20.69403076 38.64654541 C18.48011375 38.15006662 16.59045686 38.02564445 14.32781982 38.04278564 C13.19666748 38.04761963 13.19666748 38.04761963 12.04266357 38.05255127 C11.26535889 38.06093018 10.4880542 38.06930908 9.68719482 38.07794189 C8.89442139 38.08245361 8.10164795 38.08696533 7.28485107 38.09161377 C5.33559974 38.10335625 3.38638744 38.12129044 1.43719482 38.14044189 C1.43719482 38.47044189 1.43719482 38.80044189 1.43719482 39.14044189 C-0.87280518 39.14044189 -3.18280518 39.14044189 -5.56280518 39.14044189 C-5.56280518 38.81044189 -5.56280518 38.48044189 -5.56280518 38.14044189 C-6.26405518 38.05407471 -6.96530518 37.96770752 -7.68780518 37.87872314 C-15.32751607 36.74729857 -21.13254052 34.79201395 -26.50030518 29.07794189 C-28.90917241 24.68530164 -29.07174989 20.08183239 -28.56280518 15.14044189 C-26.65939368 9.22984829 -23.87389931 5.27663166 -18.62530518 1.89044189 C-12.61193937 -0.29623658 -6.30385286 -0.00551045 0 0 Z " fill="#010101" transform="translate(195.56280517578125,543.8595581054688)"/>
<path d="M0 0 C0.33 0 0.66 0 1 0 C1 142.56 1 285.12 1 432 C0.67 432 0.34 432 0 432 C-0.02505615 431.20827393 -0.0501123 430.41654785 -0.07592773 429.60083008 C-0.19215729 426.00456637 -0.31476176 422.4085472 -0.4375 418.8125 C-0.49647461 416.94368164 -0.49647461 416.94368164 -0.55664062 415.03710938 C-0.59853516 413.83505859 -0.64042969 412.63300781 -0.68359375 411.39453125 C-0.72025146 410.28956299 -0.75690918 409.18459473 -0.79467773 408.04614258 C-0.98183755 405.26945644 -1.42068218 402.71575151 -2 400 C-2.12060513 397.10547694 -2.11863813 394.54378707 -1.50048828 391.71044922 C-0.93237149 388.63375038 -0.87038881 385.76140361 -0.8671875 382.6328125 C-0.86589844 381.41722656 -0.86460938 380.20164062 -0.86328125 378.94921875 C-0.86714844 377.68722656 -0.87101562 376.42523437 -0.875 375.125 C-0.87113281 373.87074219 -0.86726563 372.61648438 -0.86328125 371.32421875 C-0.86952097 365.42767908 -1.06735722 359.81629953 -2 354 C-1.67 353.67 -1.34 353.34 -1 353 C-0.89929752 350.07370428 -0.86132665 347.17609661 -0.875 344.25 C-0.86919922 343.03183594 -0.86919922 343.03183594 -0.86328125 341.7890625 C-0.8686444 338.49608715 -0.90358392 335.46755197 -1.5703125 332.234375 C-2.09131813 329.52514575 -1.57620856 327.69160437 -1 325 C-0.90791945 322.45966012 -0.86998619 319.91700323 -0.875 317.375 C-0.87113281 315.40660156 -0.87113281 315.40660156 -0.8671875 313.3984375 C-0.84133139 310.01110606 -0.84133139 310.01110606 -2 307 C-1.34 307 -0.68 307 0 307 C-0.48484276 302.35413108 -0.48484276 302.35413108 -2 298 C-1.78730469 297.195625 -1.78730469 297.195625 -1.5703125 296.375 C-0.74415654 292.93456972 -0.85588927 289.5163752 -0.875 286 C-0.87113281 285.2884375 -0.86726563 284.576875 -0.86328125 283.84375 C-0.86974308 280.38021176 -1.14958465 277.34037019 -2 274 C-1.0625 270.75 -1.0625 270.75 0 268 C-0.66 268 -1.32 268 -2 268 C-1.83628906 267.09636719 -1.67257813 266.19273437 -1.50390625 265.26171875 C-0.72451526 259.80048351 -0.89431787 254.31656096 -0.9375 248.8125 C-0.94201172 247.73291016 -0.94652344 246.65332031 -0.95117188 245.54101562 C-0.95985475 243.54271327 -0.97060007 241.54441798 -0.98413086 239.54614258 C-0.99773051 237.36413102 -1 235.18205394 -1 233 C-1.01126689 231.08202854 -1.02303761 229.16406002 -1.03515625 227.24609375 C-1.04445216 224.97656324 -1.05355981 222.70703194 -1.0625 220.4375 C-1.07087891 219.28830078 -1.07925781 218.13910156 -1.08789062 216.95507812 C-1.09111328 215.85486328 -1.09433594 214.75464844 -1.09765625 213.62109375 C-1.10289307 212.6148999 -1.10812988 211.60870605 -1.11352539 210.57202148 C-1 208 -1 208 0 205 C-0.66 205 -1.32 205 -2 205 C-1.70703125 203.01432292 -1.4140625 201.02864583 -1.12109375 199.04296875 C-0.86095201 196.7974658 -0.86095201 196.7974658 -2 194 C-1.67 193.01 -1.34 192.02 -1 191 C-1.32033957 188.99787771 -1.65259077 186.99760305 -2 185 C-1.67 184.67 -1.34 184.34 -1 184 C-0.89898393 181.54912147 -0.86029321 179.1270785 -0.8671875 176.67578125 C-0.86623077 175.93676071 -0.86527405 175.19774017 -0.86428833 174.43632507 C-0.8636062 172.86681026 -0.86546278 171.29729264 -0.86962891 169.7277832 C-0.87493898 167.33994066 -0.86970481 164.95228948 -0.86328125 162.56445312 C-0.86394277 161.03906209 -0.86522545 159.51367117 -0.8671875 157.98828125 C-0.86516327 157.27867752 -0.86313904 156.56907379 -0.86105347 155.83796692 C-0.87990542 151.7889227 -1.21883357 147.97293334 -2 144 C-1.34 144 -0.68 144 0 144 C-0.99 141.525 -0.99 141.525 -2 139 C-1.34 139 -0.68 139 0 139 C-0.23396484 138.11248047 -0.23396484 138.11248047 -0.47265625 137.20703125 C-1.58524329 132.69036997 -2.11244433 129.57338226 -1 125 C-1.28674418 122.99279077 -1.61866701 120.9914056 -2 119 C-2 115 -2 115 -1.5 112.125 C-0.29780803 104.20770714 -0.49510921 95.84693056 -2 88 C-1.34 88 -0.68 88 0 88 C-0.350625 86.9275 -0.70125 85.855 -1.0625 84.75 C-1.98325832 81.06696671 -2.01896794 80.3625942 -1 77 C-0.78009927 73.1517373 -0.76834865 69.69495406 -2 66 C-1.68521947 63.99699617 -1.34905999 61.99731526 -1 60 C-0.93203183 57.71575977 -0.9150186 55.42967188 -0.9375 53.14453125 C-0.94607297 51.7980964 -0.95453175 50.45166081 -0.96289062 49.10522461 C-0.97219604 48.0540596 -0.97219604 48.0540596 -0.98168945 46.98165894 C-1.11410078 31.29555066 -0.73591028 15.67136608 0 0 Z " fill="#131313" transform="translate(82,288)"/>
<path d="M0 0 C87.45 0 174.9 0 265 0 C265 0.33 265 0.66 265 1 C261.37 1.33 257.74 1.66 254 2 C254 2.33 254 2.66 254 3 C246.33333333 3 238.66666667 3 231 3 C231 2.67 231 2.34 231 2 C229.58376784 1.94552953 228.16691809 1.90699492 226.75 1.875 C225.56664062 1.84019531 225.56664062 1.84019531 224.359375 1.8046875 C221.79268059 2.0171622 220.2083933 2.71345895 218 4 C217.01 3.34 216.02 2.68 215 2 C212.25481679 1.75812349 212.25481679 1.75812349 209.3125 1.875 C208.31863281 1.89304687 207.32476562 1.91109375 206.30078125 1.9296875 C205.54152344 1.95289063 204.78226563 1.97609375 204 2 C204 2.33 204 2.66 204 3 C199.71 3 195.42 3 191 3 C191 2.67 191 2.34 191 2 C188.03 2 185.06 2 182 2 C182 2.33 182 2.66 182 3 C177 3 172 3 167 3 C167 2.67 167 2.34 167 2 C161.39 2 155.78 2 150 2 C150 2.33 150 2.66 150 3 C145.02936879 3.91297308 140.97063121 3.91297308 136 3 C136 2.67 136 2.34 136 2 C134.35 1.67 132.7 1.34 131 1 C131 1.66 131 2.32 131 3 C130.42195744 2.83826325 129.84391487 2.67652651 129.24835587 2.50988865 C125.57741423 1.67738188 121.84806729 1.82017581 118.10058594 1.79467773 C117.20267334 1.78477814 116.30476074 1.77487854 115.37963867 1.76467896 C112.41457752 1.73311589 109.44950034 1.70832701 106.484375 1.68359375 C104.42742499 1.66301974 102.37047916 1.64202315 100.3135376 1.62062073 C94.90160514 1.56544622 89.48963481 1.51601653 84.07763672 1.46777344 C78.55432773 1.4175247 73.03107368 1.36185623 67.5078125 1.30664062 C56.67192194 1.19911556 45.83598366 1.09765801 35 1 C35 1.66 35 2.32 35 3 C34.42475586 2.83701416 33.84951172 2.67402832 33.25683594 2.50610352 C31.04291893 2.00962472 29.15326203 1.88520256 26.890625 1.90234375 C25.75947266 1.90717773 25.75947266 1.90717773 24.60546875 1.91210938 C23.82816406 1.92048828 23.05085938 1.92886719 22.25 1.9375 C21.45722656 1.94201172 20.66445312 1.94652344 19.84765625 1.95117188 C17.89840492 1.96291435 15.94919262 1.98084854 14 2 C14 2.33 14 2.66 14 3 C11.69 3 9.38 3 7 3 C7 2.67 7 2.34 7 2 C4.69 1.67 2.38 1.34 0 1 C0 0.67 0 0.34 0 0 Z " fill="#181919" transform="translate(183,580)"/>
<path d="M0 0 C10.89 0 21.78 0 33 0 C32.67 1.32 32.34 2.64 32 4 C29.525 3.505 29.525 3.505 27 3 C27.66 4.32 28.32 5.64 29 7 C26 6 26 6 25 5 C25 5.99 25 6.98 25 8 C24.21625 7.95875 23.4325 7.9175 22.625 7.875 C19.83883881 7.71271266 19.83883881 7.71271266 18 10 C16.33333333 11.66666667 14.66666667 13.33333333 13 15 C12.01 14.67 11.02 14.34 10 14 C9.67 14 9.34 14 9 14 C8.67 14.66 8.34 15.32 8 16 C5.36 16 2.72 16 0 16 C0 10.72 0 5.44 0 0 Z M14 9 C13.67 9.66 13.34 10.32 13 11 C13.66 11 14.32 11 15 11 C14.67 10.34 14.34 9.68 14 9 Z M10 10 C10.66 10.66 11.32 11.32 12 12 C12 11.34 12 10.68 12 10 C11.34 10 10.68 10 10 10 Z " fill="#BDBDBE" transform="translate(0,0)"/>
<path d="M0 0 C0 6.6 0 13.2 0 20 C-4 15 -4 15 -4 12 C-3.34 12 -2.68 12 -2 12 C-2.7425 11.071875 -2.7425 11.071875 -3.5 10.125 C-5 8 -5 8 -5 6 C-5.66 6.66 -6.32 7.32 -7 8 C-9.625 7.625 -9.625 7.625 -12 7 C-11.67 5.02 -11.34 3.04 -11 1 C-8 0 -8 0 0 0 Z M-8 1 C-7 3 -7 3 -7 3 Z " fill="#C3C4C4" transform="translate(1024,0)"/>
<path d="M0 0 C0.66 0.33 1.32 0.66 2 1 C-2.62 5.62 -7.24 10.24 -12 15 C-12 10.81257912 -9.7797863 8.86923487 -7 6 C-4.72436307 3.92653743 -2.388922 1.9414294 0 0 Z " fill="#0E0E0E" transform="translate(630,560)"/>
<path d="M0 0 C3.96 0 7.92 0 12 0 C12 0.33 12 0.66 12 1 C8.04 1 4.08 1 0 1 C0 0.67 0 0.34 0 0 Z " fill="#0C0C0C" transform="translate(334,582)"/>
<path d="M0 0 C3.3 0 6.6 0 10 0 C10 0.33 10 0.66 10 1 C6.7 1 3.4 1 0 1 C0 0.67 0 0.34 0 0 Z " fill="#0C0C0C" transform="translate(270,582)"/>
<path d="M0 0 C3.3 0 6.6 0 10 0 C10 0.33 10 0.66 10 1 C6.7 1 3.4 1 0 1 C0 0.67 0 0.34 0 0 Z " fill="#0E0E0D" transform="translate(227,582)"/>
<path d="M0 0 C2.97 0 5.94 0 9 0 C9 0.33 9 0.66 9 1 C6.03 1 3.06 1 0 1 C0 0.67 0 0.34 0 0 Z " fill="#0E0E0E" transform="translate(438,582)"/>
<path d="M0 0 C0.99 0.33 1.98 0.66 3 1 C3.33 1.99 3.66 2.98 4 4 C3.01 3.67 2.02 3.34 1 3 C0.67 2.01 0.34 1.02 0 0 Z " fill="#B5B6B6" transform="translate(21,8)"/>
<path d="M0 0 C2.31 0 4.62 0 7 0 C7 0.33 7 0.66 7 1 C4.69 1 2.38 1 0 1 C0 0.67 0 0.34 0 0 Z " fill="#0D0D0D" transform="translate(406,582)"/>
<path d="M0 0 C2.31 0 4.62 0 7 0 C7 0.33 7 0.66 7 1 C4.69 1 2.38 1 0 1 C0 0.67 0 0.34 0 0 Z " fill="#0D0D0C" transform="translate(366,582)"/>
<path d="M0 0 C2.31 0 4.62 0 7 0 C7 0.33 7 0.66 7 1 C4.69 1 2.38 1 0 1 C0 0.67 0 0.34 0 0 Z " fill="#0D0D0D" transform="translate(294,582)"/>
<path d="M0 0 C2.31 0 4.62 0 7 0 C7 0.33 7 0.66 7 1 C4.69 1 2.38 1 0 1 C0 0.67 0 0.34 0 0 Z " fill="#0D0D0D" transform="translate(262,582)"/>
<path d="M0 0 C2.31 0 4.62 0 7 0 C7 0.33 7 0.66 7 1 C4.69 1 2.38 1 0 1 C0 0.67 0 0.34 0 0 Z " fill="#0D0C0C" transform="translate(246,582)"/>
<path d="M0 0 C2.31 0 4.62 0 7 0 C7 0.33 7 0.66 7 1 C4.69 1 2.38 1 0 1 C0 0.67 0 0.34 0 0 Z " fill="#0E0D0D" transform="translate(219,582)"/>
<path d="M0 0 C1.98 0 3.96 0 6 0 C5.01 0.66 4.02 1.32 3 2 C2.01 1.34 1.02 0.68 0 0 Z " fill="#0E0E0E" transform="translate(207,582)"/>
<path d="M0 0 C2.31 0 4.62 0 7 0 C7 0.33 7 0.66 7 1 C4.69 1 2.38 1 0 1 C0 0.67 0 0.34 0 0 Z " fill="#0F0E0E" transform="translate(198,582)"/>
<path d="M0 0 C0.33 0.66 0.66 1.32 1 2 C1.99 2 2.98 2 4 2 C3.67 2.66 3.34 3.32 3 4 C2.01 3.67 1.02 3.34 0 3 C0 2.01 0 1.02 0 0 Z " fill="#C0C1C1" transform="translate(1015,9)"/>
<path d="M0 0 C1.98 0 3.96 0 6 0 C6 0.33 6 0.66 6 1 C4.02 1 2.04 1 0 1 C0 0.67 0 0.34 0 0 Z " fill="#0D0D0D" transform="translate(391,582)"/>
<path d="M0 0 C0.66 1.32 1.32 2.64 2 4 C1.01 4.495 1.01 4.495 0 5 C0 3.35 0 1.7 0 0 Z " fill="#BFC0C1" transform="translate(1007,0)"/>
<path d="M0 0 C0.33 0 0.66 0 1 0 C1 1.65 1 3.3 1 5 C0.67 5 0.34 5 0 5 C0 3.35 0 1.7 0 0 Z " fill="#121313" transform="translate(80,705)"/>
<path d="M0 0 C0.66 0.66 1.32 1.32 2 2 C1.01 2 0.02 2 -1 2 C-0.67 1.34 -0.34 0.68 0 0 Z " fill="#B7B7B8" transform="translate(17,10)"/>
<path d="M0 0 C0.33 0.66 0.66 1.32 1 2 C1.66 2.33 2.32 2.66 3 3 C2.01 3 1.02 3 0 3 C0 2.01 0 1.02 0 0 Z " fill="#BDBEBF" transform="translate(1006,5)"/>
<path d="M0 0 C0.99 0.33 1.98 0.66 3 1 C2.01 1 1.02 1 0 1 C0 0.67 0 0.34 0 0 Z " fill="#131212" transform="translate(642,693)"/>
<path d="M0 0 C4 1 4 1 4 1 Z " fill="#0C0C0C" transform="translate(302,582)"/>
<path d="M0 0 C4 1 4 1 4 1 Z " fill="#0D0C0C" transform="translate(254,582)"/>
<path d="M0 0 C4 1 4 1 4 1 Z " fill="#0D0D0D" transform="translate(238,582)"/>
<path d="M0 0 C4 1 4 1 4 1 Z " fill="#11100F" transform="translate(185,582)"/>
<path d="M0 0 C4 1 4 1 4 1 Z " fill="#10100F" transform="translate(584,455)"/>
<path d="" fill="#171414" transform="translate(0,0)"/>
<path d="" fill="#121111" transform="translate(0,0)"/>
<path d="M0 0 C3 1 3 1 3 1 Z " fill="#0D0D0C" transform="translate(287,582)"/>
<path d="M0 0 C3 1 3 1 3 1 Z " fill="#0E0F0F" transform="translate(643,455)"/>
<path d="M0 0 C3 1 3 1 3 1 Z " fill="#0F0D0F" transform="translate(580,455)"/>
<path d="M0 0 C3 1 3 1 3 1 Z " fill="#10100F" transform="translate(821,267)"/>
<path d="M0 0 C3 1 3 1 3 1 Z " fill="#0F0E0D" transform="translate(725,267)"/>
<path d="M0 0 C3 1 3 1 3 1 Z " fill="#0F0E0F" transform="translate(701,267)"/>
<path d="M0 0 C3 1 3 1 3 1 Z " fill="#0F0F0E" transform="translate(413,267)"/>
<path d="M0 0 C3 1 3 1 3 1 Z " fill="#121111" transform="translate(173,267)"/>
<path d="M0 0 C3 1 3 1 3 1 Z " fill="#141412" transform="translate(158,267)"/>
<path d="M0 0 C2 1 2 1 2 1 Z " fill="#131311" transform="translate(675,702)"/>
<path d="M0 0 C2 1 2 1 2 1 Z " fill="#131413" transform="translate(779,701)"/>
<path d="M0 0 C2 1 2 1 2 1 Z " fill="#131110" transform="translate(768,701)"/>
<path d="M0 0 C2 1 2 1 2 1 Z " fill="#151413" transform="translate(683,701)"/>
<path d="" fill="#161411" transform="translate(0,0)"/>
<path d="M0 0 C2 1 2 1 2 1 Z " fill="#0D0C0D" transform="translate(347,582)"/>
<path d="M0 0 C2 1 2 1 2 1 Z " fill="#0D0D0C" transform="translate(315,582)"/>
<path d="M0 0 C2 1 2 1 2 1 Z " fill="#0D0D0D" transform="translate(307,582)"/>
<path d="M0 0 C2 1 2 1 2 1 Z " fill="#0D0D0C" transform="translate(291,582)"/>
<path d="M0 0 C2 1 2 1 2 1 Z " fill="#0E0D0E" transform="translate(283,582)"/>
<path d="M0 0 C2 1 2 1 2 1 Z " fill="#0E0D0E" transform="translate(259,582)"/>
<path d="M0 0 C2 1 2 1 2 1 Z " fill="#0D0E0E" transform="translate(243,582)"/>
<path d="M0 0 C2 1 2 1 2 1 Z " fill="#101010" transform="translate(664,544)"/>
<path d="M0 0 C2 1 2 1 2 1 Z " fill="#141312" transform="translate(176,544)"/>
<path d="M0 0 C2 1 2 1 2 1 Z " fill="#0F0D0F" transform="translate(624,455)"/>
<path d="M0 0 C2 1 2 1 2 1 Z " fill="#0E0E0D" transform="translate(616,455)"/>
<path d="M0 0 C2 1 2 1 2 1 Z " fill="#0F100F" transform="translate(493,455)"/>
<path d="M0 0 C2 1 2 1 2 1 Z " fill="#110F10" transform="translate(420,455)"/>
<path d="M0 0 C2 1 2 1 2 1 Z " fill="#10110F" transform="translate(405,455)"/>
<path d="M0 0 C2 1 2 1 2 1 Z " fill="#10100F" transform="translate(402,455)"/>
<path d="M0 0 C2 1 2 1 2 1 Z " fill="#0F0F0D" transform="translate(357,455)"/>
<path d="" fill="#111010" transform="translate(0,0)"/>
<path d="M0 0 C2 1 2 1 2 1 Z " fill="#111110" transform="translate(853,267)"/>
<path d="M0 0 C2 1 2 1 2 1 Z " fill="#0F0F0F" transform="translate(813,267)"/>
<path d="M0 0 C2 1 2 1 2 1 Z " fill="#10100E" transform="translate(805,267)"/>
<path d="M0 0 C2 1 2 1 2 1 Z " fill="#10100F" transform="translate(790,267)"/>
<path d="M0 0 C2 1 2 1 2 1 Z " fill="#100F0F" transform="translate(773,267)"/>
<path d="M0 0 C2 1 2 1 2 1 Z " fill="#0F0E0F" transform="translate(765,267)"/>
<path d="M0 0 C2 1 2 1 2 1 Z " fill="#100F0E" transform="translate(717,267)"/>
<path d="M0 0 C2 1 2 1 2 1 Z " fill="#0F0F0E" transform="translate(685,267)"/>
<path d="M0 0 C2 1 2 1 2 1 Z " fill="#0F0F0D" transform="translate(677,267)"/>
<path d="M0 0 C2 1 2 1 2 1 Z " fill="#0F100E" transform="translate(669,267)"/>
<path d="M0 0 C2 1 2 1 2 1 Z " fill="#0F0E0E" transform="translate(653,267)"/>
<path d="M0 0 C2 1 2 1 2 1 Z " fill="#0E0E0E" transform="translate(630,267)"/>
<path d="M0 0 C2 1 2 1 2 1 Z " fill="#0F0E0C" transform="translate(605,267)"/>
<path d="M0 0 C2 1 2 1 2 1 Z " fill="#0F0E0D" transform="translate(597,267)"/>
<path d="M0 0 C2 1 2 1 2 1 Z " fill="#0F0F0F" transform="translate(589,267)"/>
<path d="M0 0 C2 1 2 1 2 1 Z " fill="#0E0E0D" transform="translate(581,267)"/>
<path d="M0 0 C2 1 2 1 2 1 Z " fill="#0F0F0D" transform="translate(573,267)"/>
<path d="M0 0 C2 1 2 1 2 1 Z " fill="#0F0E0D" transform="translate(565,267)"/>
<path d="M0 0 C2 1 2 1 2 1 Z " fill="#0F0F0E" transform="translate(557,267)"/>
<path d="M0 0 C2 1 2 1 2 1 Z " fill="#0F0E0E" transform="translate(541,267)"/>
<path d="M0 0 C2 1 2 1 2 1 Z " fill="#0F100E" transform="translate(533,267)"/>
<path d="M0 0 C2 1 2 1 2 1 Z " fill="#0F0D0E" transform="translate(493,267)"/>
<path d="M0 0 C2 1 2 1 2 1 Z " fill="#0F0E0E" transform="translate(485,267)"/>
<path d="M0 0 C2 1 2 1 2 1 Z " fill="#0F100D" transform="translate(477,267)"/>
<path d="M0 0 C2 1 2 1 2 1 Z " fill="#100E0E" transform="translate(453,267)"/>
<path d="M0 0 C2 1 2 1 2 1 Z " fill="#100F0D" transform="translate(421,267)"/>
<path d="M0 0 C2 1 2 1 2 1 Z " fill="#100E0D" transform="translate(405,267)"/>
<path d="M0 0 C2 1 2 1 2 1 Z " fill="#0F0D0D" transform="translate(397,267)"/>
<path d="M0 0 C2 1 2 1 2 1 Z " fill="#0E0E0E" transform="translate(389,267)"/>
<path d="M0 0 C2 1 2 1 2 1 Z " fill="#0F0E0D" transform="translate(381,267)"/>
<path d="M0 0 C2 1 2 1 2 1 Z " fill="#0E0F0E" transform="translate(373,267)"/>
<path d="M0 0 C2 1 2 1 2 1 Z " fill="#0F0F0E" transform="translate(365,267)"/>
<path d="M0 0 C2 1 2 1 2 1 Z " fill="#100F0E" transform="translate(357,267)"/>
<path d="M0 0 C2 1 2 1 2 1 Z " fill="#0E0E0E" transform="translate(341,267)"/>
<path d="M0 0 C2 1 2 1 2 1 Z " fill="#0F0F0E" transform="translate(333,267)"/>
<path d="M0 0 C2 1 2 1 2 1 Z " fill="#0E0E0E" transform="translate(325,267)"/>
<path d="M0 0 C2 1 2 1 2 1 Z " fill="#0E0E0E" transform="translate(317,267)"/>
<path d="M0 0 C2 1 2 1 2 1 Z " fill="#0E0E0D" transform="translate(309,267)"/>
<path d="M0 0 C2 1 2 1 2 1 Z " fill="#0F0F0E" transform="translate(301,267)"/>
<path d="M0 0 C2 1 2 1 2 1 Z " fill="#0F0E0F" transform="translate(293,267)"/>
<path d="M0 0 C2 1 2 1 2 1 Z " fill="#0F0F0F" transform="translate(285,267)"/>
<path d="M0 0 C2 1 2 1 2 1 Z " fill="#100E0D" transform="translate(277,267)"/>
<path d="M0 0 C2 1 2 1 2 1 Z " fill="#0F0F0E" transform="translate(261,267)"/>
<path d="M0 0 C2 1 2 1 2 1 Z " fill="#11100F" transform="translate(245,267)"/>
<path d="M0 0 C2 1 2 1 2 1 Z " fill="#110F0F" transform="translate(237,267)"/>
<path d="M0 0 C2 1 2 1 2 1 Z " fill="#111110" transform="translate(205,267)"/>
<path d="M0 0 C2 1 2 1 2 1 Z " fill="#121210" transform="translate(197,267)"/>
<path d="M0 0 C2 1 2 1 2 1 Z " fill="#121010" transform="translate(189,267)"/>
<path d="M0 0 C2 1 2 1 2 1 Z " fill="#121110" transform="translate(181,267)"/>
<path d="M0 0 C2 1 2 1 2 1 Z " fill="#141111" transform="translate(165,267)"/>
<path d="M0 0 C2 1 2 1 2 1 Z " fill="#B5B6B8" transform="translate(15,13)"/>
<path d="" fill="#B6B7B7" transform="translate(0,0)"/>
<path d="" fill="#C1C1C0" transform="translate(0,0)"/>
<path d="M0 0 C2 1 2 1 2 1 Z " fill="#B7B8B8" transform="translate(28,4)"/>
<path d="" fill="#BFC0C1" transform="translate(0,0)"/>
<path d="" fill="#A1A2A3" transform="translate(0,0)"/>
<path d="" fill="#A1A0A1" transform="translate(0,0)"/>
<path d="" fill="#121111" transform="translate(0,0)"/>
<path d="" fill="#161514" transform="translate(0,0)"/>
<path d="" fill="#151415" transform="translate(0,0)"/>
<path d="" fill="#141414" transform="translate(0,0)"/>
<path d="" fill="#161513" transform="translate(0,0)"/>
<path d="" fill="#151313" transform="translate(0,0)"/>
<path d="" fill="#181413" transform="translate(0,0)"/>
<path d="" fill="#131312" transform="translate(0,0)"/>
<path d="" fill="#1B1A17" transform="translate(0,0)"/>
<path d="" fill="#131313" transform="translate(0,0)"/>
<path d="" fill="#11110F" transform="translate(0,0)"/>
<path d="" fill="#141515" transform="translate(0,0)"/>
<path d="" fill="#191617" transform="translate(0,0)"/>
<path d="" fill="#151314" transform="translate(0,0)"/>
<path d="" fill="#151613" transform="translate(0,0)"/>
<path d="" fill="#121311" transform="translate(0,0)"/>
<path d="" fill="#151314" transform="translate(0,0)"/>
<path d="" fill="#101111" transform="translate(0,0)"/>
<path d="" fill="#151312" transform="translate(0,0)"/>
<path d="" fill="#151413" transform="translate(0,0)"/>
<path d="" fill="#141211" transform="translate(0,0)"/>
<path d="" fill="#141413" transform="translate(0,0)"/>
<path d="" fill="#131312" transform="translate(0,0)"/>
<path d="" fill="#141414" transform="translate(0,0)"/>
<path d="" fill="#121111" transform="translate(0,0)"/>
<path d="" fill="#11100E" transform="translate(0,0)"/>
<path d="" fill="#11100F" transform="translate(0,0)"/>
<path d="" fill="#111010" transform="translate(0,0)"/>
<path d="" fill="#121312" transform="translate(0,0)"/>
<path d="" fill="#110F0D" transform="translate(0,0)"/>
<path d="" fill="#151212" transform="translate(0,0)"/>
<path d="" fill="#0F100F" transform="translate(0,0)"/>
<path d="" fill="#0E0F0B" transform="translate(0,0)"/>
<path d="" fill="#121111" transform="translate(0,0)"/>
<path d="" fill="#0E0D0C" transform="translate(0,0)"/>
<path d="" fill="#0D0C0D" transform="translate(0,0)"/>
<path d="" fill="#131313" transform="translate(0,0)"/>
<path d="" fill="#151413" transform="translate(0,0)"/>
<path d="" fill="#161513" transform="translate(0,0)"/>
<path d="" fill="#131112" transform="translate(0,0)"/>
<path d="" fill="#0E0F10" transform="translate(0,0)"/>
<path d="" fill="#131112" transform="translate(0,0)"/>
<path d="" fill="#12100F" transform="translate(0,0)"/>
<path d="" fill="#111010" transform="translate(0,0)"/>
<path d="" fill="#0E0E0F" transform="translate(0,0)"/>
<path d="" fill="#131211" transform="translate(0,0)"/>
<path d="" fill="#0F0E11" transform="translate(0,0)"/>
<path d="" fill="#111110" transform="translate(0,0)"/>
<path d="" fill="#111110" transform="translate(0,0)"/>
<path d="" fill="#12100F" transform="translate(0,0)"/>
<path d="" fill="#100F10" transform="translate(0,0)"/>
<path d="" fill="#0E100E" transform="translate(0,0)"/>
<path d="" fill="#111011" transform="translate(0,0)"/>
<path d="" fill="#111010" transform="translate(0,0)"/>
<path d="" fill="#0F100E" transform="translate(0,0)"/>
<path d="" fill="#111011" transform="translate(0,0)"/>
<path d="" fill="#100E0D" transform="translate(0,0)"/>
<path d="" fill="#0E0E0F" transform="translate(0,0)"/>
<path d="" fill="#100E0E" transform="translate(0,0)"/>
<path d="" fill="#0E0F0E" transform="translate(0,0)"/>
<path d="" fill="#0F100F" transform="translate(0,0)"/>
<path d="" fill="#0E0F0F" transform="translate(0,0)"/>
<path d="" fill="#11100F" transform="translate(0,0)"/>
<path d="" fill="#0F1110" transform="translate(0,0)"/>
<path d="" fill="#110F0F" transform="translate(0,0)"/>
<path d="" fill="#101211" transform="translate(0,0)"/>
<path d="" fill="#111010" transform="translate(0,0)"/>
<path d="" fill="#121010" transform="translate(0,0)"/>
<path d="" fill="#100F0F" transform="translate(0,0)"/>
<path d="" fill="#100D0E" transform="translate(0,0)"/>
<path d="" fill="#101011" transform="translate(0,0)"/>
<path d="" fill="#111110" transform="translate(0,0)"/>
<path d="" fill="#11100F" transform="translate(0,0)"/>
<path d="" fill="#0E0D0D" transform="translate(0,0)"/>
<path d="" fill="#121212" transform="translate(0,0)"/>
<path d="" fill="#121211" transform="translate(0,0)"/>
<path d="" fill="#121111" transform="translate(0,0)"/>
<path d="" fill="#131212" transform="translate(0,0)"/>
<path d="" fill="#121313" transform="translate(0,0)"/>
<path d="" fill="#110F0F" transform="translate(0,0)"/>
<path d="" fill="#070908" transform="translate(0,0)"/>
<path d="" fill="#0D0B0B" transform="translate(0,0)"/>
<path d="" fill="#121212" transform="translate(0,0)"/>
<path d="" fill="#151314" transform="translate(0,0)"/>
<path d="" fill="#121313" transform="translate(0,0)"/>
<path d="" fill="#141513" transform="translate(0,0)"/>
<path d="" fill="#131211" transform="translate(0,0)"/>
<path d="" fill="#111312" transform="translate(0,0)"/>
<path d="" fill="#171516" transform="translate(0,0)"/>
<path d="" fill="#161514" transform="translate(0,0)"/>
<path d="" fill="#131210" transform="translate(0,0)"/>
<path d="" fill="#12120F" transform="translate(0,0)"/>
<path d="" fill="#111111" transform="translate(0,0)"/>
<path d="" fill="#110F0F" transform="translate(0,0)"/>
<path d="" fill="#111110" transform="translate(0,0)"/>
<path d="" fill="#101110" transform="translate(0,0)"/>
<path d="" fill="#111011" transform="translate(0,0)"/>
<path d="" fill="#10100F" transform="translate(0,0)"/>
<path d="" fill="#111110" transform="translate(0,0)"/>
<path d="" fill="#11110E" transform="translate(0,0)"/>
<path d="" fill="#100F0F" transform="translate(0,0)"/>
<path d="" fill="#100F0F" transform="translate(0,0)"/>
<path d="" fill="#110F0E" transform="translate(0,0)"/>
<path d="" fill="#11100F" transform="translate(0,0)"/>
<path d="" fill="#0F100E" transform="translate(0,0)"/>
<path d="" fill="#10100E" transform="translate(0,0)"/>
<path d="" fill="#110E0F" transform="translate(0,0)"/>
<path d="" fill="#100F0F" transform="translate(0,0)"/>
<path d="" fill="#0F0F0D" transform="translate(0,0)"/>
<path d="" fill="#10110E" transform="translate(0,0)"/>
<path d="" fill="#0F0F0E" transform="translate(0,0)"/>
<path d="" fill="#0F0E0F" transform="translate(0,0)"/>
<path d="" fill="#0F0E0E" transform="translate(0,0)"/>
<path d="" fill="#0E0E0D" transform="translate(0,0)"/>
<path d="" fill="#0F100D" transform="translate(0,0)"/>
<path d="" fill="#11100F" transform="translate(0,0)"/>
<path d="" fill="#100E0C" transform="translate(0,0)"/>
<path d="" fill="#0F0F0E" transform="translate(0,0)"/>
<path d="" fill="#0F0F0F" transform="translate(0,0)"/>
<path d="" fill="#100F0E" transform="translate(0,0)"/>
<path d="" fill="#10100E" transform="translate(0,0)"/>
<path d="" fill="#100F0F" transform="translate(0,0)"/>
<path d="" fill="#0F100E" transform="translate(0,0)"/>
<path d="" fill="#100F0E" transform="translate(0,0)"/>
<path d="" fill="#100F0E" transform="translate(0,0)"/>
<path d="" fill="#100F0E" transform="translate(0,0)"/>
<path d="" fill="#0F0E0E" transform="translate(0,0)"/>
<path d="" fill="#10100E" transform="translate(0,0)"/>
<path d="" fill="#10100D" transform="translate(0,0)"/>
<path d="" fill="#110F10" transform="translate(0,0)"/>
<path d="" fill="#100E10" transform="translate(0,0)"/>
<path d="" fill="#100F0E" transform="translate(0,0)"/>
<path d="" fill="#101110" transform="translate(0,0)"/>
<path d="" fill="#101110" transform="translate(0,0)"/>
<path d="" fill="#121212" transform="translate(0,0)"/>
<path d="" fill="#181817" transform="translate(0,0)"/>
<path d="" fill="#191616" transform="translate(0,0)"/>
<path d="" fill="#191817" transform="translate(0,0)"/>
<path d="" fill="#1B1A19" transform="translate(0,0)"/>
<path d="" fill="#191817" transform="translate(0,0)"/>
<path d="" fill="#171614" transform="translate(0,0)"/>
<path d="" fill="#1B1818" transform="translate(0,0)"/>
<path d="" fill="#191718" transform="translate(0,0)"/>
<path d="" fill="#171617" transform="translate(0,0)"/>
<path d="" fill="#161414" transform="translate(0,0)"/>
<path d="" fill="#191816" transform="translate(0,0)"/>
<path d="" fill="#101213" transform="translate(0,0)"/>
<path d="" fill="#BDBEBE" transform="translate(0,0)"/>
<path d="" fill="#BCBCBE" transform="translate(0,0)"/>
<path d="" fill="#BDBEBE" transform="translate(0,0)"/>
<path d="" fill="#BBBBBC" transform="translate(0,0)"/>
<path d="" fill="#BCBEBE" transform="translate(0,0)"/>
<path d="" fill="#B6B7B6" transform="translate(0,0)"/>
<path d="" fill="#B7B7B9" transform="translate(0,0)"/>
<path d="" fill="#B5B4B5" transform="translate(0,0)"/>
<path d="" fill="#B8B7B7" transform="translate(0,0)"/>
<path d="" fill="#B8B8B9" transform="translate(0,0)"/>
<path d="" fill="#B6B8B9" transform="translate(0,0)"/>
<path d="" fill="#BEBCBF" transform="translate(0,0)"/>
<path d="" fill="#B8B8BA" transform="translate(0,0)"/>
<path d="" fill="#B6B6B7" transform="translate(0,0)"/>
<path d="" fill="#B2B4B5" transform="translate(0,0)"/>
<path d="" fill="#BFBEC1" transform="translate(0,0)"/>
<path d="" fill="#BABABB" transform="translate(0,0)"/>
<path d="" fill="#B3B4B4" transform="translate(0,0)"/>
<path d="" fill="#BFC0BF" transform="translate(0,0)"/>
<path d="" fill="#B4B6B6" transform="translate(0,0)"/>
<path d="" fill="#BDBEBD" transform="translate(0,0)"/>
<path d="" fill="#C3C3C5" transform="translate(0,0)"/>
<path d="" fill="#C1C3C2" transform="translate(0,0)"/>
<path d="" fill="#C2C2C2" transform="translate(0,0)"/>
<path d="" fill="#B5B5B5" transform="translate(0,0)"/>
<path d="" fill="#BDBDBE" transform="translate(0,0)"/>
<path d="" fill="#B2B2B3" transform="translate(0,0)"/>
<path d="" fill="#B6B5B6" transform="translate(0,0)"/>
<path d="" fill="#BFBEBF" transform="translate(0,0)"/>
<path d="" fill="#C0C2C2" transform="translate(0,0)"/>
<path d="" fill="#BDBCBE" transform="translate(0,0)"/>
<path d="" fill="#C4C3C4" transform="translate(0,0)"/>
<path d="" fill="#C1C2C3" transform="translate(0,0)"/>
<path d="" fill="#B6B6B6" transform="translate(0,0)"/>
<path d="" fill="#B7B6B7" transform="translate(0,0)"/>
</svg>
