<?xml version="1.0" encoding="UTF-8"?>
<svg version="1.1" viewBox="0 0 1024 1024" width="1024" height="1024" xmlns="http://www.w3.org/2000/svg">
<path transform="translate(642,73)" d="m0 0h32l24 3 24 6 26 10 19 10 18 12 11 9 12 11 13 13 13 17 12 19 11 23 9 27 5 23 2 17v33l-3 24-5 21-7 20-11 23-14 21-11 14-2 2 23 2 11 4 10 6 9 9 6 10 4 11 1 5v430l-3 11-6 12-7 8-11 8-11 5-9 2h-679l-13-4-11-7-10-10-6-10-3-9-1-6v-430l3-13 6-11 9-10 10-7 12-4 6-1 337-1-8-9-12-16-9-15-10-21-8-24-5-26-1-9-1-24 2-26 4-22 7-24 8-19 11-21 10-15 13-16 7-7 4-5 8-7 15-12 17-11 21-11 21-8 22-6 18-3zm1 41-24 4-20 6-17 7-15 8-12 8-16 13-13 13-11 14-10 15-11 23-6 19-4 21-1 11v24l2 17 5 22 8 21 11 21 12 17 12 13 10 10 17 13 19 11 19 8 13 4 21 4 10 1h30l26-4 20-6 15-6 16-8 15-10 10-8 12-11 9-11 9-12 9-16 6-12 7-20 4-18 2-15v-31l-4-25-5-17-8-20-10-18-9-12-9-11-15-15-17-13-15-9-19-9-18-6-20-4-9-1zm-479 356-8 4-3 4-1 3v422l3 6 5 4 2 1h673l7-4 3-4 1-3v-423l-4-6-5-3-3-1h-63l-13 8-19 9-21 7-23 5-18 2h-38l-23-3-24-6-17-6-21-10-10-6z"/>
<path transform="translate(656,164)" d="m0 0h6l6 4 13 15 12 14 9 11 13 15 36 42 5 7 1 6-3 6-5 3-49 1-3 2-1 3-1 111-5 6-2 1h-59l-5-3-3-3-1-3-1-110-4-4-49-1-6-5-1-2v-8l6-8 11-12 9-11 11-12 9-11 12-13 9-11 12-13 9-11 6-5z"/>
<path transform="translate(216,699)" d="m0 0h459l8 4 4 5 2 4v11l-5 8-6 4-4 1h-458l-7-3-6-7-1-3v-11l4-7 5-4z"/>
<path transform="translate(218,521)" d="m0 0h94l8 4 6 7 3 7v73l-4 9-9 8-9 3h-86l-9-4-5-5-4-6-1-3v-76l5-10 5-4z"/>
<path transform="translate(724,760)" d="m0 0h15l14 3 12 5 13 10 7 8 8 14 3 9 1 6v19l-4 15-7 13-9 10-8 7-16 8-14 3h-16l-16-4-11-6-4 1-13 6-11 3h-22l-13-4-13-7-12-11-9-14-5-14-1-5v-20l3-11 8-16 9-10 10-8 13-6 9-2 11-1 16 2 16 6 3 2 5-1 11-6zm3 21-12 3-5 2 2 5 5 8 5 12 1 5v18l-3 12-7 13-3 3 1 3 8 3 6 1h13l11-3 9-5 8-7 6-10 3-7 1-5v-15l-3-10-6-10-7-7-10-6-12-3zm-80 2-11 4-8 6-8 9-5 11-1 5v15l4 12 7 10 9 8 11 5 4 1h16l13-4v-3l-6-8-5-11-2-9v-18l3-12 8-14 1-3-12-4zm46 18-6 10-2 7v15l4 11 4 6 3-1 5-10 2-7v-13l-4-12-4-6z"/>
<path transform="translate(215,779)" d="m0 0h215l6 3 6 7 1 3v8l-3 6-7 6-2 1h-217l-7-4-4-5-1-3v-10l5-8z"/>
</svg>
