<?xml version="1.0" encoding="UTF-8"?>
<svg version="1.1" viewBox="0 0 1024 1024" width="1024" height="1024" xmlns="http://www.w3.org/2000/svg">
<path transform="translate(110,379)" d="m0 0h805l13 4 10 7 7 7 5 8 3 9 1 6v406l-3 12-5 9-8 9-12 7-11 3h-807l-10-3-10-6-8-8-6-10-3-10-1-21v-381l2-15 4-10 7-9 8-7 10-5zm97 48-1 3-3 20-5 14-7 13-8 10-9 9-14 9-11 5-14 4-18 2v212l18 2 17 5 15 8 11 9 8 8 9 14 6 14 3 11 2 19h612l3-22 6-18 9-15 11-12 10-8 15-8 17-5 18-2v-212l-22-3-15-5-11-6-13-10-9-10-8-13-5-12-4-15-2-15z"/>
<path transform="translate(501,456)" d="m0 0h19l17 2 17 4 17 6 16 8 12 7 13 10 10 9 11 11 10 13 10 16 9 19 6 18 4 21 1 12v20l-3 22-5 19-6 16-8 16-8 12-8 10-9 10-10 10-16 12-16 9-18 8-21 6-21 3h-25l-20-3-15-4-16-6-16-8-15-10-14-12-11-11-13-17-9-16-7-15-6-18-4-20-1-10v-28l3-21 6-21 7-17 9-16 10-14 11-12 12-12 16-12 21-12 21-8 23-5zm5 46-6 4-4 5-2 5-3 12-4 4-16 7-10 9-7 10-4 12-1 6v13l3 13 5 10 9 10 8 6 11 5 35 8 10 4 5 4 3 5 1 10-4 9-6 5-9 4-12 1-12-3-6-4-3-1-2-4-7-7-5-2h-10l-6 4-5 8v10l5 10 9 9 14 7 8 3 4 5 4 15 6 7 4 2h10l7-4 4-5 2-6 2-10 5-5 14-6 9-7 8-9 5-11 2-7 1-13-2-14-5-12-6-8-9-8-13-6-36-8-12-5-5-6-1-3v-13l5-8 8-6 6-2h15l12 6 11 13 6 3h8l7-4 4-6 1-3v-7l-3-8-6-8-11-8-14-6-4-5-4-16-6-7-5-2z"/>
<path transform="translate(507,70)" d="m0 0h10l6 3 25 25 7 8 62 62 7 8 7 7 4 9v11l-5 10-7 6-5 2h-12l-8-4-54-54v-2l-3-1-3-4-1 172-4 11-8 8-7 3-8 1-10-3-8-7-5-10-1-9-1-166-62 62-6 3h-13l-8-5-6-7-3-9 1-10 3-6 9-10 102-102z"/>
<path transform="translate(237,566)" d="m0 0h13l13 3 14 8 10 10 6 9 4 11 2 10v8l-3 14-6 12-9 10-9 7-11 5-7 2h-20l-13-4-10-6-8-7-7-10-5-11-2-9v-14l3-12 7-13 9-10 8-6 12-5z"/>
<path transform="translate(775,566)" d="m0 0h11l10 2 10 4 10 7 9 9 6 10 4 12 1 6v10l-4 15-6 11-9 10-10 7-12 5-5 1h-18l-15-5-11-7-8-8-6-10-4-10-1-5v-18l3-11 6-12 10-11 10-6 9-4z"/>
</svg>
