<?xml version="1.0" encoding="UTF-8"?>
<svg version="1.1" xmlns="http://www.w3.org/2000/svg" width="1024" height="1024">
<path d="M0 0 C0.66 0 1.32 0 2 0 C2 0.99 2 1.98 2 3 C3.49466797 3.13921875 3.49466797 3.13921875 5.01953125 3.28125 C9.33090498 3.90505087 12.8389119 5.51939319 16.6875 7.5 C17.73732056 8.03403442 17.73732056 8.03403442 18.80834961 8.57885742 C25.41841979 12.04436777 31.16836676 16.35712276 37 21 C52.82076266 33.42868388 68.8004047 42.70694119 89.51953125 42.1875 C91.11108284 42.17046021 91.11108284 42.17046021 92.73478699 42.15307617 C97.21891075 42.10463056 101.70217105 42.02025063 106.18579102 41.93847656 C131.4316499 41.51866358 152.14981593 44.9582021 172 62 C181.64809708 72.85837074 186.88416329 85.4738458 191.5 99.0625 C199.33441459 122.12442985 210.86788733 134.70500638 232.26782227 146.25805664 C251.03202486 156.45750412 266.4236945 169.30867992 272.7668457 190.43188477 C277.57647476 208.1102305 274.49389201 225.59744185 271.77954102 243.37207031 C268.70691307 263.60162539 271.75278203 279.35060013 281.4375 297.3125 C291.80060444 316.53503445 296.80590666 336.5808417 290.97045898 358.14428711 C285.8709819 374.94962119 276.14249999 387.07873529 263.75 399.125 C250.76156196 411.77769096 247.71773201 424.19360253 246.5 441.625 C244.82418851 465.26908175 241.06660472 488.81555372 223 506 C210.67049125 516.15257986 197.56076881 521.43473867 182.55102539 526.10180664 C158.94358769 533.49047675 145.09799394 544.2123311 130.45605469 564.04052734 C115.41717133 584.27897098 99.17624495 598.54302326 73.75 603.3125 C64.84054326 604.55320684 56.28603026 604.03061383 47.375 603.125 C46.56788574 603.04668945 45.76077148 602.96837891 44.92919922 602.88769531 C42.9431352 602.66574596 40.96902863 602.34152317 39 602 C38.67 601.34 38.34 600.68 38 600 C35.90605861 599.5235215 33.809829 599.05559408 31.70507812 598.62939453 C26.75568062 597.47781089 22.02459712 595.65943535 17.25 593.9375 C15.23547694 593.21437069 13.2198859 592.49420817 11.203125 591.77734375 C9.88296387 591.30155884 9.88296387 591.30155884 8.53613281 590.81616211 C-5.22593156 586.3873422 -20.57445379 588.16633828 -33.84375 593.19091797 C-59.91451602 602.97335893 -84.18073032 608.74475085 -110.67578125 596.79296875 C-126.12892445 589.03285197 -137.77275791 575.8421486 -147.875 562.125 C-151.72178978 556.92352473 -155.63676563 551.83634641 -159.9375 547 C-161.21947266 545.5459375 -161.21947266 545.5459375 -162.52734375 544.0625 C-172.56768271 534.51329049 -185.03174196 530.55099865 -197.9375 526.5 C-218.89891767 519.90618338 -238.75934406 511.22526473 -250 491 C-250 490.34 -250 489.68 -250 489 C-250.99 488.67 -251.98 488.34 -253 488 C-253 487.01 -253 486.02 -253 485 C-253.73170838 483.06805849 -254.50987439 481.15357224 -255.3125 479.25 C-259.26744231 469.18287412 -261.57157085 458.85984614 -261 448 C-261.66 447.67 -262.32 447.34 -263 447 C-262.97679687 446.12859375 -262.95359375 445.2571875 -262.9296875 444.359375 C-262.65162021 426.00693362 -266.36384849 413.05111154 -279.203125 399.7890625 C-280.90096914 398.09596095 -282.61552932 396.41911968 -284.359375 394.7734375 C-299.53311133 380.40681481 -308.73649552 361.26246635 -309.3527832 340.26196289 C-309.43376332 331.78930679 -308.26796088 324.18486872 -306 316 C-305.52027127 313.60483266 -305.06036611 311.20827123 -304.625 308.8046875 C-304 307 -304 307 -302.59350586 305.61376953 C-300.949349 303.9487049 -299.98109564 302.43079868 -298.87890625 300.375 C-298.50258057 299.67431396 -298.12625488 298.97362793 -297.73852539 298.25170898 C-289.31311793 282.11977355 -283.83147408 266.49907052 -287 248 C-287.495 247.01 -287.495 247.01 -288 246 C-288.1863983 244.31649791 -288.32359653 242.62745551 -288.4375 240.9375 C-288.76462858 236.53181677 -289.21476276 232.1695934 -289.78466797 227.79077148 C-292.4185048 207.25934222 -291.2766021 187.47981767 -278.73193359 170.25927734 C-270.02180236 159.29635854 -258.86466689 152.45504524 -246.9375 145.5 C-235.77603718 138.98775498 -226.35987919 132.89331065 -219 122 C-218.6198877 121.45569336 -218.23977539 120.91138672 -217.84814453 120.35058594 C-214.05464292 114.66545395 -211.7894222 108.66238824 -209.5 102.25 C-208.71354244 100.10629241 -207.92579747 97.96305666 -207.13671875 95.8203125 C-206.76595215 94.80743164 -206.39518555 93.79455078 -206.01318359 92.75097656 C-199.57583303 75.2724064 -190.4952811 58.58671145 -173.328125 49.6015625 C-155.44051858 41.62465694 -138.97948642 41.60395688 -119.76586914 42.1574707 C-102.99086048 42.60079149 -87.78407034 42.04141102 -73.1875 32.8125 C-72.5891333 32.43665771 -71.9907666 32.06081543 -71.37426758 31.67358398 C-64.40110283 27.17414227 -57.86634352 21.86634352 -52 16 C-38.99481075 6.74720406 -25.87865111 1.90063811 -10 1.375 C-9.03449219 1.33632813 -8.06898438 1.29765625 -7.07421875 1.2578125 C-4.7163256 1.16443059 -2.35842244 1.07865671 0 1 C0 0.67 0 0.34 0 0 Z M-73 97 C-73.69335449 97.20963379 -74.38670898 97.41926758 -75.10107422 97.63525391 C-104.03712211 106.58262982 -130.6212911 122.57258044 -152.84375 143.02734375 C-154.67111528 144.69911815 -156.52398501 146.30385411 -158.4375 147.875 C-161.37196614 150.28270532 -161.37196614 150.28270532 -164 153 C-164 153.66 -164 154.32 -164 155 C-164.99 155.33 -165.98 155.66 -167 156 C-168.66185382 157.58021465 -168.66185382 157.58021465 -170.2734375 159.55078125 C-170.88799805 160.27604004 -171.50255859 161.00129883 -172.13574219 161.74853516 C-172.75094727 162.49151855 -173.36615234 163.23450195 -174 164 C-174.82612793 164.99265869 -174.82612793 164.99265869 -175.66894531 166.00537109 C-189.0081502 182.2673011 -200.2231936 199.87818219 -209 219 C-209.79470703 220.71509766 -209.79470703 220.71509766 -210.60546875 222.46484375 C-234.36181149 275.77920676 -232.67162082 337.3459744 -212.28637695 391.44018555 C-206.043972 407.44759599 -198.16980322 423.12057105 -188 437 C-187.55495117 437.6172998 -187.10990234 438.23459961 -186.65136719 438.87060547 C-168.58412318 463.81347287 -146.60867415 484.44819785 -120 500 C-118.98550781 500.63164063 -117.97101563 501.26328125 -116.92578125 501.9140625 C-83.96554781 521.87309409 -44.72460434 529.92062456 -6.5625 530.125 C-5.82169189 530.12975342 -5.08088379 530.13450684 -4.31762695 530.1394043 C-0.86963605 530.43712228 -0.86963605 530.43712228 2 529 C3.63746634 528.95720386 5.27652324 528.97181039 6.9140625 529.01171875 C12.49753319 529.05763249 17.85196948 528.59497167 23.375 527.8125 C24.31907715 527.6794043 25.2631543 527.54630859 26.23583984 527.40917969 C83.37087119 518.91446523 135.01899939 487.3750451 169.44750977 441.07885742 C170.18505493 440.0807605 170.18505493 440.0807605 170.9375 439.0625 C171.41050537 438.42352783 171.88351074 437.78455566 172.37084961 437.1262207 C174.53420109 434.1627632 176.42150552 431.32098838 178 428 C179.16000416 426.18322877 180.32771634 424.37137213 181.5 422.5625 C211.2350963 375.04865462 219.4418138 315.14438154 207.40625 260.8984375 C198.83195677 224.20760772 181.55059819 191.20063409 156.15234375 163.37109375 C154.23144623 161.25496889 152.36010568 159.10690731 150.5 156.9375 C143.34520193 148.76527651 135.51856752 141.72159333 127 135 C126.02417969 134.20722656 125.04835938 133.41445312 124.04296875 132.59765625 C69.8798637 89.47156129 -7.09462437 76.81420799 -73 97 Z " fill="#000000" transform="translate(520,60)"/>
<path d="M0 0 C2.03319303 0.01509917 4.06639711 0.02877817 6.09960938 0.04101562 C11.00418756 0.073549 15.90821555 0.12503116 20.8125 0.1875 C20.8125 0.8475 20.8125 1.5075 20.8125 2.1875 C21.44671875 2.19007813 22.0809375 2.19265625 22.734375 2.1953125 C48.70699585 3.27152607 76.55845912 17.0092257 97.51953125 31.71875 C99.63934809 33.3672931 99.63934809 33.3672931 101.8125 33.1875 C103.00255541 34.34355383 104.18652166 35.50665705 105.3359375 36.703125 C107.42112295 38.79934318 109.66962042 40.67669402 111.92431641 42.58691406 C148.34435135 73.45965121 171.35205951 113.71243334 177.8125 161.1875 C178.07051392 163.06223999 178.07051392 163.06223999 178.33374023 164.97485352 C183.87457698 209.83430778 173.10298257 257.34209073 146.8125 294.1875 C146.14347656 295.15816406 145.47445313 296.12882812 144.78515625 297.12890625 C116.81614694 336.24385223 73.81947726 361.07726789 26.8125 369.1875 C25.72291992 369.38230957 25.72291992 369.38230957 24.61132812 369.58105469 C-19.91191328 377.21544334 -70.93924473 366.75448849 -108.12109375 340.86572266 C-109.27127405 340.04256069 -110.41711127 339.21328983 -111.55810547 338.37744141 C-113.11531682 337.24021514 -114.69975505 336.1405542 -116.28515625 335.04296875 C-136.751708 320.26875756 -152.75250128 300.94874776 -165.1875 279.1875 C-165.73921875 278.23746094 -166.2909375 277.28742188 -166.859375 276.30859375 C-170.1875 270.484375 -170.1875 270.484375 -170.1875 268.1875 C-171.1775 267.8575 -172.1675 267.5275 -173.1875 267.1875 C-173.1875 265.8675 -173.1875 264.5475 -173.1875 263.1875 C-174.01902558 260.91294893 -174.92592142 258.66556356 -175.875 256.4375 C-178.75715311 249.52532701 -181.05521945 242.52395729 -183.20703125 235.35546875 C-184.0505085 232.32583658 -184.0505085 232.32583658 -185.1875 230.1875 C-185.37065026 228.7542765 -185.50949679 227.31525436 -185.625 225.875 C-185.99030633 221.83923487 -186.53234918 217.8738465 -187.1875 213.875 C-192.82148044 177.80070736 -188.3989076 137.20366329 -172.1875 104.1875 C-171.1975 103.6925 -171.1975 103.6925 -170.1875 103.1875 C-169.49346922 101.5320413 -168.83311868 99.86243246 -168.1875 98.1875 C-163.33262815 88.8619548 -157.77506408 80.39249851 -151.1875 72.1875 C-150.77129395 71.66833008 -150.35508789 71.14916016 -149.92626953 70.61425781 C-139.06867159 57.16996077 -127.1165518 45.4254724 -113.1875 35.1875 C-112.12789063 34.40632813 -111.06828125 33.62515625 -109.9765625 32.8203125 C-77.24496791 9.46369315 -39.86041363 -0.52356925 0 0 Z M-12.1875 70.1875 C-14.48995537 72.91171428 -15.8234484 75.43665643 -16.9934082 78.79394531 C-17.47454826 80.15752167 -17.47454826 80.15752167 -17.96540833 81.54864502 C-18.30295639 82.52774841 -18.64050446 83.50685181 -18.98828125 84.515625 C-19.34713913 85.53742859 -19.70599701 86.55923218 -20.07572937 87.61199951 C-21.22382058 90.88487746 -22.3622868 94.16100166 -23.5 97.4375 C-26.05679767 104.76021246 -28.62408356 112.07914133 -31.206604 119.39282227 C-32.11414817 121.97851278 -33.00435903 124.56956862 -33.89208984 127.16210938 C-34.39979836 128.60318826 -34.90835411 130.04396908 -35.41796875 131.484375 C-35.83844482 132.69963867 -36.2589209 133.91490234 -36.69213867 135.16699219 C-39.21710345 140.26721493 -42.93398085 142.4069875 -48.1875 144.1875 C-51.00604248 144.49047852 -51.00604248 144.49047852 -54.12011719 144.56640625 C-55.29193542 144.59984131 -56.46375366 144.63327637 -57.67108154 144.66772461 C-58.92946838 144.69487549 -60.18785522 144.72202637 -61.484375 144.75 C-63.47617765 144.80626752 -65.46798008 144.8625449 -67.45976639 144.91938782 C-70.95214942 145.01651312 -74.44482765 145.10152715 -77.9375 145.1875 C-82.09126895 145.29012451 -86.24489818 145.39514906 -90.39825439 145.51342773 C-92.98133056 145.58618484 -95.56464077 145.65117315 -98.14813232 145.70727539 C-109.13925763 145.54134233 -109.13925763 145.54134233 -118.86395264 149.63452148 C-120.73286761 151.8274047 -121.17668522 153.10638916 -121.5625 156 C-121.06745486 160.20788367 -119.25481905 161.58449989 -116.1875 164.1875 C-115.56359375 164.78820312 -114.9396875 165.38890625 -114.296875 166.0078125 C-104.45770617 175.33094101 -93.13956432 182.94034345 -82.1328125 190.80078125 C-81.32328125 191.38053711 -80.51375 191.96029297 -79.6796875 192.55761719 C-78.14403774 193.6555054 -76.60515313 194.74888831 -75.0625 195.83691406 C-65.42394507 202.71460985 -65.42394507 202.71460985 -63.1875 207.1875 C-62.80694061 212.98986756 -63.90493263 217.92309888 -65.3828125 223.46875 C-65.61106216 224.35206497 -65.83931183 225.23537994 -66.07447815 226.14546204 C-66.81273668 228.99488723 -67.56266688 231.84110131 -68.3125 234.6875 C-68.8196101 236.63999913 -69.32587482 238.59271802 -69.83129883 240.5456543 C-71.94080242 248.68074266 -74.07984062 256.80771585 -76.25390625 264.92578125 C-76.53540527 265.9828125 -76.8169043 267.03984375 -77.10693359 268.12890625 C-77.60105776 269.97598198 -78.10213004 271.82122033 -78.61181641 273.6640625 C-79.75766576 277.92720749 -80.60695761 281.72907148 -80.1875 286.1875 C-78.75088689 288.70756844 -78.75088689 288.70756844 -76.1875 290.1875 C-70.36483444 291.35203311 -66.83098715 289.23111943 -62.0859375 286.1796875 C-57.41075617 282.96628793 -52.78188761 279.69260727 -48.19140625 276.359375 C-46.21651303 274.93149381 -44.21522004 273.53931336 -42.1875 272.1875 C-41.14239258 271.48689453 -40.09728516 270.78628906 -39.02050781 270.06445312 C-35.57772844 267.75849241 -32.12707582 265.46456504 -28.67382812 263.17431641 C-27.1879053 262.18640484 -25.70415922 261.19521105 -24.22265625 260.20068359 C-22.07598106 258.76047882 -19.92168825 257.33235 -17.765625 255.90625 C-17.11120422 255.46349731 -16.45678345 255.02074463 -15.78253174 254.5645752 C-11.66185564 251.8597603 -8.04345166 250.15470035 -3.1875 249.1875 C-0.265625 250.2421875 -0.265625 250.2421875 2.5625 252.0625 C3.48546875 252.63742187 4.4084375 253.21234375 5.359375 253.8046875 C8.18163159 255.70802975 10.91460924 257.72496822 13.65625 259.7421875 C20.42106246 264.68782321 27.37916364 269.33234612 34.35693359 273.97070312 C36.57491869 275.44575896 38.78953748 276.92577235 41.00390625 278.40625 C42.43469844 279.3596713 43.8656813 280.31280652 45.296875 281.265625 C45.94807312 281.70110657 46.59927124 282.13658813 47.27020264 282.58526611 C56.22768545 288.93435779 56.22768545 288.93435779 66.8125 290.1875 C70.12023033 288.46569788 70.12023033 288.46569788 70.625 285 C70.82386317 280.95644886 69.96965686 277.9814625 68.8125 274.1875 C68.37038256 272.61340893 67.93312395 271.0379481 67.49975586 269.46142578 C67.26288559 268.60428986 67.02601532 267.74715393 66.78196716 266.86404419 C66.53294144 265.96273773 66.28391571 265.06143127 66.02734375 264.1328125 C65.21515733 261.20268982 64.40238753 258.27272932 63.58959961 255.34277344 C63.02697466 253.31215383 62.46546233 251.28122565 61.9050293 249.25 C61.09471609 246.31424022 60.28019389 243.37967675 59.46484375 240.4453125 C59.21379379 239.53186066 58.96274384 238.61840881 58.7040863 237.67727661 C58.47036819 236.83905365 58.23665009 236.00083069 57.99584961 235.13720703 C57.68846107 234.02637253 57.68846107 234.02637253 57.37486267 232.89309692 C56.95034423 231.17530215 56.95034423 231.17530215 55.8125 230.1875 C55.5959375 228.5478125 55.5959375 228.5478125 55.375 226.875 C54.88540622 223.66544077 54.33233392 221.94219899 52.8125 219.1875 C51.20047013 214.35141038 52.26827142 209.93658487 53.8125 205.1875 C55.875 202.5 55.875 202.5 58.8125 200.1875 C59.45316406 199.65769531 60.09382812 199.12789062 60.75390625 198.58203125 C64.61682439 195.45161637 68.57659816 192.66326648 72.8125 190.0625 C80.20874665 185.45414941 87.00981341 180.06210665 93.86962891 174.703125 C95.55626878 173.38738482 97.25195675 172.08325921 98.94921875 170.78125 C106.74569525 165.21868608 106.74569525 165.21868608 111.28125 157.1796875 C111.5406851 153.66434196 111.10016874 151.57436486 109 148.75 C99.62416108 144.15400053 86.12868166 145.89875961 75.8125 145.6875 C69.98559995 145.56612988 64.15962528 145.4305153 58.33398438 145.25830078 C56.62710945 145.21037343 54.92005381 145.16855815 53.21289062 145.13232422 C50.66185451 145.07538999 48.11265953 144.99347248 45.5625 144.90625 C44.41974609 144.88794128 44.41974609 144.88794128 43.25390625 144.8692627 C37.82649172 144.64802351 33.15475658 143.60742008 28.8125 140.1875 C26.96088517 137.69167366 25.88258799 135.09281373 24.8125 132.1875 C24.38655045 131.0761972 24.38655045 131.0761972 23.95199585 129.94244385 C23.05584356 127.51844466 22.21587027 125.08050511 21.38671875 122.6328125 C20.9207 121.28218216 20.9207 121.28218216 20.44526672 119.90426636 C19.45828368 117.0421098 18.47850927 114.17756353 17.5 111.3125 C15.27696332 104.81843661 13.0399075 98.32990121 10.7543335 91.85754395 C10.12838827 90.08302514 9.50697712 88.30690021 8.89019775 86.5291748 C8.01678167 84.02955375 7.11626432 81.54146872 6.20703125 79.0546875 C5.95314133 78.3150174 5.6992514 77.57534729 5.43766785 76.81326294 C3.60729625 71.93191314 1.65395187 69.5913005 -3.1875 67.1875 C-7.54022557 67.1875 -8.74790113 67.7180444 -12.1875 70.1875 Z M51.8125 215.1875 C52.8125 218.1875 52.8125 218.1875 52.8125 218.1875 Z " fill="#000000" transform="translate(517.1875,183.8125)"/>
<path d="M0 0 C0.33 0.66 0.66 1.32 1 2 C1.66 2 2.32 2 3 2 C6.3 9.26 9.6 16.52 13 24 C13.66 24 14.32 24 15 24 C15.15650024 25.50373169 15.15650024 25.50373169 15.31616211 27.0378418 C15.89883852 31.08622036 17.30422571 34.6669611 18.94140625 38.39453125 C19.3721067 39.40467537 19.3721067 39.40467537 19.81150818 40.43522644 C20.72065962 42.56445272 21.64084298 44.68866068 22.5625 46.8125 C23.48601281 48.95486708 24.40709737 51.09821427 25.32420349 53.24333191 C25.89322089 54.57282801 26.46622304 55.90062719 27.04359436 57.22651672 C29 61.7772572 29 61.7772572 29 64 C29.66 64.33 30.32 64.66 31 65 C31.95411147 67.28130622 32.80538738 69.54023593 33.62109375 71.87109375 C35.86602448 78.06370903 38.26313218 84.16382224 40.84765625 90.22265625 C41.18424255 91.01172867 41.52082886 91.80080109 41.86761475 92.61378479 C42.56811507 94.25118841 43.26979462 95.88808799 43.97259521 97.52450562 C45.86780029 101.93775337 47.75111006 106.35608334 49.63671875 110.7734375 C50.20184174 112.09588722 50.20184174 112.09588722 50.77838135 113.4450531 C54.01060813 121.01208416 57.20161826 128.5956089 60.375 136.1875 C64.40314369 145.82087672 68.45360909 155.44440448 72.52606201 165.05914307 C75.76065533 172.69720508 78.98451056 180.33974962 82.20196533 187.98504639 C84.35870547 193.10897969 86.52047865 198.2306925 88.69140625 203.34863281 C90.92295578 208.61106711 93.14051934 213.87920695 95.34906006 219.15133667 C96.19147345 221.15590175 97.03859271 223.1584965 97.89068604 225.15896606 C99.07792691 227.94845522 100.24782169 230.74464714 101.4140625 233.54296875 C101.76416382 234.35464508 102.11426514 235.16632141 102.47497559 236.00259399 C105.17565649 242.56315256 107.17966942 249.46099173 104.875 256.375 C102.14740638 260.19363107 99.8190723 262.56321488 95.1784668 263.67749023 C91.86103795 264.01410007 89.66213094 263.70285043 86.45703125 262.84765625 C85.39718018 262.56986328 84.3373291 262.29207031 83.24536133 262.00585938 C82.11251709 261.69455078 80.97967285 261.38324219 79.8125 261.0625 C78.02912231 260.58586914 78.02912231 260.58586914 76.2097168 260.09960938 C64.52002321 256.94235354 52.91810954 253.49244616 41.32519531 249.99951172 C35.78504463 248.33421239 30.23764943 246.69412045 24.6875 245.0625 C23.6972583 244.76794922 22.7070166 244.47339844 21.68676758 244.16992188 C13.68931874 241.55626197 13.68931874 241.55626197 5.4375 241.4375 C-0.96045329 245.53875211 -3.94023975 254.77690312 -7.046875 261.43359375 C-8.01667173 263.48464106 -8.98740839 265.53524415 -9.95898438 267.58544922 C-10.45841553 268.64141296 -10.95784668 269.69737671 -11.47241211 270.78533936 C-15.47056321 279.19906081 -19.57228752 287.56217129 -23.69921875 295.91333008 C-24.74653804 298.0401203 -25.78740236 300.17009963 -26.82226562 302.30297852 C-28.35055226 305.45066851 -29.89949678 308.58741233 -31.453125 311.72265625 C-31.90745911 312.66947769 -32.36179321 313.61629913 -32.82989502 314.59181213 C-35.65317883 320.22171537 -38.60721414 324.5776097 -44 328 C-48.31692437 329.41281161 -51.09035719 329.24507935 -55.1875 327.5 C-59.45712928 325.12890491 -61.03943992 322.41126018 -63 318 C-63 317.34 -63 316.68 -63 316 C-63.66 315.67 -64.32 315.34 -65 315 C-65.68049014 313.0117275 -66.34965405 311.0192617 -66.98193359 309.01513672 C-68.21545352 305.36190624 -69.63354569 301.79440297 -71.08203125 298.22265625 C-71.37408447 297.50235733 -71.6661377 296.78205841 -71.96704102 296.03993225 C-72.91323297 293.71317994 -73.86276798 291.38780933 -74.8125 289.0625 C-75.48372999 287.413236 -76.15478833 285.76390214 -76.82568359 284.11450195 C-81.80164063 271.89193011 -86.82305867 259.68811031 -91.85742188 247.48950195 C-96.68793227 235.78136401 -101.46032258 224.05011646 -106.22029114 212.31315613 C-106.47759506 211.67872086 -106.73489899 211.04428558 -107 210.390625 C-107.25331589 209.76597855 -107.50663177 209.14133209 -107.7676239 208.49775696 C-111.4898537 199.32289974 -115.24429842 190.16119454 -119 181 C-119.66 181 -120.32 181 -121 181 C-121.10634766 179.61554688 -121.10634766 179.61554688 -121.21484375 178.203125 C-121.99785475 172.71790511 -124.3860631 167.80279991 -126.5625 162.75 C-127.40187739 160.78848075 -128.23673404 158.82501896 -129.06640625 156.859375 C-129.43709229 155.99795898 -129.80777832 155.13654297 -130.18969727 154.24902344 C-131 152 -131 152 -131 149 C-131.99 148.67 -132.98 148.34 -134 148 C-134 146.68 -134 145.36 -134 144 C-134.30840599 141.84725052 -134.30840599 141.84725052 -135 140 C-135.66 139.67 -136.32 139.34 -137 139 C-137.7043457 137.30493164 -137.7043457 137.30493164 -138.36328125 135.09765625 C-140.04259444 129.76380247 -142.08603501 124.61706019 -144.1875 119.4375 C-144.55552734 118.52419922 -144.92355469 117.61089844 -145.30273438 116.66992188 C-146.19943546 114.44563736 -147.09855598 112.22236555 -148 110 C-148.66 110 -149.32 110 -150 110 C-150.33 109.01 -150.66 108.02 -151 107 C-150.34 107 -149.68 107 -149 107 C-149.235979 106.45287354 -149.47195801 105.90574707 -149.71508789 105.34204102 C-152.08263189 99.84798507 -154.435186 94.34770636 -156.78076172 88.84423828 C-157.90470314 86.22230845 -159.04560395 83.60852301 -160.19140625 80.99609375 C-160.83646095 79.49762106 -161.48102156 77.99893554 -162.125 76.5 C-162.43187744 75.81365479 -162.73875488 75.12730957 -163.05493164 74.42016602 C-164.27289559 71.54927666 -165.00722585 69.29224534 -164.9296875 66.15625 C-164 64 -164 64 -162.36865234 62.76098633 C-158.8837388 61.64137434 -156.6492918 62.61595585 -153.171875 63.66796875 C-152.17187469 63.96118767 -152.17187469 63.96118767 -151.15167236 64.2603302 C-149.01344644 64.88908015 -146.88162677 65.53675984 -144.75 66.1875 C-130.29855703 70.54959482 -115.91877012 74.61044155 -100.6875 74.5 C-99.71675537 74.49355469 -98.74601074 74.48710938 -97.74584961 74.48046875 C-76.30082992 73.94780383 -55.7174231 65.26637662 -40.828125 49.734375 C-39 48 -39 48 -37 48 C-37 47.34 -37 46.68 -37 46 C-36.34 46 -35.68 46 -35 46 C-34.73960937 45.41605469 -34.47921875 44.83210937 -34.2109375 44.23046875 C-32.9193294 41.85140996 -31.49873161 40.26133899 -29.625 38.3125 C-20.87332408 28.66974435 -13.7477825 17.41203085 -6.81640625 6.41796875 C-4.82401377 3.76573016 -2.66304061 1.95959592 0 0 Z " fill="#000000" transform="translate(689,616)"/>
<path d="M0 0 C4.18080559 3.85231373 7.03007964 7.9258144 10 12.75 C26.9567473 39.47165475 47.9428002 64.17990764 80 72 C80.76699219 72.20496094 81.53398437 72.40992188 82.32421875 72.62109375 C105.19798171 77.82783728 127.31380047 71.42770245 149.01416016 64.5546875 C150.12194824 64.21050781 151.22973633 63.86632812 152.37109375 63.51171875 C153.36036865 63.19678467 154.34964355 62.88185059 155.36889648 62.55737305 C158.04459219 61.99055359 159.45866566 62.08337296 162 63 C162.72346136 70.00332797 160.15179748 75.29056108 157.41796875 81.64453125 C156.66232552 83.44911238 155.90675296 85.25372432 155.15351772 87.05931187 C154.61576501 88.34733378 154.07655305 89.63474728 153.53598881 90.92159176 C150.59443668 97.93070633 147.77354394 104.98696444 144.95856857 112.04766083 C144.03707837 114.35858296 143.11384134 116.66880006 142.19009399 118.9788208 C140.89979507 122.20564208 139.61006066 125.43268781 138.32092285 128.65997314 C136.25877989 133.82233508 134.19539333 138.98419942 132.13183594 144.14599609 C129.59716685 150.48644404 127.06277316 156.82700191 124.52873421 163.16770172 C119.75959936 175.10094743 114.98784659 187.03314467 110.21484375 198.96484375 C109.85712198 199.85908995 109.49940022 200.75333614 109.13083839 201.67468071 C107.3572287 206.10838042 105.58357834 210.54206387 103.80990601 214.97573853 C101.17547911 221.56109334 98.54131395 228.14655284 95.90718079 234.73202515 C94.68026447 237.79937223 93.45328253 240.86669306 92.22624207 243.93399048 C89.37638469 251.05804966 86.52718383 258.18236979 83.6796875 265.30737305 C72.0257934 294.46626608 72.0257934 294.46626608 68.33300781 303.51489258 C67.76001057 304.92337084 67.19054568 306.33328965 66.62402344 307.74438477 C65.76772393 309.87588778 64.90072421 312.00274933 64.03125 314.12890625 C63.54205078 315.33619385 63.05285156 316.54348145 62.54882812 317.78735352 C60.46217893 322.11557178 58.21030128 325.12745721 54.3125 327.9375 C49.74269058 329.40328793 46.40523775 328.8076946 42 327 C39.125 324.625 39.125 324.625 37 322 C36.401875 321.278125 35.80375 320.55625 35.1875 319.8125 C34 318 34 318 34 316 C33.34 315.67 32.68 315.34 32 315 C31.33333333 313 30.66666667 311 30 309 C29.31790098 307.73549336 28.60887218 306.48517923 27.875 305.25 C26 302 26 302 26 300 C25.34 299.67 24.68 299.34 24 299 C23.33333333 297 22.66666667 295 22 293 C21.31790098 291.73549336 20.60887218 290.48517923 19.875 289.25 C18 286 18 286 18 284 C17.34 283.67 16.68 283.34 16 283 C15.24046342 281.3158102 14.48789297 279.62750502 13.796875 277.9140625 C13.05547133 276.13323996 12.18811899 274.40630764 11.3125 272.6875 C10 270 10 270 10 268 C9.34 267.67 8.68 267.34 8 267 C6.89094879 264.88820561 5.860073 262.73489529 4.875 260.5625 C4.33617187 259.38816406 3.79734375 258.21382812 3.2421875 257.00390625 C2 254 2 254 2 252 C1.34 251.67 0.68 251.34 0 251 C-1.03515625 249.1875 -1.03515625 249.1875 -2.0625 247 C-3.24468524 244.30092276 -3.24468524 244.30092276 -5 242 C-10.44842374 241.73659768 -14.79679815 242.23747741 -20.06640625 243.80078125 C-21.0563987 244.08928703 -21.0563987 244.08928703 -22.06639099 244.38362122 C-23.49085904 244.80002835 -24.91393249 245.22123093 -26.33569336 245.64678955 C-28.60551499 246.32535946 -30.87914521 246.98943814 -33.15429688 247.64990234 C-38.98134818 249.34376813 -44.80244624 251.05774871 -50.62322998 252.77301025 C-55.89394709 254.32497803 -61.168357 255.86316499 -66.44796753 257.38461304 C-68.13317674 257.87352019 -69.816762 258.36806433 -71.49856567 258.86856079 C-92.74318034 265.19034153 -92.74318034 265.19034153 -101 261.75 C-104.53204594 258.6594598 -106.63969584 256.04680295 -107.12329102 251.20068359 C-106.54481629 240.87519619 -100.69761908 230.11751742 -96.66265869 220.72769165 C-94.85572103 216.52197278 -93.07048621 212.30702204 -91.28125 208.09375 C-90.73574997 206.81181511 -90.73574997 206.81181511 -90.17922974 205.50398254 C-87.04963958 198.14220843 -83.99111679 190.75269349 -80.95950317 183.35012817 C-68.43403045 152.76635459 -55.59939892 122.31073551 -42.65068054 91.90405273 C-42.00780758 90.39435808 -41.36546692 88.88443662 -40.72370911 87.37426758 C-39.2296188 83.86297171 -37.72272609 80.35839167 -36.18554688 76.86572266 C-35.90302063 76.21976639 -35.62049438 75.57381012 -35.32940674 74.90827942 C-34.57037214 73.17574438 -33.80543317 71.44579942 -33.04003906 69.71606445 C-31.82119973 67.01779305 -31.82119973 67.01779305 -32 64 C-31.34 64 -30.68 64 -30 64 C-29.61972656 62.78570313 -29.23945313 61.57140625 -28.84765625 60.3203125 C-26.74364868 54.01689765 -24.08327248 47.96619538 -21.4375 41.875 C-20.9054641 40.64535721 -20.37364744 39.41561954 -19.84204102 38.18579102 C-19.02972617 36.30738472 -18.21685607 34.42922912 -17.40220642 32.55183411 C-15.61377474 28.42919323 -13.84799731 24.2974978 -12.09375 20.16015625 C-11.20843326 18.08589485 -10.3230217 16.01167391 -9.4375 13.9375 C-9.03265381 12.97505371 -8.62780762 12.01260742 -8.21069336 11.02099609 C-7.83050049 10.13621582 -7.45030762 9.25143555 -7.05859375 8.33984375 C-6.73173584 7.57019287 -6.40487793 6.80054199 -6.06811523 6.00756836 C-4.54202001 3.13920698 -2.90079772 1.45039886 0 0 Z " fill="#000000" transform="translate(336,616)"/>
<path d="M0 0 C0.33 0 0.66 0 1 0 C1 5.61 1 11.22 1 17 C-1.55694972 13.16457543 -1.04045639 11.34097467 -0.625 6.8125 C-0.51414062 5.54019531 -0.40328125 4.26789062 -0.2890625 2.95703125 C-0.19367187 1.98121094 -0.09828125 1.00539063 0 0 Z " fill="#C2C2C4" transform="translate(1023,552)"/>
<path d="M0 0 C2.625 0.375 2.625 0.375 5 1 C5 1.33 5 1.66 5 2 C2.69 2 0.38 2 -2 2 C-1.34 1.34 -0.68 0.68 0 0 Z " fill="#080908" transform="translate(583,688)"/>
<path d="M0 0 C0.66 0.33 1.32 0.66 2 1 C1.67 2.32 1.34 3.64 1 5 C0.34 3.68 -0.32 2.36 -1 1 C-0.67 0.67 -0.34 0.34 0 0 Z " fill="#090A09" transform="translate(209,408)"/>
<path d="M0 0 C0.99 0.495 0.99 0.495 2 1 C2 1.99 2 2.98 2 4 C1.34 3.67 0.68 3.34 0 3 C0 2.01 0 1.02 0 0 Z " fill="#E2E3E5" transform="translate(4,4)"/>
<path d="M0 0 C0.66 0.66 1.32 1.32 2 2 C0.35 2 -1.3 2 -3 2 C-2.01 1.34 -1.02 0.68 0 0 Z " fill="#080908" transform="translate(595,688)"/>
<path d="M0 0 C0.33 0 0.66 0 1 0 C1 1.98 1 3.96 1 6 C0.67 6 0.34 6 0 6 C0 4.02 0 2.04 0 0 Z " fill="#070606" transform="translate(730,350)"/>
<path d="M0 0 C1.98 0 3.96 0 6 0 C6 0.33 6 0.66 6 1 C4.02 1 2.04 1 0 1 C0 0.67 0 0.34 0 0 Z " fill="#050506" transform="translate(418,331)"/>
<path d="M0 0 C1.485 0.99 1.485 0.99 3 2 C2.01 2.33 1.02 2.66 0 3 C0 2.01 0 1.02 0 0 Z " fill="#060705" transform="translate(659,648)"/>
<path d="M0 0 C0.66 0.66 1.32 1.32 2 2 C1.01 2.33 0.02 2.66 -1 3 C-0.67 2.01 -0.34 1.02 0 0 Z " fill="#050404" transform="translate(492,440)"/>
<path d="M0 0 C1.65 0 3.3 0 5 0 C5 0.33 5 0.66 5 1 C3.35 1 1.7 1 0 1 C0 0.67 0 0.34 0 0 Z " fill="#050505" transform="translate(563,330)"/>
<path d="M0 0 C0.66 0.33 1.32 0.66 2 1 C1.34 1.66 0.68 2.32 0 3 C0 2.01 0 1.02 0 0 Z " fill="#050403" transform="translate(428,200)"/>
<path d="M0 0 C4 1 4 1 4 1 Z " fill="#070606" transform="translate(728,867)"/>
<path d="M0 0 C4 1 4 1 4 1 Z " fill="#090909" transform="translate(479,680)"/>
<path d="M0 0 C4 1 4 1 4 1 Z " fill="#050605" transform="translate(520,556)"/>
<path d="M0 0 C0.99 0.495 0.99 0.495 2 1 C1.67 1.66 1.34 2.32 1 3 C0.67 2.01 0.34 1.02 0 0 Z " fill="#050404" transform="translate(672,515)"/>
<path d="M0 0 C1 4 1 4 1 4 Z " fill="#050505" transform="translate(330,407)"/>
<path d="M0 0 C1 4 1 4 1 4 Z " fill="#060607" transform="translate(695,400)"/>
<path d="M0 0 C1 4 1 4 1 4 Z " fill="#0B0C0C" transform="translate(209,394)"/>
<path d="M0 0 C0 3 0 3 0 3 Z " fill="#070604" transform="translate(626,339)"/>
<path d="M0 0 C4 1 4 1 4 1 Z " fill="#060605" transform="translate(580,331)"/>
<path d="M0 0 C1 4 1 4 1 4 Z " fill="#060708" transform="translate(791,312)"/>
<path d="M0 0 C0.99 0.495 0.99 0.495 2 1 C1.34 1.66 0.68 2.32 0 3 C0 2.01 0 1.02 0 0 Z " fill="#040505" transform="translate(336,305)"/>
<path d="M0 0 C0.99 0.495 0.99 0.495 2 1 C1.34 1.66 0.68 2.32 0 3 C0 2.01 0 1.02 0 0 Z " fill="#050403" transform="translate(356,265)"/>
<path d="M0 0 C0.99 0.33 1.98 0.66 3 1 C2.01 1.33 1.02 1.66 0 2 C0 1.34 0 0.68 0 0 Z " fill="#090707" transform="translate(252,216)"/>
<path d="M0 0 C0.99 0.33 1.98 0.66 3 1 C2.01 1 1.02 1 0 1 C0 0.67 0 0.34 0 0 Z " fill="#050504" transform="translate(441,192)"/>
<path d="M0 0 C4 1 4 1 4 1 Z " fill="#070707" transform="translate(497,150)"/>
<path d="M0 0 C3 1 3 1 3 1 Z " fill="#080808" transform="translate(363,926)"/>
<path d="M0 0 C0.33 0.66 0.66 1.32 1 2 C0.34 1.67 -0.32 1.34 -1 1 C-0.67 0.67 -0.34 0.34 0 0 Z " fill="#040403" transform="translate(578,819)"/>
<path d="M0 0 C3 1 3 1 3 1 Z " fill="#070806" transform="translate(431,689)"/>
<path d="M0 0 C3 1 3 1 3 1 Z " fill="#090A0A" transform="translate(575,688)"/>
<path d="M0 0 C3 1 3 1 3 1 Z " fill="#080906" transform="translate(680,619)"/>
<path d="M0 0 C0.66 0.66 1.32 1.32 2 2 C1.34 2 0.68 2 0 2 C0 1.34 0 0.68 0 0 Z " fill="#080807" transform="translate(368,618)"/>
<path d="M0 0 C0.66 0 1.32 0 2 0 C1.67 0.66 1.34 1.32 1 2 C0.67 1.34 0.34 0.68 0 0 Z " fill="#080808" transform="translate(682,617)"/>
<path d="M0 0 C0.66 0 1.32 0 2 0 C1.67 0.66 1.34 1.32 1 2 C0.67 1.34 0.34 0.68 0 0 Z " fill="#050606" transform="translate(684,616)"/>
<path d="M0 0 C0.66 0.66 1.32 1.32 2 2 C1.34 2 0.68 2 0 2 C0 1.34 0 0.68 0 0 Z " fill="#070607" transform="translate(344,595)"/>
<path d="M0 0 C0.66 0.66 1.32 1.32 2 2 C1.34 2 0.68 2 0 2 C0 1.34 0 0.68 0 0 Z " fill="#070606" transform="translate(600,568)"/>
<path d="M0 0 C0.66 0 1.32 0 2 0 C1.67 0.66 1.34 1.32 1 2 C0.67 1.34 0.34 0.68 0 0 Z " fill="#0A0909" transform="translate(273,558)"/>
<path d="M0 0 C3 1 3 1 3 1 Z " fill="#050804" transform="translate(506,556)"/>
<path d="M0 0 C3 1 3 1 3 1 Z " fill="#040604" transform="translate(457,548)"/>
<path d="" fill="#090908" transform="translate(0,0)"/>
<path d="" fill="#BFC0C0" transform="translate(0,0)"/>
<path d="" fill="#0B0B0B" transform="translate(0,0)"/>
<path d="M0 0 C3 1 3 1 3 1 Z " fill="#040604" transform="translate(696,483)"/>
<path d="" fill="#050605" transform="translate(0,0)"/>
<path d="" fill="#0C0B0B" transform="translate(0,0)"/>
<path d="" fill="#060403" transform="translate(0,0)"/>
<path d="" fill="#040304" transform="translate(0,0)"/>
<path d="M0 0 C0.99 0.495 0.99 0.495 2 1 C1.01 1.495 1.01 1.495 0 2 C0 1.34 0 0.68 0 0 Z " fill="#090B09" transform="translate(209,387)"/>
<path d="" fill="#060606" transform="translate(0,0)"/>
<path d="" fill="#080807" transform="translate(0,0)"/>
<path d="" fill="#060807" transform="translate(0,0)"/>
<path d="" fill="#090808" transform="translate(0,0)"/>
<path d="M0 0 C3 1 3 1 3 1 Z " fill="#050504" transform="translate(598,331)"/>
<path d="" fill="#050606" transform="translate(0,0)"/>
<path d="M0 0 C0.66 0.66 1.32 1.32 2 2 C1.34 2 0.68 2 0 2 C0 1.34 0 0.68 0 0 Z " fill="#070604" transform="translate(724,318)"/>
<path d="M0 0 C0.33 0.66 0.66 1.32 1 2 C0.34 1.67 -0.32 1.34 -1 1 C-0.67 0.67 -0.34 0.34 0 0 Z " fill="#070605" transform="translate(721,305)"/>
<path d="" fill="#060505" transform="translate(0,0)"/>
<path d="" fill="#0D0C0C" transform="translate(0,0)"/>
<path d="M0 0 C0.33 0.66 0.66 1.32 1 2 C0.34 1.67 -0.32 1.34 -1 1 C-0.67 0.67 -0.34 0.34 0 0 Z " fill="#050304" transform="translate(593,200)"/>
<path d="M0 0 C3 1 3 1 3 1 Z " fill="#070807" transform="translate(515,150)"/>
<path d="" fill="#DBDEDF" transform="translate(0,0)"/>
<path d="" fill="#060605" transform="translate(0,0)"/>
<path d="" fill="#080705" transform="translate(0,0)"/>
<path d="M0 0 C2 1 2 1 2 1 Z " fill="#0B0D0B" transform="translate(768,878)"/>
<path d="" fill="#060706" transform="translate(0,0)"/>
<path d="M0 0 C2 1 2 1 2 1 Z " fill="#0C0C08" transform="translate(762,876)"/>
<path d="M0 0 C2 1 2 1 2 1 Z " fill="#070606" transform="translate(734,868)"/>
<path d="M0 0 C2 1 2 1 2 1 Z " fill="#0A0A08" transform="translate(290,868)"/>
<path d="M0 0 C2 1 2 1 2 1 Z " fill="#0A0A09" transform="translate(307,863)"/>
<path d="M0 0 C2 1 2 1 2 1 Z " fill="#090708" transform="translate(313,861)"/>
<path d="" fill="#050403" transform="translate(0,0)"/>
<path d="M0 0 C2 1 2 1 2 1 Z " fill="#0B0909" transform="translate(232,847)"/>
<path d="" fill="#050505" transform="translate(0,0)"/>
<path d="" fill="#050504" transform="translate(0,0)"/>
<path d="" fill="#050504" transform="translate(0,0)"/>
<path d="" fill="#070806" transform="translate(0,0)"/>
<path d="" fill="#080606" transform="translate(0,0)"/>
<path d="" fill="#050405" transform="translate(0,0)"/>
<path d="M0 0 C2 1 2 1 2 1 Z " fill="#050505" transform="translate(537,721)"/>
<path d="M0 0 C2 1 2 1 2 1 Z " fill="#080607" transform="translate(296,690)"/>
<path d="M0 0 C2 1 2 1 2 1 Z " fill="#0B0A0B" transform="translate(600,688)"/>
<path d="" fill="#060608" transform="translate(0,0)"/>
<path d="" fill="#070706" transform="translate(0,0)"/>
<path d="M0 0 C2 1 2 1 2 1 Z " fill="#0A0B0A" transform="translate(538,655)"/>
<path d="M0 0 C2 1 2 1 2 1 Z " fill="#070808" transform="translate(325,591)"/>
<path d="" fill="#070708" transform="translate(0,0)"/>
<path d="M0 0 C2 1 2 1 2 1 Z " fill="#070807" transform="translate(552,584)"/>
<path d="M0 0 C2 1 2 1 2 1 Z " fill="#070707" transform="translate(539,584)"/>
<path d="M0 0 C2 1 2 1 2 1 Z " fill="#060705" transform="translate(441,577)"/>
<path d="M0 0 C2 1 2 1 2 1 Z " fill="#050605" transform="translate(597,568)"/>
<path d="M0 0 C2 1 2 1 2 1 Z " fill="#040705" transform="translate(418,568)"/>
<path d="M0 0 C2 1 2 1 2 1 Z " fill="#050706" transform="translate(403,560)"/>
<path d="" fill="#060604" transform="translate(0,0)"/>
<path d="M0 0 C2 1 2 1 2 1 Z " fill="#090A09" transform="translate(264,544)"/>
<path d="" fill="#050606" transform="translate(0,0)"/>
<path d="M0 0 C2 1 2 1 2 1 Z " fill="#060505" transform="translate(411,527)"/>
<path d="" fill="#0A0A0A" transform="translate(0,0)"/>
<path d="" fill="#070506" transform="translate(0,0)"/>
<path d="" fill="#0B0B0B" transform="translate(0,0)"/>
<path d="" fill="#070807" transform="translate(0,0)"/>
<path d="" fill="#080707" transform="translate(0,0)"/>
<path d="" fill="#070605" transform="translate(0,0)"/>
<path d="M0 0 C2 1 2 1 2 1 Z " fill="#040504" transform="translate(360,481)"/>
<path d="" fill="#070705" transform="translate(0,0)"/>
<path d="" fill="#060505" transform="translate(0,0)"/>
<path d="M0 0 C2 1 2 1 2 1 Z " fill="#060504" transform="translate(456,464)"/>
<path d="" fill="#070405" transform="translate(0,0)"/>
<path d="" fill="#070504" transform="translate(0,0)"/>
<path d="" fill="#050403" transform="translate(0,0)"/>
<path d="" fill="#070607" transform="translate(0,0)"/>
<path d="" fill="#050403" transform="translate(0,0)"/>
<path d="" fill="#050603" transform="translate(0,0)"/>
<path d="" fill="#040604" transform="translate(0,0)"/>
<path d="M0 0 C2 1 2 1 2 1 Z " fill="#070607" transform="translate(507,432)"/>
<path d="" fill="#080706" transform="translate(0,0)"/>
<path d="" fill="#050605" transform="translate(0,0)"/>
<path d="" fill="#050504" transform="translate(0,0)"/>
<path d="" fill="#0C0A0A" transform="translate(0,0)"/>
<path d="" fill="#070606" transform="translate(0,0)"/>
<path d="" fill="#050604" transform="translate(0,0)"/>
<path d="" fill="#050403" transform="translate(0,0)"/>
<path d="" fill="#040405" transform="translate(0,0)"/>
<path d="" fill="#060706" transform="translate(0,0)"/>
<path d="" fill="#060604" transform="translate(0,0)"/>
<path d="M0 0 C2 1 2 1 2 1 Z " fill="#080807" transform="translate(590,331)"/>
<path d="M0 0 C2 1 2 1 2 1 Z " fill="#050505" transform="translate(429,331)"/>
<path d="M0 0 C2 1 2 1 2 1 Z " fill="#060504" transform="translate(558,330)"/>
<path d="M0 0 C2 1 2 1 2 1 Z " fill="#060504" transform="translate(454,330)"/>
<path d="" fill="#060706" transform="translate(0,0)"/>
<path d="" fill="#060505" transform="translate(0,0)"/>
<path d="M0 0 C2 1 2 1 2 1 Z " fill="#040404" transform="translate(301,314)"/>
<path d="M0 0 C2 1 2 1 2 1 Z " fill="#070706" transform="translate(537,312)"/>
<path d="" fill="#040503" transform="translate(0,0)"/>
<path d="M0 0 C2 1 2 1 2 1 Z " fill="#060505" transform="translate(302,307)"/>
<path d="" fill="#050605" transform="translate(0,0)"/>
<path d="" fill="#070806" transform="translate(0,0)"/>
<path d="" fill="#0A0909" transform="translate(0,0)"/>
<path d="M0 0 C2 1 2 1 2 1 Z " fill="#040303" transform="translate(346,282)"/>
<path d="" fill="#070504" transform="translate(0,0)"/>
<path d="M0 0 C2 1 2 1 2 1 Z " fill="#060606" transform="translate(417,208)"/>
<path d="M0 0 C2 1 2 1 2 1 Z " fill="#0B0D0C" transform="translate(265,208)"/>
<path d="" fill="#0A0A0A" transform="translate(0,0)"/>
<path d="M0 0 C2 1 2 1 2 1 Z " fill="#060504" transform="translate(445,192)"/>
<path d="M0 0 C2 1 2 1 2 1 Z " fill="#060605" transform="translate(543,184)"/>
<path d="M0 0 C2 1 2 1 2 1 Z " fill="#060605" transform="translate(468,184)"/>
<path d="M0 0 C2 1 2 1 2 1 Z " fill="#040604" transform="translate(465,184)"/>
<path d="M0 0 C2 1 2 1 2 1 Z " fill="#060506" transform="translate(412,173)"/>
<path d="" fill="#070506" transform="translate(0,0)"/>
<path d="M0 0 C2 1 2 1 2 1 Z " fill="#040403" transform="translate(585,163)"/>
<path d="M0 0 C2 1 2 1 2 1 Z " fill="#050404" transform="translate(565,156)"/>
<path d="M0 0 C2 1 2 1 2 1 Z " fill="#090907" transform="translate(523,150)"/>
<path d="M0 0 C2 1 2 1 2 1 Z " fill="#070706" transform="translate(507,150)"/>
<path d="M0 0 C2 1 2 1 2 1 Z " fill="#070707" transform="translate(491,150)"/>
<path d="M0 0 C2 1 2 1 2 1 Z " fill="#0C0C0A" transform="translate(610,101)"/>
<path d="M0 0 C2 1 2 1 2 1 Z " fill="#0B0B09" transform="translate(603,101)"/>
<path d="M0 0 C2 1 2 1 2 1 Z " fill="#090907" transform="translate(595,100)"/>
<path d="M0 0 C2 1 2 1 2 1 Z " fill="#0A0C0C" transform="translate(471,72)"/>
<path d="M0 0 C2 1 2 1 2 1 Z " fill="#E0E1E2" transform="translate(4,12)"/>
<path d="" fill="#070908" transform="translate(0,0)"/>
<path d="" fill="#0F100E" transform="translate(0,0)"/>
<path d="" fill="#0A0A09" transform="translate(0,0)"/>
<path d="" fill="#080709" transform="translate(0,0)"/>
<path d="" fill="#0B0A08" transform="translate(0,0)"/>
<path d="" fill="#080607" transform="translate(0,0)"/>
<path d="" fill="#0B0809" transform="translate(0,0)"/>
<path d="" fill="#090907" transform="translate(0,0)"/>
<path d="" fill="#080707" transform="translate(0,0)"/>
<path d="" fill="#0B0909" transform="translate(0,0)"/>
<path d="" fill="#070A07" transform="translate(0,0)"/>
<path d="" fill="#080708" transform="translate(0,0)"/>
<path d="" fill="#090807" transform="translate(0,0)"/>
<path d="" fill="#060606" transform="translate(0,0)"/>
<path d="" fill="#060706" transform="translate(0,0)"/>
<path d="" fill="#060605" transform="translate(0,0)"/>
<path d="" fill="#070606" transform="translate(0,0)"/>
<path d="" fill="#030203" transform="translate(0,0)"/>
<path d="" fill="#080506" transform="translate(0,0)"/>
<path d="" fill="#070707" transform="translate(0,0)"/>
<path d="" fill="#060706" transform="translate(0,0)"/>
<path d="" fill="#070708" transform="translate(0,0)"/>
<path d="" fill="#070606" transform="translate(0,0)"/>
<path d="" fill="#0B0B0B" transform="translate(0,0)"/>
<path d="" fill="#0E0D0E" transform="translate(0,0)"/>
<path d="" fill="#08080A" transform="translate(0,0)"/>
<path d="" fill="#070606" transform="translate(0,0)"/>
<path d="" fill="#0B0A08" transform="translate(0,0)"/>
<path d="" fill="#060507" transform="translate(0,0)"/>
<path d="" fill="#0B0A09" transform="translate(0,0)"/>
<path d="" fill="#070605" transform="translate(0,0)"/>
<path d="" fill="#0B0807" transform="translate(0,0)"/>
<path d="" fill="#080808" transform="translate(0,0)"/>
<path d="" fill="#090907" transform="translate(0,0)"/>
<path d="" fill="#0A0B09" transform="translate(0,0)"/>
<path d="" fill="#121512" transform="translate(0,0)"/>
<path d="" fill="#050606" transform="translate(0,0)"/>
<path d="" fill="#121111" transform="translate(0,0)"/>
<path d="" fill="#0F1010" transform="translate(0,0)"/>
<path d="" fill="#080709" transform="translate(0,0)"/>
<path d="" fill="#0C0E0C" transform="translate(0,0)"/>
<path d="" fill="#0A0909" transform="translate(0,0)"/>
<path d="" fill="#060604" transform="translate(0,0)"/>
<path d="" fill="#080906" transform="translate(0,0)"/>
<path d="" fill="#0B0909" transform="translate(0,0)"/>
<path d="" fill="#0B0A09" transform="translate(0,0)"/>
<path d="" fill="#090A09" transform="translate(0,0)"/>
<path d="" fill="#0F110F" transform="translate(0,0)"/>
<path d="" fill="#090707" transform="translate(0,0)"/>
<path d="" fill="#070608" transform="translate(0,0)"/>
<path d="" fill="#060604" transform="translate(0,0)"/>
<path d="" fill="#080806" transform="translate(0,0)"/>
<path d="" fill="#080A08" transform="translate(0,0)"/>
<path d="" fill="#0A0806" transform="translate(0,0)"/>
<path d="" fill="#080606" transform="translate(0,0)"/>
<path d="" fill="#060504" transform="translate(0,0)"/>
<path d="" fill="#040405" transform="translate(0,0)"/>
<path d="" fill="#0E0D0E" transform="translate(0,0)"/>
<path d="" fill="#090708" transform="translate(0,0)"/>
<path d="" fill="#070706" transform="translate(0,0)"/>
<path d="" fill="#060506" transform="translate(0,0)"/>
<path d="" fill="#0B0908" transform="translate(0,0)"/>
<path d="" fill="#060606" transform="translate(0,0)"/>
<path d="" fill="#040605" transform="translate(0,0)"/>
<path d="" fill="#090609" transform="translate(0,0)"/>
<path d="" fill="#070705" transform="translate(0,0)"/>
<path d="" fill="#030705" transform="translate(0,0)"/>
<path d="" fill="#070608" transform="translate(0,0)"/>
<path d="" fill="#0C0A09" transform="translate(0,0)"/>
<path d="" fill="#050705" transform="translate(0,0)"/>
<path d="" fill="#060504" transform="translate(0,0)"/>
<path d="" fill="#080707" transform="translate(0,0)"/>
<path d="" fill="#070906" transform="translate(0,0)"/>
<path d="" fill="#090605" transform="translate(0,0)"/>
<path d="" fill="#040503" transform="translate(0,0)"/>
<path d="" fill="#0A0B08" transform="translate(0,0)"/>
<path d="" fill="#040403" transform="translate(0,0)"/>
<path d="" fill="#080706" transform="translate(0,0)"/>
<path d="" fill="#070706" transform="translate(0,0)"/>
<path d="" fill="#060607" transform="translate(0,0)"/>
<path d="" fill="#070507" transform="translate(0,0)"/>
<path d="" fill="#050604" transform="translate(0,0)"/>
<path d="" fill="#080706" transform="translate(0,0)"/>
<path d="" fill="#050604" transform="translate(0,0)"/>
<path d="" fill="#030403" transform="translate(0,0)"/>
<path d="" fill="#060608" transform="translate(0,0)"/>
<path d="" fill="#070808" transform="translate(0,0)"/>
<path d="" fill="#060605" transform="translate(0,0)"/>
<path d="" fill="#030403" transform="translate(0,0)"/>
<path d="" fill="#080907" transform="translate(0,0)"/>
<path d="" fill="#050304" transform="translate(0,0)"/>
<path d="" fill="#060706" transform="translate(0,0)"/>
<path d="" fill="#050806" transform="translate(0,0)"/>
<path d="" fill="#040306" transform="translate(0,0)"/>
<path d="" fill="#050806" transform="translate(0,0)"/>
<path d="" fill="#050505" transform="translate(0,0)"/>
<path d="" fill="#050504" transform="translate(0,0)"/>
<path d="" fill="#060908" transform="translate(0,0)"/>
<path d="" fill="#060705" transform="translate(0,0)"/>
<path d="" fill="#050604" transform="translate(0,0)"/>
<path d="" fill="#050504" transform="translate(0,0)"/>
<path d="" fill="#030304" transform="translate(0,0)"/>
<path d="" fill="#0A090A" transform="translate(0,0)"/>
<path d="" fill="#040503" transform="translate(0,0)"/>
<path d="" fill="#050604" transform="translate(0,0)"/>
<path d="" fill="#070807" transform="translate(0,0)"/>
<path d="" fill="#070808" transform="translate(0,0)"/>
<path d="" fill="#060705" transform="translate(0,0)"/>
<path d="" fill="#070606" transform="translate(0,0)"/>
<path d="" fill="#070506" transform="translate(0,0)"/>
<path d="" fill="#050404" transform="translate(0,0)"/>
<path d="" fill="#060607" transform="translate(0,0)"/>
<path d="" fill="#060406" transform="translate(0,0)"/>
<path d="" fill="#060704" transform="translate(0,0)"/>
<path d="" fill="#0B090A" transform="translate(0,0)"/>
<path d="" fill="#0A0405" transform="translate(0,0)"/>
<path d="" fill="#060604" transform="translate(0,0)"/>
<path d="" fill="#080A07" transform="translate(0,0)"/>
<path d="" fill="#0B0B0A" transform="translate(0,0)"/>
<path d="" fill="#090B08" transform="translate(0,0)"/>
<path d="" fill="#0B0B0B" transform="translate(0,0)"/>
<path d="" fill="#090808" transform="translate(0,0)"/>
<path d="" fill="#090B0A" transform="translate(0,0)"/>
<path d="" fill="#090A08" transform="translate(0,0)"/>
<path d="" fill="#090B0A" transform="translate(0,0)"/>
<path d="" fill="#090A0A" transform="translate(0,0)"/>
<path d="" fill="#0B0A0A" transform="translate(0,0)"/>
<path d="" fill="#050808" transform="translate(0,0)"/>
<path d="" fill="#060403" transform="translate(0,0)"/>
<path d="" fill="#0A0909" transform="translate(0,0)"/>
<path d="" fill="#060908" transform="translate(0,0)"/>
<path d="" fill="#0B080A" transform="translate(0,0)"/>
<path d="" fill="#070708" transform="translate(0,0)"/>
<path d="" fill="#0B0D0A" transform="translate(0,0)"/>
<path d="" fill="#080909" transform="translate(0,0)"/>
<path d="" fill="#080709" transform="translate(0,0)"/>
<path d="" fill="#0A0908" transform="translate(0,0)"/>
<path d="" fill="#0A0909" transform="translate(0,0)"/>
<path d="" fill="#070707" transform="translate(0,0)"/>
<path d="" fill="#040506" transform="translate(0,0)"/>
<path d="" fill="#0B0909" transform="translate(0,0)"/>
<path d="" fill="#070709" transform="translate(0,0)"/>
<path d="" fill="#050807" transform="translate(0,0)"/>
<path d="" fill="#080807" transform="translate(0,0)"/>
<path d="" fill="#080505" transform="translate(0,0)"/>
<path d="" fill="#090908" transform="translate(0,0)"/>
<path d="" fill="#070807" transform="translate(0,0)"/>
<path d="" fill="#060807" transform="translate(0,0)"/>
<path d="" fill="#080B08" transform="translate(0,0)"/>
<path d="" fill="#090706" transform="translate(0,0)"/>
<path d="" fill="#070606" transform="translate(0,0)"/>
<path d="" fill="#090806" transform="translate(0,0)"/>
<path d="" fill="#060705" transform="translate(0,0)"/>
<path d="" fill="#080606" transform="translate(0,0)"/>
<path d="" fill="#070506" transform="translate(0,0)"/>
<path d="" fill="#040604" transform="translate(0,0)"/>
<path d="" fill="#08090A" transform="translate(0,0)"/>
<path d="" fill="#0A090B" transform="translate(0,0)"/>
<path d="" fill="#0A0808" transform="translate(0,0)"/>
<path d="" fill="#080805" transform="translate(0,0)"/>
<path d="" fill="#080808" transform="translate(0,0)"/>
<path d="" fill="#070608" transform="translate(0,0)"/>
<path d="" fill="#0A090C" transform="translate(0,0)"/>
<path d="" fill="#0E0C0C" transform="translate(0,0)"/>
<path d="" fill="#060808" transform="translate(0,0)"/>
<path d="" fill="#080706" transform="translate(0,0)"/>
<path d="" fill="#050605" transform="translate(0,0)"/>
<path d="" fill="#060706" transform="translate(0,0)"/>
<path d="" fill="#0A090B" transform="translate(0,0)"/>
<path d="" fill="#060605" transform="translate(0,0)"/>
<path d="" fill="#0D0C0A" transform="translate(0,0)"/>
<path d="" fill="#050606" transform="translate(0,0)"/>
<path d="" fill="#090808" transform="translate(0,0)"/>
<path d="" fill="#070707" transform="translate(0,0)"/>
<path d="" fill="#090808" transform="translate(0,0)"/>
<path d="" fill="#060605" transform="translate(0,0)"/>
<path d="" fill="#050504" transform="translate(0,0)"/>
<path d="" fill="#070606" transform="translate(0,0)"/>
<path d="" fill="#CDCFD0" transform="translate(0,0)"/>
<path d="" fill="#050506" transform="translate(0,0)"/>
<path d="" fill="#CDCECD" transform="translate(0,0)"/>
<path d="" fill="#CFD0D0" transform="translate(0,0)"/>
<path d="" fill="#CFCECF" transform="translate(0,0)"/>
<path d="" fill="#090806" transform="translate(0,0)"/>
<path d="" fill="#CDCDCD" transform="translate(0,0)"/>
<path d="" fill="#0A0809" transform="translate(0,0)"/>
<path d="" fill="#070706" transform="translate(0,0)"/>
<path d="" fill="#080707" transform="translate(0,0)"/>
<path d="" fill="#060506" transform="translate(0,0)"/>
<path d="" fill="#CCCBCF" transform="translate(0,0)"/>
<path d="" fill="#0A0B08" transform="translate(0,0)"/>
<path d="" fill="#BFBDC0" transform="translate(0,0)"/>
<path d="" fill="#090705" transform="translate(0,0)"/>
<path d="" fill="#CBCACB" transform="translate(0,0)"/>
<path d="" fill="#050604" transform="translate(0,0)"/>
<path d="" fill="#050606" transform="translate(0,0)"/>
<path d="" fill="#C0BFC4" transform="translate(0,0)"/>
<path d="" fill="#080808" transform="translate(0,0)"/>
<path d="" fill="#080806" transform="translate(0,0)"/>
<path d="" fill="#060808" transform="translate(0,0)"/>
<path d="" fill="#C2C4C4" transform="translate(0,0)"/>
<path d="" fill="#0A0909" transform="translate(0,0)"/>
<path d="" fill="#070707" transform="translate(0,0)"/>
<path d="" fill="#0B0C0A" transform="translate(0,0)"/>
<path d="" fill="#050804" transform="translate(0,0)"/>
<path d="" fill="#070705" transform="translate(0,0)"/>
<path d="" fill="#060706" transform="translate(0,0)"/>
<path d="" fill="#040403" transform="translate(0,0)"/>
<path d="" fill="#090808" transform="translate(0,0)"/>
<path d="" fill="#080909" transform="translate(0,0)"/>
<path d="" fill="#C2C3C3" transform="translate(0,0)"/>
<path d="" fill="#080708" transform="translate(0,0)"/>
<path d="" fill="#060607" transform="translate(0,0)"/>
<path d="" fill="#050806" transform="translate(0,0)"/>
<path d="" fill="#0A0A08" transform="translate(0,0)"/>
<path d="" fill="#0E0D0E" transform="translate(0,0)"/>
<path d="" fill="#060604" transform="translate(0,0)"/>
<path d="" fill="#0C0E0B" transform="translate(0,0)"/>
<path d="" fill="#070A06" transform="translate(0,0)"/>
<path d="" fill="#0A0909" transform="translate(0,0)"/>
<path d="" fill="#050506" transform="translate(0,0)"/>
<path d="" fill="#090708" transform="translate(0,0)"/>
<path d="" fill="#080806" transform="translate(0,0)"/>
<path d="" fill="#090908" transform="translate(0,0)"/>
<path d="" fill="#050304" transform="translate(0,0)"/>
<path d="" fill="#090705" transform="translate(0,0)"/>
<path d="" fill="#060805" transform="translate(0,0)"/>
<path d="" fill="#060504" transform="translate(0,0)"/>
<path d="" fill="#050605" transform="translate(0,0)"/>
<path d="" fill="#0F0E0D" transform="translate(0,0)"/>
<path d="" fill="#050404" transform="translate(0,0)"/>
<path d="" fill="#060804" transform="translate(0,0)"/>
<path d="" fill="#090A0A" transform="translate(0,0)"/>
<path d="" fill="#030606" transform="translate(0,0)"/>
<path d="" fill="#050404" transform="translate(0,0)"/>
<path d="" fill="#050706" transform="translate(0,0)"/>
<path d="" fill="#040404" transform="translate(0,0)"/>
<path d="" fill="#070707" transform="translate(0,0)"/>
<path d="" fill="#050605" transform="translate(0,0)"/>
<path d="" fill="#050505" transform="translate(0,0)"/>
<path d="" fill="#040606" transform="translate(0,0)"/>
<path d="" fill="#060804" transform="translate(0,0)"/>
<path d="" fill="#040404" transform="translate(0,0)"/>
<path d="" fill="#030405" transform="translate(0,0)"/>
<path d="" fill="#040405" transform="translate(0,0)"/>
<path d="" fill="#060607" transform="translate(0,0)"/>
<path d="" fill="#070705" transform="translate(0,0)"/>
<path d="" fill="#070708" transform="translate(0,0)"/>
<path d="" fill="#070505" transform="translate(0,0)"/>
<path d="" fill="#060707" transform="translate(0,0)"/>
<path d="" fill="#090809" transform="translate(0,0)"/>
<path d="" fill="#070706" transform="translate(0,0)"/>
<path d="" fill="#070505" transform="translate(0,0)"/>
<path d="" fill="#060706" transform="translate(0,0)"/>
<path d="" fill="#0D0B0E" transform="translate(0,0)"/>
<path d="" fill="#040502" transform="translate(0,0)"/>
<path d="" fill="#C1C2C4" transform="translate(0,0)"/>
<path d="" fill="#0A090A" transform="translate(0,0)"/>
<path d="" fill="#070505" transform="translate(0,0)"/>
<path d="" fill="#040606" transform="translate(0,0)"/>
<path d="" fill="#070806" transform="translate(0,0)"/>
<path d="" fill="#0B0B0A" transform="translate(0,0)"/>
<path d="" fill="#080809" transform="translate(0,0)"/>
<path d="" fill="#C1C1C3" transform="translate(0,0)"/>
<path d="" fill="#0A080A" transform="translate(0,0)"/>
<path d="" fill="#040304" transform="translate(0,0)"/>
<path d="" fill="#0B090A" transform="translate(0,0)"/>
<path d="" fill="#BFC0C0" transform="translate(0,0)"/>
<path d="" fill="#0A0808" transform="translate(0,0)"/>
<path d="" fill="#080B08" transform="translate(0,0)"/>
<path d="" fill="#070604" transform="translate(0,0)"/>
<path d="" fill="#080605" transform="translate(0,0)"/>
<path d="" fill="#070505" transform="translate(0,0)"/>
<path d="" fill="#0C0B0A" transform="translate(0,0)"/>
<path d="" fill="#080605" transform="translate(0,0)"/>
<path d="" fill="#040604" transform="translate(0,0)"/>
<path d="" fill="#040404" transform="translate(0,0)"/>
<path d="" fill="#040503" transform="translate(0,0)"/>
<path d="" fill="#020201" transform="translate(0,0)"/>
<path d="" fill="#050305" transform="translate(0,0)"/>
<path d="" fill="#050503" transform="translate(0,0)"/>
<path d="" fill="#040405" transform="translate(0,0)"/>
<path d="" fill="#BEBEBF" transform="translate(0,0)"/>
<path d="" fill="#020302" transform="translate(0,0)"/>
<path d="" fill="#0A0B09" transform="translate(0,0)"/>
<path d="" fill="#040606" transform="translate(0,0)"/>
<path d="" fill="#050504" transform="translate(0,0)"/>
<path d="" fill="#BCBFBF" transform="translate(0,0)"/>
<path d="" fill="#050604" transform="translate(0,0)"/>
<path d="" fill="#070604" transform="translate(0,0)"/>
<path d="" fill="#050404" transform="translate(0,0)"/>
<path d="" fill="#050504" transform="translate(0,0)"/>
<path d="" fill="#080B07" transform="translate(0,0)"/>
<path d="" fill="#080B09" transform="translate(0,0)"/>
<path d="" fill="#050406" transform="translate(0,0)"/>
<path d="" fill="#060405" transform="translate(0,0)"/>
<path d="" fill="#060604" transform="translate(0,0)"/>
<path d="" fill="#020302" transform="translate(0,0)"/>
<path d="" fill="#0A0C0C" transform="translate(0,0)"/>
<path d="" fill="#030504" transform="translate(0,0)"/>
<path d="" fill="#090606" transform="translate(0,0)"/>
<path d="" fill="#0B0A0C" transform="translate(0,0)"/>
<path d="" fill="#050404" transform="translate(0,0)"/>
<path d="" fill="#050605" transform="translate(0,0)"/>
<path d="" fill="#050502" transform="translate(0,0)"/>
<path d="" fill="#040304" transform="translate(0,0)"/>
<path d="" fill="#050503" transform="translate(0,0)"/>
<path d="" fill="#040503" transform="translate(0,0)"/>
<path d="" fill="#050405" transform="translate(0,0)"/>
<path d="" fill="#060506" transform="translate(0,0)"/>
<path d="" fill="#090805" transform="translate(0,0)"/>
<path d="" fill="#0A0B0A" transform="translate(0,0)"/>
<path d="" fill="#060605" transform="translate(0,0)"/>
<path d="" fill="#040403" transform="translate(0,0)"/>
<path d="" fill="#0A0A0B" transform="translate(0,0)"/>
<path d="" fill="#040404" transform="translate(0,0)"/>
<path d="" fill="#040203" transform="translate(0,0)"/>
<path d="" fill="#050505" transform="translate(0,0)"/>
<path d="" fill="#040304" transform="translate(0,0)"/>
<path d="" fill="#080806" transform="translate(0,0)"/>
<path d="" fill="#040604" transform="translate(0,0)"/>
<path d="" fill="#050705" transform="translate(0,0)"/>
<path d="" fill="#080504" transform="translate(0,0)"/>
<path d="" fill="#070805" transform="translate(0,0)"/>
<path d="" fill="#090707" transform="translate(0,0)"/>
<path d="" fill="#060706" transform="translate(0,0)"/>
<path d="" fill="#070607" transform="translate(0,0)"/>
<path d="" fill="#040406" transform="translate(0,0)"/>
<path d="" fill="#090A07" transform="translate(0,0)"/>
<path d="" fill="#050402" transform="translate(0,0)"/>
<path d="" fill="#080604" transform="translate(0,0)"/>
<path d="" fill="#060606" transform="translate(0,0)"/>
<path d="" fill="#050706" transform="translate(0,0)"/>
<path d="" fill="#080606" transform="translate(0,0)"/>
<path d="" fill="#090A08" transform="translate(0,0)"/>
<path d="" fill="#060605" transform="translate(0,0)"/>
<path d="" fill="#060605" transform="translate(0,0)"/>
<path d="" fill="#080607" transform="translate(0,0)"/>
<path d="" fill="#040603" transform="translate(0,0)"/>
<path d="" fill="#060506" transform="translate(0,0)"/>
<path d="" fill="#040606" transform="translate(0,0)"/>
<path d="" fill="#040406" transform="translate(0,0)"/>
<path d="" fill="#0C0B0A" transform="translate(0,0)"/>
<path d="" fill="#040302" transform="translate(0,0)"/>
<path d="" fill="#050405" transform="translate(0,0)"/>
<path d="" fill="#080707" transform="translate(0,0)"/>
<path d="" fill="#040403" transform="translate(0,0)"/>
<path d="" fill="#080505" transform="translate(0,0)"/>
<path d="" fill="#040203" transform="translate(0,0)"/>
<path d="" fill="#040505" transform="translate(0,0)"/>
<path d="" fill="#070706" transform="translate(0,0)"/>
<path d="" fill="#070505" transform="translate(0,0)"/>
<path d="" fill="#0C0D0D" transform="translate(0,0)"/>
<path d="" fill="#050505" transform="translate(0,0)"/>
<path d="" fill="#0B0908" transform="translate(0,0)"/>
<path d="" fill="#070805" transform="translate(0,0)"/>
<path d="" fill="#050404" transform="translate(0,0)"/>
<path d="" fill="#070907" transform="translate(0,0)"/>
<path d="" fill="#090A09" transform="translate(0,0)"/>
<path d="" fill="#050506" transform="translate(0,0)"/>
<path d="" fill="#050707" transform="translate(0,0)"/>
<path d="" fill="#020504" transform="translate(0,0)"/>
<path d="" fill="#0E0F0C" transform="translate(0,0)"/>
<path d="" fill="#090807" transform="translate(0,0)"/>
<path d="" fill="#080705" transform="translate(0,0)"/>
<path d="" fill="#070705" transform="translate(0,0)"/>
<path d="" fill="#030405" transform="translate(0,0)"/>
<path d="" fill="#060404" transform="translate(0,0)"/>
<path d="" fill="#070803" transform="translate(0,0)"/>
<path d="" fill="#040504" transform="translate(0,0)"/>
<path d="" fill="#060504" transform="translate(0,0)"/>
<path d="" fill="#0D0C0E" transform="translate(0,0)"/>
<path d="" fill="#060907" transform="translate(0,0)"/>
<path d="" fill="#0D0D0B" transform="translate(0,0)"/>
<path d="" fill="#0B0D0B" transform="translate(0,0)"/>
<path d="" fill="#060707" transform="translate(0,0)"/>
<path d="" fill="#050504" transform="translate(0,0)"/>
<path d="" fill="#0B0D0B" transform="translate(0,0)"/>
<path d="" fill="#060505" transform="translate(0,0)"/>
<path d="" fill="#0E0F0B" transform="translate(0,0)"/>
<path d="" fill="#060605" transform="translate(0,0)"/>
<path d="" fill="#070606" transform="translate(0,0)"/>
<path d="" fill="#060606" transform="translate(0,0)"/>
<path d="" fill="#060203" transform="translate(0,0)"/>
<path d="" fill="#040506" transform="translate(0,0)"/>
<path d="" fill="#070504" transform="translate(0,0)"/>
<path d="" fill="#070809" transform="translate(0,0)"/>
<path d="" fill="#060406" transform="translate(0,0)"/>
<path d="" fill="#040303" transform="translate(0,0)"/>
<path d="" fill="#070609" transform="translate(0,0)"/>
<path d="" fill="#0B0B0C" transform="translate(0,0)"/>
<path d="" fill="#060608" transform="translate(0,0)"/>
<path d="" fill="#070707" transform="translate(0,0)"/>
<path d="" fill="#0C0B0A" transform="translate(0,0)"/>
<path d="" fill="#09090A" transform="translate(0,0)"/>
<path d="" fill="#060403" transform="translate(0,0)"/>
<path d="" fill="#040403" transform="translate(0,0)"/>
<path d="" fill="#0D0D0D" transform="translate(0,0)"/>
<path d="" fill="#080808" transform="translate(0,0)"/>
<path d="" fill="#090909" transform="translate(0,0)"/>
<path d="" fill="#0E0E0C" transform="translate(0,0)"/>
<path d="" fill="#060705" transform="translate(0,0)"/>
<path d="" fill="#080806" transform="translate(0,0)"/>
<path d="" fill="#080808" transform="translate(0,0)"/>
<path d="" fill="#0D0C0D" transform="translate(0,0)"/>
<path d="" fill="#080607" transform="translate(0,0)"/>
<path d="" fill="#050405" transform="translate(0,0)"/>
<path d="" fill="#080705" transform="translate(0,0)"/>
<path d="" fill="#050402" transform="translate(0,0)"/>
<path d="" fill="#0C0A09" transform="translate(0,0)"/>
<path d="" fill="#080A07" transform="translate(0,0)"/>
<path d="" fill="#040503" transform="translate(0,0)"/>
<path d="" fill="#060404" transform="translate(0,0)"/>
<path d="" fill="#0A0809" transform="translate(0,0)"/>
<path d="" fill="#070705" transform="translate(0,0)"/>
<path d="" fill="#030503" transform="translate(0,0)"/>
<path d="" fill="#040705" transform="translate(0,0)"/>
<path d="" fill="#050503" transform="translate(0,0)"/>
<path d="" fill="#0C0A0C" transform="translate(0,0)"/>
<path d="" fill="#070707" transform="translate(0,0)"/>
<path d="" fill="#080708" transform="translate(0,0)"/>
<path d="" fill="#050506" transform="translate(0,0)"/>
<path d="" fill="#070807" transform="translate(0,0)"/>
<path d="" fill="#040405" transform="translate(0,0)"/>
<path d="" fill="#060606" transform="translate(0,0)"/>
<path d="" fill="#050704" transform="translate(0,0)"/>
<path d="" fill="#070506" transform="translate(0,0)"/>
<path d="" fill="#060507" transform="translate(0,0)"/>
<path d="" fill="#0A0B0A" transform="translate(0,0)"/>
<path d="" fill="#050607" transform="translate(0,0)"/>
<path d="" fill="#050505" transform="translate(0,0)"/>
<path d="" fill="#080708" transform="translate(0,0)"/>
<path d="" fill="#080808" transform="translate(0,0)"/>
<path d="" fill="#060508" transform="translate(0,0)"/>
<path d="" fill="#090A07" transform="translate(0,0)"/>
<path d="" fill="#020402" transform="translate(0,0)"/>
<path d="" fill="#040706" transform="translate(0,0)"/>
<path d="" fill="#060705" transform="translate(0,0)"/>
<path d="" fill="#080805" transform="translate(0,0)"/>
<path d="" fill="#070705" transform="translate(0,0)"/>
<path d="" fill="#060604" transform="translate(0,0)"/>
<path d="" fill="#070605" transform="translate(0,0)"/>
<path d="" fill="#040303" transform="translate(0,0)"/>
<path d="" fill="#070504" transform="translate(0,0)"/>
<path d="" fill="#060604" transform="translate(0,0)"/>
<path d="" fill="#090A07" transform="translate(0,0)"/>
<path d="" fill="#050705" transform="translate(0,0)"/>
<path d="" fill="#040405" transform="translate(0,0)"/>
<path d="" fill="#050505" transform="translate(0,0)"/>
<path d="" fill="#030603" transform="translate(0,0)"/>
<path d="" fill="#070705" transform="translate(0,0)"/>
<path d="" fill="#010300" transform="translate(0,0)"/>
<path d="" fill="#050805" transform="translate(0,0)"/>
<path d="" fill="#050306" transform="translate(0,0)"/>
<path d="" fill="#000001" transform="translate(0,0)"/>
<path d="" fill="#050505" transform="translate(0,0)"/>
<path d="" fill="#050404" transform="translate(0,0)"/>
<path d="" fill="#070606" transform="translate(0,0)"/>
<path d="" fill="#080707" transform="translate(0,0)"/>
<path d="" fill="#0A0606" transform="translate(0,0)"/>
<path d="" fill="#08090A" transform="translate(0,0)"/>
<path d="" fill="#080A07" transform="translate(0,0)"/>
<path d="" fill="#070605" transform="translate(0,0)"/>
<path d="" fill="#060405" transform="translate(0,0)"/>
<path d="" fill="#060706" transform="translate(0,0)"/>
<path d="" fill="#030605" transform="translate(0,0)"/>
<path d="" fill="#070709" transform="translate(0,0)"/>
<path d="" fill="#050506" transform="translate(0,0)"/>
<path d="" fill="#080606" transform="translate(0,0)"/>
<path d="" fill="#060506" transform="translate(0,0)"/>
<path d="" fill="#070607" transform="translate(0,0)"/>
<path d="" fill="#060504" transform="translate(0,0)"/>
<path d="" fill="#060806" transform="translate(0,0)"/>
<path d="" fill="#0A0A07" transform="translate(0,0)"/>
<path d="" fill="#060506" transform="translate(0,0)"/>
<path d="" fill="#050601" transform="translate(0,0)"/>
<path d="" fill="#050505" transform="translate(0,0)"/>
<path d="" fill="#080607" transform="translate(0,0)"/>
<path d="" fill="#050605" transform="translate(0,0)"/>
<path d="" fill="#090708" transform="translate(0,0)"/>
<path d="" fill="#050605" transform="translate(0,0)"/>
<path d="" fill="#070404" transform="translate(0,0)"/>
<path d="" fill="#060304" transform="translate(0,0)"/>
<path d="" fill="#040605" transform="translate(0,0)"/>
<path d="" fill="#060505" transform="translate(0,0)"/>
<path d="" fill="#080809" transform="translate(0,0)"/>
<path d="" fill="#050506" transform="translate(0,0)"/>
<path d="" fill="#060607" transform="translate(0,0)"/>
<path d="" fill="#070605" transform="translate(0,0)"/>
<path d="" fill="#070505" transform="translate(0,0)"/>
<path d="" fill="#080807" transform="translate(0,0)"/>
<path d="" fill="#080506" transform="translate(0,0)"/>
<path d="" fill="#070504" transform="translate(0,0)"/>
<path d="" fill="#090A08" transform="translate(0,0)"/>
<path d="" fill="#0B0C0B" transform="translate(0,0)"/>
<path d="" fill="#050505" transform="translate(0,0)"/>
<path d="" fill="#040503" transform="translate(0,0)"/>
<path d="" fill="#0A0A06" transform="translate(0,0)"/>
<path d="" fill="#050605" transform="translate(0,0)"/>
<path d="" fill="#0B0B0A" transform="translate(0,0)"/>
<path d="" fill="#080705" transform="translate(0,0)"/>
<path d="" fill="#0A0A0D" transform="translate(0,0)"/>
<path d="" fill="#090B0A" transform="translate(0,0)"/>
<path d="" fill="#020404" transform="translate(0,0)"/>
<path d="" fill="#050504" transform="translate(0,0)"/>
<path d="" fill="#0C0A0B" transform="translate(0,0)"/>
<path d="" fill="#050404" transform="translate(0,0)"/>
<path d="" fill="#030303" transform="translate(0,0)"/>
<path d="" fill="#080606" transform="translate(0,0)"/>
<path d="" fill="#020404" transform="translate(0,0)"/>
<path d="" fill="#050303" transform="translate(0,0)"/>
<path d="" fill="#0A0A0B" transform="translate(0,0)"/>
<path d="" fill="#060705" transform="translate(0,0)"/>
<path d="" fill="#0D0B0B" transform="translate(0,0)"/>
<path d="" fill="#0D0A0A" transform="translate(0,0)"/>
<path d="" fill="#070404" transform="translate(0,0)"/>
<path d="" fill="#0A0907" transform="translate(0,0)"/>
<path d="" fill="#0C0C0A" transform="translate(0,0)"/>
<path d="" fill="#020303" transform="translate(0,0)"/>
<path d="" fill="#070807" transform="translate(0,0)"/>
<path d="" fill="#040505" transform="translate(0,0)"/>
<path d="" fill="#050604" transform="translate(0,0)"/>
<path d="" fill="#060403" transform="translate(0,0)"/>
<path d="" fill="#040702" transform="translate(0,0)"/>
<path d="" fill="#0A0B0C" transform="translate(0,0)"/>
<path d="" fill="#050304" transform="translate(0,0)"/>
<path d="" fill="#060404" transform="translate(0,0)"/>
<path d="" fill="#050604" transform="translate(0,0)"/>
<path d="" fill="#040502" transform="translate(0,0)"/>
<path d="" fill="#030403" transform="translate(0,0)"/>
<path d="" fill="#0B0C0B" transform="translate(0,0)"/>
<path d="" fill="#0B0B0A" transform="translate(0,0)"/>
<path d="" fill="#0B0A0B" transform="translate(0,0)"/>
<path d="" fill="#0A0B09" transform="translate(0,0)"/>
<path d="" fill="#070907" transform="translate(0,0)"/>
<path d="" fill="#0B0B0B" transform="translate(0,0)"/>
<path d="" fill="#060505" transform="translate(0,0)"/>
<path d="" fill="#030503" transform="translate(0,0)"/>
<path d="" fill="#090808" transform="translate(0,0)"/>
<path d="" fill="#060603" transform="translate(0,0)"/>
<path d="" fill="#060504" transform="translate(0,0)"/>
<path d="" fill="#0B090A" transform="translate(0,0)"/>
<path d="" fill="#030504" transform="translate(0,0)"/>
<path d="" fill="#050505" transform="translate(0,0)"/>
<path d="" fill="#060504" transform="translate(0,0)"/>
<path d="" fill="#0B0B0C" transform="translate(0,0)"/>
<path d="" fill="#0A0A09" transform="translate(0,0)"/>
<path d="" fill="#040403" transform="translate(0,0)"/>
<path d="" fill="#050505" transform="translate(0,0)"/>
<path d="" fill="#0B0B0C" transform="translate(0,0)"/>
<path d="" fill="#050504" transform="translate(0,0)"/>
<path d="" fill="#080807" transform="translate(0,0)"/>
<path d="" fill="#0C0B09" transform="translate(0,0)"/>
<path d="" fill="#090907" transform="translate(0,0)"/>
<path d="" fill="#060504" transform="translate(0,0)"/>
<path d="" fill="#040503" transform="translate(0,0)"/>
<path d="" fill="#080A07" transform="translate(0,0)"/>
<path d="" fill="#0A090A" transform="translate(0,0)"/>
<path d="" fill="#070502" transform="translate(0,0)"/>
<path d="" fill="#040304" transform="translate(0,0)"/>
<path d="" fill="#030403" transform="translate(0,0)"/>
<path d="" fill="#070707" transform="translate(0,0)"/>
<path d="" fill="#0A0809" transform="translate(0,0)"/>
<path d="" fill="#060706" transform="translate(0,0)"/>
<path d="" fill="#080604" transform="translate(0,0)"/>
<path d="" fill="#030203" transform="translate(0,0)"/>
<path d="" fill="#080805" transform="translate(0,0)"/>
<path d="" fill="#050505" transform="translate(0,0)"/>
<path d="" fill="#060604" transform="translate(0,0)"/>
<path d="" fill="#040604" transform="translate(0,0)"/>
<path d="" fill="#040603" transform="translate(0,0)"/>
<path d="" fill="#080908" transform="translate(0,0)"/>
<path d="" fill="#060607" transform="translate(0,0)"/>
<path d="" fill="#0B0A0A" transform="translate(0,0)"/>
<path d="" fill="#090A09" transform="translate(0,0)"/>
<path d="" fill="#050503" transform="translate(0,0)"/>
<path d="" fill="#060606" transform="translate(0,0)"/>
<path d="" fill="#090806" transform="translate(0,0)"/>
<path d="" fill="#0A0705" transform="translate(0,0)"/>
<path d="" fill="#060505" transform="translate(0,0)"/>
<path d="" fill="#050604" transform="translate(0,0)"/>
<path d="" fill="#070606" transform="translate(0,0)"/>
<path d="" fill="#080606" transform="translate(0,0)"/>
<path d="" fill="#090607" transform="translate(0,0)"/>
<path d="" fill="#060706" transform="translate(0,0)"/>
<path d="" fill="#060405" transform="translate(0,0)"/>
<path d="" fill="#050604" transform="translate(0,0)"/>
<path d="" fill="#070506" transform="translate(0,0)"/>
<path d="" fill="#060706" transform="translate(0,0)"/>
<path d="" fill="#060505" transform="translate(0,0)"/>
<path d="" fill="#060707" transform="translate(0,0)"/>
<path d="" fill="#050606" transform="translate(0,0)"/>
<path d="" fill="#040605" transform="translate(0,0)"/>
<path d="" fill="#060805" transform="translate(0,0)"/>
<path d="" fill="#070704" transform="translate(0,0)"/>
<path d="" fill="#050505" transform="translate(0,0)"/>
<path d="" fill="#050403" transform="translate(0,0)"/>
<path d="" fill="#070506" transform="translate(0,0)"/>
<path d="" fill="#060805" transform="translate(0,0)"/>
<path d="" fill="#070606" transform="translate(0,0)"/>
<path d="" fill="#050503" transform="translate(0,0)"/>
<path d="" fill="#050606" transform="translate(0,0)"/>
<path d="" fill="#040503" transform="translate(0,0)"/>
<path d="" fill="#060707" transform="translate(0,0)"/>
<path d="" fill="#060605" transform="translate(0,0)"/>
<path d="" fill="#050506" transform="translate(0,0)"/>
<path d="" fill="#070707" transform="translate(0,0)"/>
<path d="" fill="#070506" transform="translate(0,0)"/>
<path d="" fill="#050505" transform="translate(0,0)"/>
<path d="" fill="#050606" transform="translate(0,0)"/>
<path d="" fill="#050604" transform="translate(0,0)"/>
<path d="" fill="#060505" transform="translate(0,0)"/>
<path d="" fill="#050604" transform="translate(0,0)"/>
<path d="" fill="#0A0908" transform="translate(0,0)"/>
<path d="" fill="#0A090A" transform="translate(0,0)"/>
<path d="" fill="#090709" transform="translate(0,0)"/>
<path d="" fill="#080706" transform="translate(0,0)"/>
<path d="" fill="#090708" transform="translate(0,0)"/>
<path d="" fill="#070709" transform="translate(0,0)"/>
<path d="" fill="#090907" transform="translate(0,0)"/>
<path d="" fill="#080A07" transform="translate(0,0)"/>
<path d="" fill="#060908" transform="translate(0,0)"/>
<path d="" fill="#0B0809" transform="translate(0,0)"/>
<path d="" fill="#090908" transform="translate(0,0)"/>
<path d="" fill="#0B0A09" transform="translate(0,0)"/>
<path d="" fill="#0A0A0B" transform="translate(0,0)"/>
<path d="" fill="#080B09" transform="translate(0,0)"/>
<path d="" fill="#0A0809" transform="translate(0,0)"/>
<path d="" fill="#090A0A" transform="translate(0,0)"/>
<path d="" fill="#0E0D0C" transform="translate(0,0)"/>
<path d="" fill="#0B0D0B" transform="translate(0,0)"/>
<path d="" fill="#0F0C0D" transform="translate(0,0)"/>
<path d="" fill="#090A08" transform="translate(0,0)"/>
<path d="" fill="#0B0C0A" transform="translate(0,0)"/>
<path d="" fill="#0B0C0C" transform="translate(0,0)"/>
<path d="" fill="#0A0A0A" transform="translate(0,0)"/>
<path d="" fill="#080908" transform="translate(0,0)"/>
<path d="" fill="#0C0B0B" transform="translate(0,0)"/>
<path d="" fill="#0A0A07" transform="translate(0,0)"/>
<path d="" fill="#0A0908" transform="translate(0,0)"/>
<path d="" fill="#0B0C0C" transform="translate(0,0)"/>
<path d="" fill="#0F0E0D" transform="translate(0,0)"/>
<path d="" fill="#0B0B09" transform="translate(0,0)"/>
<path d="" fill="#0A0908" transform="translate(0,0)"/>
<path d="" fill="#0D0B0A" transform="translate(0,0)"/>
<path d="" fill="#0D0F0C" transform="translate(0,0)"/>
<path d="" fill="#0A0B0B" transform="translate(0,0)"/>
<path d="" fill="#0C0C0B" transform="translate(0,0)"/>
<path d="" fill="#0B0C08" transform="translate(0,0)"/>
<path d="" fill="#0B0B0B" transform="translate(0,0)"/>
<path d="" fill="#090B0A" transform="translate(0,0)"/>
<path d="" fill="#0E0F0D" transform="translate(0,0)"/>
<path d="" fill="#090A07" transform="translate(0,0)"/>
<path d="" fill="#0A0908" transform="translate(0,0)"/>
<path d="" fill="#050505" transform="translate(0,0)"/>
<path d="" fill="#0A0A0A" transform="translate(0,0)"/>
<path d="" fill="#080605" transform="translate(0,0)"/>
<path d="" fill="#0A0B0A" transform="translate(0,0)"/>
<path d="" fill="#090B08" transform="translate(0,0)"/>
<path d="" fill="#0C0A0B" transform="translate(0,0)"/>
<path d="" fill="#0C0B0A" transform="translate(0,0)"/>
<path d="" fill="#070505" transform="translate(0,0)"/>
<path d="" fill="#0A0A09" transform="translate(0,0)"/>
<path d="" fill="#0B0A0A" transform="translate(0,0)"/>
<path d="" fill="#0C0B0B" transform="translate(0,0)"/>
<path d="" fill="#0A0B0D" transform="translate(0,0)"/>
<path d="" fill="#0C0D0D" transform="translate(0,0)"/>
<path d="" fill="#0B0C09" transform="translate(0,0)"/>
<path d="" fill="#0D0B0C" transform="translate(0,0)"/>
<path d="" fill="#0D0E0E" transform="translate(0,0)"/>
<path d="" fill="#D6D8D8" transform="translate(0,0)"/>
<path d="" fill="#E0DFE0" transform="translate(0,0)"/>
<path d="" fill="#DFE0E2" transform="translate(0,0)"/>
<path d="" fill="#DADCDD" transform="translate(0,0)"/>
<path d="" fill="#E0E1E1" transform="translate(0,0)"/>
<path d="" fill="#E3E4E5" transform="translate(0,0)"/>
<path d="" fill="#E3E4E5" transform="translate(0,0)"/>
<path d="" fill="#E2E5E4" transform="translate(0,0)"/>
<path d="" fill="#E4E4E7" transform="translate(0,0)"/>
<path d="" fill="#E2E5E4" transform="translate(0,0)"/>
<path d="" fill="#E3E4E6" transform="translate(0,0)"/>
<path d="" fill="#E4E5E7" transform="translate(0,0)"/>
<path d="" fill="#E4E5E6" transform="translate(0,0)"/>
<path d="" fill="#E3E4E6" transform="translate(0,0)"/>
<path d="" fill="#E4E5E7" transform="translate(0,0)"/>
</svg>
